<svg xmlns="http://www.w3.org/2000/svg" width="32" height="32" viewBox="0 0 32 32" fill="none"><path d="M27.4033 9.15754L27.3989 9.17527C27.3287 9.45939 27.2569 9.74191 27.1853 10.0239C27.1136 10.306 27.042 10.5876 26.972 10.8707C26.8753 11.2636 26.7832 11.6592 26.691 12.0554C26.5003 12.8748 26.309 13.6971 26.074 14.5051L26.0739 14.5052C25.8954 15.1176 25.5772 15.598 25.141 15.9431C24.7057 16.2876 24.1611 16.4911 23.5384 16.5638L23.5382 16.5638C21.8194 16.7614 20.0968 16.9383 18.3744 17.1151C17.8102 17.1731 17.2459 17.231 16.6819 17.2897C16.4759 17.3114 16.2701 17.3332 16.0643 17.3551C15.1133 17.4562 14.1631 17.5572 13.2089 17.6376M27.4033 9.15754L13.1963 17.4881M27.4033 9.15754V9.13926V9.13876V9.13826V9.13776V9.13726V9.13676V9.13626V9.13576V9.13526V9.13476V9.13426V9.13376V9.13326V9.13276V9.13226V9.13176V9.13126V9.13076V9.13026V9.12976V9.12926V9.12876V9.12826V9.12776V9.12726V9.12676V9.12626V9.12576V9.12525V9.12475V9.12425V9.12375V9.12325V9.12275V9.12225V9.12175V9.12125V9.12075V9.12025V9.11975V9.11925V9.11875V9.11825V9.11775V9.11725V9.11675V9.11625V9.11575V9.11525V9.11475V9.11425V9.11375V9.11325V9.11275V9.11225V9.11175V9.11125V9.11075V9.11025V9.10975V9.10925V9.10875V9.10825V9.10775V9.10725V9.10675V9.10624V9.10574V9.10524V9.10474V9.10424V9.10374V9.10324V9.10274V9.10224V9.10174V9.10124V9.10074V9.10024V9.09974V9.09924V9.09874V9.09824V9.09774V9.09724V9.09674V9.09624V9.09574V9.09524V9.09474V9.09424V9.09374V9.09324V9.09274V9.09224V9.09174V9.09124V9.09074V9.09024V9.08974V9.08924V9.08874V9.08824V9.08773V9.08723V9.08673V9.08623V9.08573V9.08523V9.08473V9.08423V9.08373V9.08323V9.08273V9.08223V9.08173V9.08123V9.08073V9.08023V9.07973V9.07923V9.07873V9.07823V9.07773V9.07723V9.07673V9.07623V9.07573V9.07523V9.07473V9.07423V9.07373V9.07323V9.07273V9.07223V9.07173V9.07123V9.07073V9.07023V9.06973V9.06922V9.06872V9.06822V9.06772V9.06722V9.06672V9.06622V9.06572V9.06522V9.06472V9.06422V9.06372V9.06322V9.06272V9.06222V9.06172V9.06122V9.06072V9.06022V9.05972V9.05922V9.05872V9.05822V9.05772V9.05722V9.05672V9.05622V9.05572V9.05522V9.05472V9.05422V9.05372V9.05322V9.05272V9.05222V9.05172V9.05122V9.05071V9.05021V9.04971V9.04921V9.04871V9.04821V9.04771V9.04721V9.04671V9.04621V9.04571V9.04521V9.04471V9.04421V9.04371V9.04321V9.04271V9.04221V9.04171V9.04121V9.04071V9.04021V9.03971V9.03921V9.03871V9.03821V9.03771V9.03721V9.03671V9.03621V9.03571V9.03521V9.03471V9.03421V9.03371V9.03321V9.03271V9.03221V9.0317V9.0312V9.0307V9.0302V9.0297V9.0292V9.0287V9.0282V9.0277V9.0272V9.0267V9.0262V9.0257V9.0252V9.0247V9.0242V9.0237V9.0232V9.0227V9.0222V9.0217V9.0212V9.0207V9.0202V9.0197V9.0192V9.0187V9.0182V9.0177V9.0172V9.0167V9.0162V9.0157V9.0152V9.0147V9.0142V9.0137V9.0132V9.01269V9.01219V9.01169V9.01119V9.01069V9.01019V9.00969V9.00919V9.00869V9.00819V9.00769V9.00719V9.00669V9.00619V9.00569V9.00519V9.00469V9.00419V9.00369V9.00319V9.00269V9.00219V9.00169V9.00119V9.00069V9.00019V8.99969V8.99919V8.99869V8.99819V8.99769V8.99719V8.99669V8.99619V8.99569V8.99519V8.99469V8.99418V8.99368V8.99318V8.99268V8.99218V8.99168V8.99118V8.99068V8.99018V8.98968V8.98918V8.98868V8.98818V8.98768V8.98718V8.98668V8.98618V8.98568V8.98518V8.98468V8.98418V8.98368V8.98318V8.98268V8.98218V8.98168V8.98118V8.98068V8.98018V8.97968V8.97918V8.97868V8.97818V8.97768V8.97718V8.97668V8.97618V8.97567V8.97517V8.97467V8.97417V8.97367V8.97317V8.97267V8.97217V8.97167V8.97117V8.97067V8.97017V8.96967V8.96917V8.96867V8.96817V8.96767V8.96717V8.96667V8.96617V8.96567V8.96517V8.96467V8.96417V8.96367V8.96317V8.96267V8.96217V8.96167V8.96117V8.96067V8.96017V8.95967V8.95917V8.95867V8.95817V8.95767V8.95717V8.95666V8.95616V8.95566V8.95516V8.95466V8.95416V8.95366V8.95316V8.95266V8.95216V8.95166V8.95116V8.95066V8.95016V8.94966V8.94916V8.94866V8.94816V8.94766V8.94716V8.94666V8.94616V8.94566V8.94516V8.94466V8.94416V8.94366V8.94316V8.94266V8.94216V8.94166V8.94116V8.94066V8.94016V8.93966V8.93916V8.93866V8.93815V8.93765V8.93715V8.93665V8.93615V8.93565V8.93515V8.93465V8.93415V8.93365V8.93315V8.93265V8.93215V8.93165V8.93115V8.93065V8.93015V8.92965V8.92915V8.92865V8.92815V8.92765V8.92715V8.92665V8.92615V8.92565V8.92515V8.92465V8.92415V8.92365V8.92315V8.92265V8.92215V8.92165V8.92115V8.92065V8.92015V8.91965V8.91914V8.91864V8.91814V8.91764V8.91714V8.91664V8.91614V8.91564V8.91514V8.91464V8.91414V8.91364V8.91314V8.91264V8.91214V8.91164V8.91114V8.91064V8.91014V8.90964V8.90914V8.90864V8.90814V8.90764V8.90714V8.90664V8.90614V8.90564V8.90514V8.90464V8.90414V8.90364V8.90314V8.90264V8.90214V8.90164V8.90114V8.90064V8.90013V8.89963V8.89913V8.89863V8.89813V8.89763V8.89713V8.89663V8.89613V8.89563V8.89513V8.89463V8.89413V8.89363V8.89313V8.89263V8.89213V8.89163V8.89113V8.89063V8.89013V8.88963V8.88913V8.88863V8.88813V8.88763V8.88713V8.88663V8.88613V8.88563V8.88513V8.88463V8.88413V8.88363V8.88313V8.84245L27.3828 8.80735C27.297 8.66075 27.186 8.55153 27.05 8.47929C26.9153 8.40767 26.7643 8.37676 26.604 8.37334L26.6028 8.37333C25.2399 8.35503 23.877 8.33521 22.5139 8.31539C21.1509 8.29557 19.7879 8.27575 18.4248 8.25746M27.4033 9.15754L27.2533 8.88313M13.2089 17.6376C13.2089 17.6376 13.2089 17.6376 13.2089 17.6376L13.1963 17.4881M13.2089 17.6376C13.2091 17.6376 13.2092 17.6375 13.2093 17.6375L13.1963 17.4881M13.2089 17.6376C13.0908 17.6479 13.0286 17.678 12.9869 17.7148C12.9416 17.7549 12.9034 17.8179 12.8601 17.9274L12.8594 17.9294C12.615 18.5236 12.7723 19.1285 13.2752 19.4746L13.2754 19.4747C13.4948 19.6263 13.7513 19.6677 14.044 19.6677H14.0625H14.0811H14.0996H14.1182H14.1367H14.1553H14.1738H14.1923H14.2109H14.2294H14.248H14.2665H14.2851H14.3036H14.3222H14.3407H14.3592H14.3778H14.3963H14.4149H14.4334H14.452H14.4705H14.489H14.5076H14.5261H14.5447H14.5632H14.5817H14.6003H14.6188H14.6374H14.6559H14.6745H14.693H14.7115H14.7301H14.7486H14.7672H14.7857H14.8042H14.8228H14.8413H14.8599H14.8784H14.8969H14.9155H14.934H14.9526H14.9711H14.9896H15.0082H15.0267H15.0453H15.0638H15.0823H15.1009H15.1194H15.1379H15.1565H15.175H15.1936H15.2121H15.2306H15.2492H15.2677H15.2863H15.3048H15.3233H15.3419H15.3604H15.3789H15.3975H15.416H15.4345H15.4531H15.4716H15.4902H15.5087H15.5272H15.5458H15.5643H15.5828H15.6014H15.6199H15.6384H15.657H15.6755H15.6941H15.7126H15.7311H15.7497H15.7682H15.7867H15.8053H15.8238H15.8423H15.8609H15.8794H15.8979H15.9165H15.935H15.9535H15.9721H15.9906H16.0091H16.0277H16.0462H16.0647H16.0833H16.1018H16.1203H16.1389H16.1574H16.1759H16.1945H16.213H16.2315H16.2501H16.2686H16.2871H16.3057H16.3242H16.3427H16.3613H16.3798H16.3983H16.4169H16.4354H16.4539H16.4725H16.491H16.5095H16.5281H16.5466H16.5651H16.5837H16.6022H16.6207H16.6393H16.6578H16.6763H16.6948H16.7134H16.7319H16.7504H16.769H16.7875H16.806H16.8246H16.8431H16.8616H16.8802H16.8987H16.9172H16.9357H16.9543H16.9728H16.9913H17.0099H17.0284H17.0469H17.0655H17.084H17.1025H17.121H17.1396H17.1581H17.1766H17.1952H17.2137H17.2322H17.2508H17.2693H17.2878H17.3063H17.3249H17.3434H17.3619H17.3805H17.399H17.4175H17.4361H17.4546H17.4731H17.4916H17.5102H17.5287H17.5472H17.5658H17.5843H17.6028H17.6213H17.6399H17.6584H17.6769H17.6955H17.714H17.7325H17.751H17.7696H17.7881H17.8066H17.8252H17.8437H17.8622H17.8807H17.8993H17.9178H17.9363H17.9549H17.9734H17.9919H18.0104H18.029H18.0475H18.066H18.0846H18.1031H18.1216H18.1401H18.1587H18.1772H18.1957H18.2142H18.2328H18.2513H18.2698H18.2884H18.3069H18.3254H18.3439H18.3625H18.381H18.3995H18.4181H18.4366H18.4551H18.4736H18.4922H18.5107H18.5292H18.5478H18.5663H18.5848H18.6033H18.6219H18.6404H18.6589H18.6774H18.696H18.7145H18.733H18.7516H18.7701H18.7886H18.8071H18.8257H18.8442H18.8627H18.8813H18.8998H18.9183H18.9368H18.9554H18.9739H18.9924H19.0109H19.0295H19.048H19.0665H19.0851H19.1036H19.1221H19.1406H19.1592H19.1777H19.1962H19.2148H19.2333H19.2518H19.2703H19.2889H19.3074H19.3259H19.3444H19.363H19.3815H19.4H19.4186H19.4371H19.4556H19.4741H19.4927H19.5112H19.5297H19.5483H19.5668H19.5853H19.6038H19.6224H19.6409H19.6594H19.678H19.6965H19.715H19.7335H19.7521H19.7706H19.7891H19.8077H19.8262H19.8447H19.8632H19.8818H19.9003H19.9188H19.9374H19.9559H19.9744H19.9929H20.0115H20.03H20.0485H20.0671H20.0856H20.1041H20.1226H20.1412H20.1597H20.1782H20.1968H20.2153H20.2338H20.2523H20.2709H20.2894H20.3079H20.3265H20.345H20.3635H20.3821H20.4006H20.4191H20.4376H20.4562H20.4747H20.4932H20.5118H20.5303H20.5488H20.5674H20.5859H20.6044H20.6229H20.6415H20.66H20.6785H20.6971H20.7156H20.7341H20.7527H20.7712H20.7897H20.8083H20.8268H20.8453H20.8638H20.8824H20.9009H20.9194H20.938H20.9565H20.975H20.9936H21.0121H21.0306H21.0492H21.0677H21.0862H21.1048H21.1233H21.1418H21.1604H21.1789H21.1974H21.216H21.2345H21.253H21.2715H21.2901H21.3086H21.3271H21.3457H21.3642H21.3827H21.4013H21.4198H21.4383H21.4569H21.4754H21.4939H21.5125H21.531H21.5495H21.5681H21.5866H21.6052H21.6237H21.6422H21.6608H21.6793H21.6978H21.7164H21.7349H21.7534H21.772H21.7905H21.809H21.8276H21.8461H21.8646H21.8832H21.9017H21.9202H21.9388H21.9573H21.9758H21.9944H22.0129H22.0315H22.05H22.0685H22.0871H22.1056H22.1241H22.1427H22.1612H22.1797H22.1983H22.2168H22.2354H22.2539H22.2724H22.291H22.3095H22.328H22.3466H22.3651H22.3837H22.4022H22.4207H22.4393H22.4578H22.4764H22.4949H22.5134H22.532H22.5505H22.569H22.5876H22.6061H22.6247H22.6432H22.6617H22.6803H22.6988H22.7174H22.7359H22.7544H22.773H22.7915H22.8101H22.8286H22.8471H22.8657H22.8842H22.9028H22.9213H22.9398H22.9584H22.9769H22.9955H23.014H23.0326H23.0511H23.0696H23.0882H23.1067H23.1253H23.1438H23.1624H23.1809H23.1994H23.218H23.2365H23.2551H23.2736H23.2922H23.3107H23.3292H23.3478H23.3663H23.3849H23.4034H23.422H23.4405H23.4591H23.4776H23.4962H23.5147H23.5332C23.6525 19.6677 23.78 19.6738 23.9047 19.7012M13.1963 17.4881C12.9158 17.5125 12.8121 17.6406 12.7206 17.8723C12.4523 18.5248 12.623 19.2079 13.1902 19.5982C13.4463 19.775 13.7391 19.8177 14.044 19.8177H23.5332C23.6491 19.8177 23.765 19.8238 23.8748 19.8482M23.9047 19.7012C23.9038 19.701 23.9029 19.7009 23.9019 19.7007L23.8748 19.8482M23.9047 19.7012C24.2091 19.7586 24.4072 20.0107 24.415 20.3139M23.9047 19.7012C23.9056 19.7014 23.9064 19.7016 23.9073 19.7018L23.8748 19.8482M23.8748 19.8482L18.4248 8.25746M27.2533 8.88313C27.107 8.63309 26.8874 8.52941 26.6008 8.52331C25.2377 8.50502 23.8747 8.4852 22.5117 8.46538C21.1487 8.44556 19.7857 8.42574 18.4227 8.40744M27.2533 8.88313V9.13926V8.88313ZM18.4227 8.40744L18.4248 8.25746M18.4227 8.40744L18.4247 8.25746C18.4247 8.25746 18.4247 8.25746 18.4248 8.25746M18.4227 8.40744C17.5281 8.39519 16.6341 8.38225 15.7404 8.36931C13.9657 8.34362 12.1919 8.31795 10.4154 8.29767L18.4248 8.25746M18.4248 8.25746C17.5304 8.2452 16.6365 8.23227 15.7428 8.21933C13.968 8.19364 12.1938 8.16796 10.4171 8.14768V8.14767H10.4154C10.3375 8.14767 10.3132 8.13403 10.3044 8.12722C10.2949 8.11985 10.2759 8.09914 10.2547 8.02472L10.2545 8.02411C10.153 7.67456 10.0361 7.3355 9.91933 6.99671C9.90834 6.96483 9.89735 6.93296 9.88637 6.90107L9.88609 6.90026C9.58669 6.04665 8.99525 5.3974 8.06578 5.25871C7.4795 5.16888 6.87504 5.17938 6.28764 5.18959C6.10231 5.19281 5.91867 5.196 5.73783 5.196C5.4542 5.196 5.28709 5.41797 5.21697 5.63536L5.21695 5.63536L5.21625 5.63764C5.14815 5.86085 5.18742 6.07826 5.3245 6.24027C5.45929 6.39957 5.67235 6.48652 5.91864 6.49004L5.91891 6.49004C6.24513 6.49412 6.57511 6.49276 6.90453 6.4914C7.06866 6.49073 7.23265 6.49005 7.39598 6.49005C7.74032 6.49301 7.99958 6.56882 8.19742 6.71229C8.39531 6.85579 8.54788 7.07869 8.65696 7.40588C8.92675 8.21852 9.19614 9.03166 9.46557 9.84495C10.2069 12.0827 10.9486 14.3214 11.7001 16.5535C11.7976 16.8518 11.7824 17.0822 11.6561 17.3734C10.8874 19.131 12.1 20.9862 14.0135 20.9862H14.0322H14.0509H14.0697H14.0884H14.1071H14.1258H14.1446H14.1633H14.182H14.2007H14.2195H14.2382H14.2569H14.2756H14.2944H14.3131H14.3318H14.3505H14.3693H14.388H14.4067H14.4255H14.4442H14.4629H14.4816H14.5004H14.5191H14.5378H14.5566H14.5753H14.594H14.6127H14.6315H14.6502H14.6689H14.6877H14.7064H14.7251H14.7438H14.7626H14.7813H14.8H14.8188H14.8375H14.8562H14.8749H14.8937H14.9124H14.9311H14.9499H14.9686H14.9873H15.0061H15.0248H15.0435H15.0623H15.081H15.0997H15.1184H15.1372H15.1559H15.1746H15.1934H15.2121H15.2308H15.2496H15.2683H15.287H15.3058H15.3245H15.3432H15.362H15.3807H15.3994H15.4182H15.4369H15.4556H15.4744H15.4931H15.5118H15.5306H15.5493H15.568H15.5868H15.6055H15.6242H15.643H15.6617H15.6804H15.6992H15.7179H15.7366H15.7554H15.7741H15.7928H15.8116H15.8303H15.8491H15.8678H15.8865H15.9053H15.924H15.9427H15.9615H15.9802H15.9989H16.0177H16.0364H16.0551H16.0739H16.0926H16.1114H16.1301H16.1488H16.1676H16.1863H16.205H16.2238H16.2425H16.2613H16.28H16.2987H16.3175H16.3362H16.3549H16.3737H16.3924H16.4112H16.4299H16.4486H16.4674H16.4861H16.5048H16.5236H16.5423H16.5611H16.5798H16.5985H16.6173H16.636H16.6547H16.6735H16.6922H16.711H16.7297H16.7484H16.7672H16.7859H16.8047H16.8234H16.8421H16.8609H16.8796H16.8984H16.9171H16.9358H16.9546H16.9733H16.9921H17.0108H17.0295H17.0483H17.067H17.0857H17.1045H17.1232H17.142H17.1607H17.1794H17.1982H17.2169H17.2357H17.2544H17.2732H17.2919H17.3106H17.3294H17.3481H17.3669H17.3856H17.4043H17.4231H17.4418H17.4606H17.4793H17.498H17.5168H17.5355H17.5543H17.573H17.5917H17.6105H17.6292H17.648H17.6667H17.6854H17.7042H17.7229H17.7417H17.7604H17.7792H17.7979H17.8166H17.8354H17.8541H17.8729H17.8916H17.9103H17.9291H17.9478H17.9666H17.9853H18.0041H18.0228H18.0415H18.0603H18.079H18.0978H18.1165H18.1352H18.154H18.1727H18.1915H18.2102H18.229H18.2477H18.2664H18.2852H18.3039H18.3227H18.3414H18.3601H18.3789H18.3976H18.4164H18.4351H18.4539H18.4726H18.4913H18.5101H18.5288H18.5476H18.5663H18.5851H18.6038H18.6225H18.6413H18.66H18.6788H18.6975H18.7162H18.735H18.7537H18.7725H18.7912H18.81H18.8287H18.8474H18.8662H18.8849H18.9037H18.9224H18.9412H18.9599H18.9786H18.9974H19.0161H19.0349H19.0536H19.0723H19.0911H19.1098H19.1286H19.1473H19.1661H19.1848H19.2035H19.2223H19.241H19.2598H19.2785H19.2973H19.316H19.3347H19.3535H19.3722H19.391H19.4097H19.4284H19.4472H19.4659H19.4847H19.5034H19.5222H19.5409H19.5596H19.5784H19.5971H19.6159H19.6346H19.6533H19.6721H19.6908H19.7096H19.7283H19.7471H19.7658H19.7845H19.8033H19.822H19.8408H19.8595H19.8782H19.897H19.9157H19.9345H19.9532H19.9719H19.9907H20.0094H20.0282H20.0469H20.0657H20.0844H20.1031H20.1219H20.1406H20.1594H20.1781H20.1968H20.2156H20.2343H20.2531H20.2718H20.2905H20.3093H20.328H20.3468H20.3655H20.3842H20.403H20.4217H20.4405H20.4592H20.4779H20.4967H20.5154H20.5342H20.5529H20.5716H20.5904H20.6091H20.6279H20.6466H20.6653H20.6841H20.7028H20.7216H20.7403H20.759H20.7778H20.7965H20.8153H20.834H20.8527H20.8715H20.8902H20.909H20.9277H20.9464H20.9652H20.9839H21.0026H21.0214H21.0401H21.0589H21.0776H21.0963H21.1151H21.1338H21.1525H21.1713H21.19H21.2088H21.2275H21.2462H21.265H21.2837H21.3025H21.3212H21.3399H21.3587H21.3774H21.3961H21.4149H21.4336H21.4523H21.4711H21.4898H21.5086H21.5273H21.546H21.5648H21.5835H21.6022H21.621H21.6397H21.6584H21.6772H21.6959H21.7147H21.7334H21.7521H21.7709H21.7896H21.8083H21.8271H21.8458H21.8645H21.8833H21.902H21.9207H21.9395H21.9582H21.9769H21.9957H22.0144H22.0331H22.0519H22.0706H22.0893H22.1081H22.1268H22.1455H22.1643H22.183H22.2017H22.2205H22.2392H22.2579H22.2767H22.2954H22.3141H22.3329H22.3516H22.3703H22.3891H22.4078H22.4265H22.4453H22.464H22.4827H22.5015H22.5202H22.5389H22.5577H22.5764H22.5951H22.6139H22.6326H22.6513H22.67H22.6888H22.7075H22.7262H22.745H22.7637H22.7824H22.8012H22.8199H22.8386H22.8573H22.8761H22.8948H22.9135H22.9323H22.951H22.9697H22.9885H23.0072H23.0259H23.0446H23.0634H23.0821H23.1008H23.1195H23.1383H23.157H23.1757H23.1945H23.2132H23.2319H23.2506H23.2694H23.2881H23.3068H23.3255H23.3443H23.363H23.3817H23.4004H23.4192H23.4379H23.4566H23.4754H23.4941H23.5128H23.5315H23.5503H23.569H23.5877H23.6064H23.6136C23.7125 20.9862 23.826 20.9862 23.9416 20.9573L23.9416 20.9573L23.9444 20.9566C24.2409 20.8764 24.4228 20.6105 24.415 20.3139M24.415 20.3139C24.415 20.3139 24.415 20.3139 24.415 20.314L24.2651 20.3178L24.415 20.3139ZM23.9053 20.8118C23.8077 20.8362 23.7101 20.8362 23.6064 20.8362H14.0135C12.2083 20.8362 11.0679 19.092 11.7936 17.4332C11.9339 17.11 11.9522 16.8417 11.8424 16.5062C11.091 14.2744 10.3494 12.0359 9.60807 9.7981C9.33859 8.9847 9.06915 8.17138 8.79928 7.3585C8.56753 6.66327 8.12844 6.34615 7.39662 6.34005L23.9053 20.8118ZM23.3773 15.2532L23.3773 15.2532C20.822 15.5216 18.2669 15.7899 15.7119 16.0521C15.4243 16.0814 15.1371 16.1102 14.85 16.1389C14.2436 16.1996 13.6375 16.2603 13.029 16.3265C13.0027 16.3288 12.9892 16.3275 12.9833 16.3264C12.9827 16.3254 12.9819 16.3242 12.9809 16.3227C12.9758 16.3142 12.9689 16.2998 12.9602 16.275C12.5853 15.135 12.2088 13.9949 11.8324 12.855L11.8323 12.8546C11.4596 11.726 11.0869 10.5974 10.7157 9.46881C15.7961 9.54036 20.8425 9.61771 25.9171 9.70087C25.8864 9.82744 25.8556 9.9529 25.8249 10.0776C25.7674 10.312 25.7105 10.5438 25.656 10.7752C25.5249 11.3058 25.3968 11.8348 25.2689 12.3635L25.2688 12.3636C25.1408 12.8927 25.0128 13.4214 24.8818 13.9516L24.8817 13.9519C24.7839 14.3515 24.6072 14.6528 24.3614 14.865C24.1155 15.0774 23.7895 15.21 23.3773 15.2532Z" fill="black" stroke="black" stroke-width="0.3"></path><path d="M12.3239 21.936C10.9902 21.9297 9.88685 23.0341 9.88665 24.3725C9.88034 25.7182 10.9723 26.8096 12.3171 26.8098M12.3239 21.936C13.6569 21.9362 14.767 23.0525 14.7605 24.3797C14.754 25.7179 13.6569 26.8161 12.3171 26.8098M12.3239 21.936C12.3238 21.936 12.3237 21.936 12.3236 21.936V22.086L12.3243 21.936C12.3242 21.936 12.3241 21.936 12.3239 21.936ZM12.3171 26.8098C12.317 26.8098 12.3169 26.8098 12.3168 26.8098L12.3175 26.6598V26.8098C12.3174 26.8098 12.3172 26.8098 12.3171 26.8098ZM13.4421 24.3729C13.4421 24.9794 12.9416 25.486 12.3284 25.4914C11.7095 25.4968 11.2105 25.008 11.2051 24.3899C11.1997 23.7654 11.7059 23.2548 12.3229 23.2544C12.9316 23.2602 13.4421 23.7624 13.4421 24.3729Z" fill="black" stroke="black" stroke-width="0.3"></path><path d="M21.9905 21.936C20.6564 21.9295 19.5533 23.0342 19.5468 24.3722V24.3729C19.5468 25.7171 20.6313 26.8159 21.9776 26.8159C23.3286 26.8159 24.4142 25.737 24.4206 24.3858C24.4271 23.0466 23.3357 21.9425 21.9905 21.936ZM21.9905 21.936L21.9898 22.086M21.9905 21.936L21.9898 22.086M21.9898 22.086C20.7396 22.0799 19.7029 23.1166 19.6968 24.3729C19.6968 25.6353 20.7152 26.6659 21.9776 26.6659C23.2461 26.6659 24.2646 25.6536 24.2706 24.3851C24.2767 23.1288 23.2522 22.0921 21.9898 22.086ZM23.1022 24.3838L23.1022 24.3838C23.0968 25.0013 22.5804 25.5022 21.9619 25.4914C21.3478 25.4806 20.843 24.9621 20.853 24.3646C20.8753 23.7433 21.383 23.2551 21.9885 23.2605L21.9885 23.2605C22.6015 23.2659 23.1076 23.7842 23.1022 24.3838Z" fill="black" stroke="black" stroke-width="0.3"></path></svg>