<svg xmlns="http://www.w3.org/2000/svg" width="137" height="140"><path d="M0 0 C45.21 0 90.42 0 137 0 C137 46.2 137 92.4 137 140 C91.79 140 46.58 140 0 140 C0 93.8 0 47.6 0 0 Z " fill="#FDFDFD" transform="translate(0,0)"></path><path d="M0 0 C12.45282785 0.03072703 12.45282785 0.03072703 17.48925781 4.38037109 C20.5528021 8.18910183 22.01757222 11.7660905 23.48925781 16.38037109 C27.49554843 16.50880696 31.50198054 16.63145531 35.50857544 16.74993896 C37.03892795 16.79527339 38.56926262 16.84121376 40.09957886 16.88775635 C51.03017648 17.21600759 61.95833965 17.42603887 72.89332008 17.54200172 C74.90804298 17.56393121 76.92273232 17.58782632 78.93742371 17.61247253 C79.60354077 17.62060502 80.26965784 17.62873751 80.95596027 17.63711643 C82.30298112 17.65361705 83.65000095 17.67020019 84.99701977 17.68686581 C88.3632823 17.72743494 91.72941672 17.76173862 95.09585571 17.78366089 C98.91605394 17.8107016 102.73568272 17.85560799 106.55566406 17.90380859 C108.29713715 17.90863503 108.29713715 17.90863503 110.0737915 17.91355896 C111.13974548 17.93016068 112.20569946 17.94676239 113.30395508 17.96386719 C114.23683853 17.97195404 115.16972198 17.98004089 116.13087463 17.9883728 C118.93275997 18.45408774 119.83806449 19.09884523 121.48925781 21.38037109 C122.3082983 28.01281849 120.3053204 34.40680236 118.73925781 40.81787109 C118.48660156 41.91164062 118.23394531 43.00541016 117.97363281 44.13232422 C115.77929576 53.24430883 113.51397359 60.92356437 105.48925781 66.38037109 C100.16545698 68.57990921 94.79075014 69.0795817 89.11425781 69.66943359 C88.11273682 69.77758392 87.11121582 69.88573425 86.0793457 69.99716187 C83.96161733 70.22393494 81.8435217 70.44730085 79.72509766 70.66748047 C76.52678297 71.00145267 73.33034031 71.35028196 70.13378906 71.70068359 C59.54679295 72.83438476 49.14917334 73.78152549 38.48925781 73.38037109 C38.48925781 76.35037109 38.48925781 79.32037109 38.48925781 82.38037109 C39.27186478 82.38623734 40.05447174 82.39210358 40.86079407 82.39814758 C48.23286404 82.4560295 55.60459428 82.52807961 62.97636127 82.61608601 C66.76636445 82.66083133 70.5562591 82.7000779 74.34643555 82.72680664 C78.00356834 82.75279867 81.66028443 82.79317097 85.31715965 82.84355736 C86.71296192 82.86025405 88.1088363 82.87175088 89.5047245 82.877985 C91.45842493 82.88759472 93.41199508 82.91733581 95.36547852 82.94799805 C96.47800491 82.9591011 97.59053131 82.97020416 98.73677063 82.98164368 C101.48925781 83.38037109 101.48925781 83.38037109 103.34855652 84.74723816 C104.97445627 87.07502585 104.91510966 88.6123341 104.48925781 91.38037109 C101.03023796 93.68638433 99.66630695 93.64620041 95.58422852 93.68676758 C93.76137077 93.71074867 93.76137077 93.71074867 91.90168762 93.73521423 C90.5860936 93.74057693 89.27049957 93.74593964 87.91503906 93.75146484 C86.5484355 93.76043585 85.18183292 93.76955779 83.81523132 93.77882385 C80.94784157 93.79531681 78.08056856 93.80301378 75.21313477 93.8059082 C71.55570129 93.81127531 67.89938114 93.84888198 64.24226093 93.89465237 C61.41704921 93.92454817 58.59210069 93.93163453 55.76674461 93.93263435 C53.76824026 93.93883849 51.769851 93.96825552 49.77156067 93.99815369 C42.46938279 93.96210115 37.00937415 93.48713314 31.48925781 88.38037109 C27.81493381 83.44299821 28.00160669 78.29782992 28.48925781 72.38037109 C28.68920349 71.61749786 28.88914917 70.85462463 29.09515381 70.06863403 C29.5669583 66.85036042 29.02319304 64.97984749 27.99804688 61.90332031 C27.64728088 60.83226044 27.29651489 59.76120056 26.93511963 58.65768433 C26.54564148 57.51171783 26.15616333 56.36575134 25.75488281 55.18505859 C25.36105408 54.00066193 24.96722534 52.81626526 24.5614624 51.59597778 C23.72638594 49.09406728 22.88679858 46.59426921 22.0390625 44.09667969 C20.95427691 40.89912757 19.88830473 37.69568549 18.82818985 34.48988152 C17.81293789 31.42685479 16.7834475 28.36863581 15.75488281 25.31005859 C15.37350159 24.16004364 14.99212036 23.01002869 14.59918213 21.82516479 C14.2358075 20.76040924 13.87243286 19.69565369 13.49804688 18.59863281 C13.18192444 17.66107147 12.865802 16.72351013 12.5401001 15.75753784 C11.46211199 13.31896308 10.60307197 11.98796584 8.48925781 10.38037109 C5.13199352 9.87278661 5.13199352 9.87278661 1.42675781 9.81787109 C-5.30240885 9.58870443 -5.30240885 9.58870443 -7.51074219 7.38037109 C-7.76074219 4.88037109 -7.76074219 4.88037109 -7.51074219 2.38037109 C-5.01609728 -0.11427381 -3.41492875 0.07360458 0 0 Z " fill="#0A0A0A" transform="translate(10.5107421875,6.61962890625)"></path><path d="M0 0 C7.24359846 -0.02360542 14.48718808 -0.04115211 21.73081779 -0.05181217 C25.09758294 -0.05693916 28.46430081 -0.06442748 31.83105469 -0.07543945 C49.58044137 -0.13194499 67.26980876 0.14940935 85 1 C84.42800029 3.48897173 83.85593118 5.97792699 83.28335571 8.46676636 C82.84547004 10.37433314 82.41130735 12.28275551 81.97924805 14.19165039 C78.79220482 27.80519678 78.79220482 27.80519678 74 31 C63.19778307 33.33688539 51.8377036 33.8597703 40.84692383 34.85986328 C37.91119355 35.12739732 34.97609616 35.40121943 32.04101562 35.67578125 C30.1614922 35.84932556 28.28193604 36.0225157 26.40234375 36.1953125 C25.09607277 36.31714401 25.09607277 36.31714401 23.76341248 36.44143677 C19.82848735 36.79677786 15.95615249 37.10404282 12 37 C10.28911478 31.8919914 8.58016842 26.78333994 6.87304688 21.67407227 C6.29155395 19.9346344 5.70952364 18.19537609 5.12695312 16.45629883 C4.29156726 13.9622174 3.45809142 11.46750487 2.625 8.97265625 C2.36251465 8.19036148 2.1000293 7.40806671 1.82958984 6.60206604 C0 1.11387171 0 1.11387171 0 0 Z " fill="#FDFDFD" transform="translate(37,34)"></path><path d="M0 0 C4.10684948 1.31450296 7.0695713 3.63279136 9.5 7.1875 C11.65182759 11.50970543 11.28730023 15.44046562 10 20 C7.55541708 24.88916584 5.18976563 27.23743809 0 29 C-4.28921728 29.54562481 -7.80384649 29.50504259 -11.8125 27.8125 C-15.2596633 24.95627898 -17.57791895 22.26624316 -19 18 C-19.50201239 11.87544882 -19.09928344 8.87482354 -15 4 C-10.67099339 -0.83830151 -6.11984204 -0.92753856 0 0 Z " fill="#050505" transform="translate(49,104)"></path><path d="M0 0 C6.84289452 5.86533816 6.84289452 5.86533816 7.60546875 10.3125 C7.75983934 15.252359 7.50126219 18.9898995 4.1875 22.875 C-0.81280207 27.26550913 -3.7200819 28.23185692 -10.26953125 28.15625 C-14.99362709 27.63376935 -17.59828919 25.21063189 -20.6875 21.8125 C-22.45880636 17.18742228 -22.45792523 12.75871757 -21.8125 7.875 C-17.48781666 -1.09471359 -9.13773358 -3.65509343 0 0 Z " fill="#050505" transform="translate(107.8125,105.125)"></path><path d="M0 0 C3.625 0.375 3.625 0.375 7 1 C8.33359073 7.42548263 8.33359073 7.42548263 6.875 9.9375 C4.36352369 11.36066991 2.84496772 11.42674516 0 11 C-1.875 9.875 -1.875 9.875 -3 8 C-2.77669287 4.35265021 -2.61627165 2.61627165 0 0 Z " fill="#F4F4F4" transform="translate(42,113)"></path><path d="M0 0 C1.8125 1.1875 1.8125 1.1875 3 3 C3.4375 5.5 3.4375 5.5 3 8 C1.375 9.875 1.375 9.875 -1 11 C-4.25 10.6875 -4.25 10.6875 -7 10 C-8.33359073 3.57451737 -8.33359073 3.57451737 -6.875 1.0625 C-4.36352369 -0.36066991 -2.84496772 -0.42674516 0 0 Z " fill="#F5F5F5" transform="translate(103,113)"></path></svg>