<svg xmlns="http://www.w3.org/2000/svg" width="32" height="32" viewBox="0 0 32 32" fill="none"><path d="M26.9198 8.80625C26.7796 9.37341 26.6332 9.93448 26.4929 10.5016C26.1941 11.7152 25.9441 12.9349 25.5965 14.1302C25.2549 15.3012 24.389 15.9415 23.1875 16.0818C20.9067 16.344 18.6198 16.5696 16.3328 16.8075C15.1741 16.9295 14.0215 17.0575 12.8628 17.1551C12.5823 17.1795 12.4786 17.3076 12.3871 17.5393C12.1188 18.1918 12.2895 18.8749 12.8567 19.2652C13.1128 19.442 13.4056 19.4847 13.7105 19.4847C16.8756 19.4847 20.0346 19.4847 23.1997 19.4847C23.3156 19.4847 23.4315 19.4908 23.5413 19.5152C23.773 19.5579 23.9255 19.747 23.9316 19.9848C23.9377 20.2165 23.7974 20.4178 23.5718 20.4788C23.4742 20.5032 23.3766 20.5032 23.2729 20.5032C20.0773 20.5032 16.8756 20.5032 13.68 20.5032C11.8748 20.5032 10.7344 18.759 11.4601 17.1002C11.6004 16.777 11.6187 16.5087 11.5089 16.1732C10.4844 13.1301 9.47813 10.0747 8.46578 7.02549C8.23404 6.33027 7.79494 6.01314 7.06313 6.00704C6.56915 6.00704 6.07517 6.01314 5.58729 6.00704C5.16039 6.00095 4.91645 5.70822 5.02623 5.34841C5.08721 5.15935 5.21528 5.01299 5.40433 5.01299C6.17274 5.01299 6.95335 4.9581 7.70957 5.07397C8.56945 5.20204 9.12442 5.7997 9.41105 6.61689C9.53911 6.9889 9.66718 7.35481 9.77696 7.73292C9.82574 7.90368 9.89893 7.96466 10.0819 7.96466C12.753 7.99515 15.4181 8.03784 18.0892 8.07443C20.8152 8.11103 23.5413 8.15372 26.2673 8.19031C26.5539 8.1964 26.7735 8.30008 26.9198 8.55012C26.9198 8.6355 26.9198 8.72088 26.9198 8.80625ZM10.1917 8.98311C10.2099 9.05629 10.216 9.10508 10.2282 9.14777C10.9784 11.4286 11.7346 13.7094 12.4847 15.9903C12.5274 16.1123 12.5762 16.1549 12.7103 16.1427C13.6068 16.0452 14.4972 15.9598 15.3937 15.8683C17.9489 15.6061 20.5042 15.3377 23.0595 15.0694C23.9316 14.9779 24.4865 14.5022 24.6939 13.6546C24.9561 12.5934 25.2062 11.5384 25.4684 10.4772C25.566 10.0625 25.6696 9.65395 25.7733 9.22095C20.5713 9.13557 15.3998 9.05629 10.1917 8.98311Z" fill="black"></path><path d="M11.984 26.3272C10.7216 26.3272 9.69705 25.3027 9.70315 24.0403C9.70315 22.784 10.7399 21.7473 11.9901 21.7534C13.2403 21.7534 14.2831 22.8023 14.277 24.0464C14.2709 25.3027 13.2403 26.3333 11.984 26.3272ZM11.9962 25.3088C12.6914 25.3027 13.2586 24.7294 13.2586 24.0403C13.2586 23.3451 12.6792 22.7779 11.9901 22.7718C11.2888 22.7718 10.7155 23.3512 10.7216 24.0586C10.7277 24.7599 11.2949 25.3149 11.9962 25.3088Z" fill="black"></path><path d="M23.9372 24.0525C23.9311 25.321 22.9126 26.3333 21.6441 26.3333C20.3817 26.3333 19.3633 25.3027 19.3633 24.0403C19.3694 22.784 20.4061 21.7473 21.6563 21.7534C22.9187 21.7595 23.9433 22.7962 23.9372 24.0525ZM21.6258 25.3088C22.3272 25.321 22.9126 24.7538 22.9187 24.0525C22.9248 23.3695 22.3515 22.784 21.6563 22.7779C20.9672 22.7718 20.3939 23.3268 20.3695 24.0281C20.3573 24.7111 20.9306 25.2966 21.6258 25.3088Z" fill="black"></path></svg>