<svg xmlns="http://www.w3.org/2000/svg" width="23" height="22" viewBox="0 0 23 22" fill="none"><path d="M22.4033 4.15754L22.3989 4.17527C22.3287 4.45939 22.2569 4.74191 22.1853 5.02389C22.1136 5.30602 22.042 5.58761 21.972 5.87066C21.8753 6.26361 21.7832 6.65916 21.691 7.0554C21.5003 7.87478 21.309 8.69705 21.074 9.50514L21.0739 9.50525C20.8954 10.1176 20.5772 10.598 20.141 10.9431C19.7057 11.2876 19.1611 11.4911 18.5384 11.5638L18.5382 11.5638C16.8194 11.7614 15.0968 11.9383 13.3744 12.1151C12.8102 12.1731 12.2459 12.231 11.6819 12.2897C11.4759 12.3114 11.2701 12.3332 11.0643 12.3551C10.1133 12.4562 9.16311 12.5572 8.20895 12.6376M22.4033 4.15754L8.19629 12.4881M22.4033 4.15754V4.13926V4.13876V4.13826V4.13776V4.13726V4.13676V4.13626V4.13576V4.13526V4.13476V4.13426V4.13376V4.13326V4.13276V4.13226V4.13176V4.13126V4.13076V4.13026V4.12976V4.12926V4.12876V4.12826V4.12776V4.12726V4.12676V4.12626V4.12576V4.12525V4.12475V4.12425V4.12375V4.12325V4.12275V4.12225V4.12175V4.12125V4.12075V4.12025V4.11975V4.11925V4.11875V4.11825V4.11775V4.11725V4.11675V4.11625V4.11575V4.11525V4.11475V4.11425V4.11375V4.11325V4.11275V4.11225V4.11175V4.11125V4.11075V4.11025V4.10975V4.10925V4.10875V4.10825V4.10775V4.10725V4.10675V4.10624V4.10574V4.10524V4.10474V4.10424V4.10374V4.10324V4.10274V4.10224V4.10174V4.10124V4.10074V4.10024V4.09974V4.09924V4.09874V4.09824V4.09774V4.09724V4.09674V4.09624V4.09574V4.09524V4.09474V4.09424V4.09374V4.09324V4.09274V4.09224V4.09174V4.09124V4.09074V4.09024V4.08974V4.08924V4.08874V4.08824V4.08773V4.08723V4.08673V4.08623V4.08573V4.08523V4.08473V4.08423V4.08373V4.08323V4.08273V4.08223V4.08173V4.08123V4.08073V4.08023V4.07973V4.07923V4.07873V4.07823V4.07773V4.07723V4.07673V4.07623V4.07573V4.07523V4.07473V4.07423V4.07373V4.07323V4.07273V4.07223V4.07173V4.07123V4.07073V4.07023V4.06973V4.06922V4.06872V4.06822V4.06772V4.06722V4.06672V4.06622V4.06572V4.06522V4.06472V4.06422V4.06372V4.06322V4.06272V4.06222V4.06172V4.06122V4.06072V4.06022V4.05972V4.05922V4.05872V4.05822V4.05772V4.05722V4.05672V4.05622V4.05572V4.05522V4.05472V4.05422V4.05372V4.05322V4.05272V4.05222V4.05172V4.05122V4.05071V4.05021V4.04971V4.04921V4.04871V4.04821V4.04771V4.04721V4.04671V4.04621V4.04571V4.04521V4.04471V4.04421V4.04371V4.04321V4.04271V4.04221V4.04171V4.04121V4.04071V4.04021V4.03971V4.03921V4.03871V4.03821V4.03771V4.03721V4.03671V4.03621V4.03571V4.03521V4.03471V4.03421V4.03371V4.03321V4.03271V4.03221V4.0317V4.0312V4.0307V4.0302V4.0297V4.0292V4.0287V4.0282V4.0277V4.0272V4.0267V4.0262V4.0257V4.0252V4.0247V4.0242V4.0237V4.0232V4.0227V4.0222V4.0217V4.0212V4.0207V4.0202V4.0197V4.0192V4.0187V4.0182V4.0177V4.0172V4.0167V4.0162V4.0157V4.0152V4.0147V4.0142V4.0137V4.0132V4.01269V4.01219V4.01169V4.01119V4.01069V4.01019V4.00969V4.00919V4.00869V4.00819V4.00769V4.00719V4.00669V4.00619V4.00569V4.00519V4.00469V4.00419V4.00369V4.00319V4.00269V4.00219V4.00169V4.00119V4.00069V4.00019V3.99969V3.99919V3.99869V3.99819V3.99769V3.99719V3.99669V3.99619V3.99569V3.99519V3.99469V3.99418V3.99368V3.99318V3.99268V3.99218V3.99168V3.99118V3.99068V3.99018V3.98968V3.98918V3.98868V3.98818V3.98768V3.98718V3.98668V3.98618V3.98568V3.98518V3.98468V3.98418V3.98368V3.98318V3.98268V3.98218V3.98168V3.98118V3.98068V3.98018V3.97968V3.97918V3.97868V3.97818V3.97768V3.97718V3.97668V3.97618V3.97567V3.97517V3.97467V3.97417V3.97367V3.97317V3.97267V3.97217V3.97167V3.97117V3.97067V3.97017V3.96967V3.96917V3.96867V3.96817V3.96767V3.96717V3.96667V3.96617V3.96567V3.96517V3.96467V3.96417V3.96367V3.96317V3.96267V3.96217V3.96167V3.96117V3.96067V3.96017V3.95967V3.95917V3.95867V3.95817V3.95767V3.95717V3.95666V3.95616V3.95566V3.95516V3.95466V3.95416V3.95366V3.95316V3.95266V3.95216V3.95166V3.95116V3.95066V3.95016V3.94966V3.94916V3.94866V3.94816V3.94766V3.94716V3.94666V3.94616V3.94566V3.94516V3.94466V3.94416V3.94366V3.94316V3.94266V3.94216V3.94166V3.94116V3.94066V3.94016V3.93966V3.93916V3.93866V3.93815V3.93765V3.93715V3.93665V3.93615V3.93565V3.93515V3.93465V3.93415V3.93365V3.93315V3.93265V3.93215V3.93165V3.93115V3.93065V3.93015V3.92965V3.92915V3.92865V3.92815V3.92765V3.92715V3.92665V3.92615V3.92565V3.92515V3.92465V3.92415V3.92365V3.92315V3.92265V3.92215V3.92165V3.92115V3.92065V3.92015V3.91965V3.91914V3.91864V3.91814V3.91764V3.91714V3.91664V3.91614V3.91564V3.91514V3.91464V3.91414V3.91364V3.91314V3.91264V3.91214V3.91164V3.91114V3.91064V3.91014V3.90964V3.90914V3.90864V3.90814V3.90764V3.90714V3.90664V3.90614V3.90564V3.90514V3.90464V3.90414V3.90364V3.90314V3.90264V3.90214V3.90164V3.90114V3.90064V3.90013V3.89963V3.89913V3.89863V3.89813V3.89763V3.89713V3.89663V3.89613V3.89563V3.89513V3.89463V3.89413V3.89363V3.89313V3.89263V3.89213V3.89163V3.89113V3.89063V3.89013V3.88963V3.88913V3.88863V3.88813V3.88763V3.88713V3.88663V3.88613V3.88563V3.88513V3.88463V3.88413V3.88363V3.88313V3.84245L22.3828 3.80735C22.297 3.66075 22.186 3.55153 22.05 3.47929C21.9153 3.40767 21.7643 3.37676 21.604 3.37334L21.6028 3.37333C20.2399 3.35503 18.877 3.33521 17.5139 3.31539C16.1509 3.29557 14.7879 3.27575 13.4248 3.25746M22.4033 4.15754L22.2533 3.88313M8.20895 12.6376C8.20892 12.6376 8.2089 12.6376 8.20888 12.6376L8.19629 12.4881M8.20895 12.6376C8.20906 12.6376 8.20917 12.6375 8.20929 12.6375L8.19629 12.4881M8.20895 12.6376C8.0908 12.6479 8.02858 12.678 7.98692 12.7148C7.94155 12.7549 7.90336 12.8179 7.86013 12.9274L7.85935 12.9294C7.61497 13.5236 7.77232 14.1285 8.27523 14.4746L8.27542 14.4747C8.49484 14.6263 8.75132 14.6677 9.04398 14.6677H9.06253H9.08107H9.09962H9.11816H9.13671H9.15525H9.1738H9.19234H9.21089H9.22943H9.24798H9.26652H9.28506H9.30361H9.32215H9.34069H9.35924H9.37778H9.39632H9.41487H9.43341H9.45195H9.4705H9.48904H9.50758H9.52612H9.54466H9.56321H9.58175H9.60029H9.61883H9.63737H9.65591H9.67446H9.693H9.71154H9.73008H9.74862H9.76716H9.7857H9.80424H9.82278H9.84132H9.85986H9.8784H9.89694H9.91548H9.93402H9.95256H9.9711H9.98964H10.0082H10.0267H10.0453H10.0638H10.0823H10.1009H10.1194H10.1379H10.1565H10.175H10.1936H10.2121H10.2306H10.2492H10.2677H10.2863H10.3048H10.3233H10.3419H10.3604H10.3789H10.3975H10.416H10.4345H10.4531H10.4716H10.4902H10.5087H10.5272H10.5458H10.5643H10.5828H10.6014H10.6199H10.6384H10.657H10.6755H10.6941H10.7126H10.7311H10.7497H10.7682H10.7867H10.8053H10.8238H10.8423H10.8609H10.8794H10.8979H10.9165H10.935H10.9535H10.9721H10.9906H11.0091H11.0277H11.0462H11.0647H11.0833H11.1018H11.1203H11.1389H11.1574H11.1759H11.1945H11.213H11.2315H11.2501H11.2686H11.2871H11.3057H11.3242H11.3427H11.3613H11.3798H11.3983H11.4169H11.4354H11.4539H11.4725H11.491H11.5095H11.5281H11.5466H11.5651H11.5837H11.6022H11.6207H11.6393H11.6578H11.6763H11.6948H11.7134H11.7319H11.7504H11.769H11.7875H11.806H11.8246H11.8431H11.8616H11.8802H11.8987H11.9172H11.9357H11.9543H11.9728H11.9913H12.0099H12.0284H12.0469H12.0655H12.084H12.1025H12.121H12.1396H12.1581H12.1766H12.1952H12.2137H12.2322H12.2508H12.2693H12.2878H12.3063H12.3249H12.3434H12.3619H12.3805H12.399H12.4175H12.4361H12.4546H12.4731H12.4916H12.5102H12.5287H12.5472H12.5658H12.5843H12.6028H12.6213H12.6399H12.6584H12.6769H12.6955H12.714H12.7325H12.751H12.7696H12.7881H12.8066H12.8252H12.8437H12.8622H12.8807H12.8993H12.9178H12.9363H12.9549H12.9734H12.9919H13.0104H13.029H13.0475H13.066H13.0846H13.1031H13.1216H13.1401H13.1587H13.1772H13.1957H13.2142H13.2328H13.2513H13.2698H13.2884H13.3069H13.3254H13.3439H13.3625H13.381H13.3995H13.4181H13.4366H13.4551H13.4736H13.4922H13.5107H13.5292H13.5478H13.5663H13.5848H13.6033H13.6219H13.6404H13.6589H13.6774H13.696H13.7145H13.733H13.7516H13.7701H13.7886H13.8071H13.8257H13.8442H13.8627H13.8813H13.8998H13.9183H13.9368H13.9554H13.9739H13.9924H14.0109H14.0295H14.048H14.0665H14.0851H14.1036H14.1221H14.1406H14.1592H14.1777H14.1962H14.2148H14.2333H14.2518H14.2703H14.2889H14.3074H14.3259H14.3444H14.363H14.3815H14.4H14.4186H14.4371H14.4556H14.4741H14.4927H14.5112H14.5297H14.5483H14.5668H14.5853H14.6038H14.6224H14.6409H14.6594H14.678H14.6965H14.715H14.7335H14.7521H14.7706H14.7891H14.8077H14.8262H14.8447H14.8632H14.8818H14.9003H14.9188H14.9374H14.9559H14.9744H14.9929H15.0115H15.03H15.0485H15.0671H15.0856H15.1041H15.1226H15.1412H15.1597H15.1782H15.1968H15.2153H15.2338H15.2523H15.2709H15.2894H15.3079H15.3265H15.345H15.3635H15.3821H15.4006H15.4191H15.4376H15.4562H15.4747H15.4932H15.5118H15.5303H15.5488H15.5674H15.5859H15.6044H15.6229H15.6415H15.66H15.6785H15.6971H15.7156H15.7341H15.7527H15.7712H15.7897H15.8083H15.8268H15.8453H15.8638H15.8824H15.9009H15.9194H15.938H15.9565H15.975H15.9936H16.0121H16.0306H16.0492H16.0677H16.0862H16.1048H16.1233H16.1418H16.1604H16.1789H16.1974H16.216H16.2345H16.253H16.2715H16.2901H16.3086H16.3271H16.3457H16.3642H16.3827H16.4013H16.4198H16.4383H16.4569H16.4754H16.4939H16.5125H16.531H16.5495H16.5681H16.5866H16.6052H16.6237H16.6422H16.6608H16.6793H16.6978H16.7164H16.7349H16.7534H16.772H16.7905H16.809H16.8276H16.8461H16.8646H16.8832H16.9017H16.9202H16.9388H16.9573H16.9758H16.9944H17.0129H17.0315H17.05H17.0685H17.0871H17.1056H17.1241H17.1427H17.1612H17.1797H17.1983H17.2168H17.2354H17.2539H17.2724H17.291H17.3095H17.328H17.3466H17.3651H17.3837H17.4022H17.4207H17.4393H17.4578H17.4764H17.4949H17.5134H17.532H17.5505H17.569H17.5876H17.6061H17.6247H17.6432H17.6617H17.6803H17.6988H17.7174H17.7359H17.7544H17.773H17.7915H17.8101H17.8286H17.8471H17.8657H17.8842H17.9028H17.9213H17.9398H17.9584H17.9769H17.9955H18.014H18.0326H18.0511H18.0696H18.0882H18.1067H18.1253H18.1438H18.1624H18.1809H18.1994H18.218H18.2365H18.2551H18.2736H18.2922H18.3107H18.3292H18.3478H18.3663H18.3849H18.4034H18.422H18.4405H18.4591H18.4776H18.4962H18.5147H18.5332C18.6525 14.6677 18.78 14.6738 18.9047 14.7012M8.19629 12.4881C7.91576 12.5125 7.81209 12.6406 7.72061 12.8723C7.45227 13.5248 7.62303 14.2079 8.19019 14.5982C8.44633 14.775 8.73906 14.8177 9.04398 14.8177H18.5332C18.6491 14.8177 18.765 14.8238 18.8748 14.8482M18.9047 14.7012C18.9038 14.701 18.9029 14.7009 18.9019 14.7007L18.8748 14.8482M18.9047 14.7012C19.2091 14.7586 19.4072 15.0107 19.415 15.3139M18.9047 14.7012C18.9056 14.7014 18.9064 14.7016 18.9073 14.7018L18.8748 14.8482M18.8748 14.8482L13.4248 3.25746M22.2533 3.88313C22.107 3.63309 21.8874 3.52941 21.6008 3.52331C20.2377 3.50502 18.8747 3.4852 17.5117 3.46538C16.1487 3.44556 14.7857 3.42574 13.4227 3.40744M22.2533 3.88313V4.13926V3.88313ZM13.4227 3.40744L13.4248 3.25746M13.4227 3.40744L13.4247 3.25746C13.4247 3.25746 13.4247 3.25746 13.4248 3.25746M13.4227 3.40744C12.5281 3.39519 11.6341 3.38225 10.7404 3.36931C8.96569 3.34362 7.19188 3.31795 5.41538 3.29767L13.4248 3.25746M13.4248 3.25746C12.5304 3.2452 11.6365 3.23227 10.7428 3.21933C8.96799 3.19364 7.19379 3.16796 5.41709 3.14768V3.14767H5.41538C5.33747 3.14767 5.31322 3.13403 5.30443 3.12722C5.2949 3.11985 5.27595 3.09914 5.25468 3.02472L5.2545 3.02411C5.15302 2.67456 5.03613 2.3355 4.91933 1.99671C4.90834 1.96483 4.89735 1.93296 4.88637 1.90107L4.88609 1.90026C4.58669 1.04665 3.99525 0.397395 3.06578 0.258713C2.4795 0.16888 1.87504 0.179382 1.28764 0.189587C1.10231 0.192807 0.918666 0.195998 0.73783 0.195998C0.454203 0.195998 0.287093 0.417974 0.216967 0.635365L0.216949 0.635359L0.216252 0.637644C0.148154 0.860854 0.187415 1.07826 0.324496 1.24027C0.459287 1.39957 0.672348 1.48652 0.918642 1.49004L0.91891 1.49004C1.24513 1.49412 1.57511 1.49276 1.90453 1.4914C2.06866 1.49073 2.23265 1.49005 2.39598 1.49005C2.74032 1.49301 2.99958 1.56882 3.19742 1.71229C3.39531 1.85579 3.54788 2.07869 3.65696 2.40588C3.92675 3.21852 4.19614 4.03166 4.46557 4.84495C5.2069 7.08266 5.94859 9.32143 6.70006 11.5535C6.79758 11.8518 6.78243 12.0822 6.65606 12.3734C5.88742 14.131 7.09999 15.9862 9.01349 15.9862H9.03221H9.05094H9.06966H9.08839H9.10711H9.12584H9.14456H9.16329H9.18201H9.20074H9.21947H9.23819H9.25692H9.27564H9.29437H9.3131H9.33182H9.35055H9.36928H9.388H9.40673H9.42546H9.44418H9.46291H9.48164H9.50037H9.51909H9.53782H9.55655H9.57528H9.59401H9.61274H9.63146H9.65019H9.66892H9.68765H9.70638H9.72511H9.74384H9.76257H9.7813H9.80003H9.81876H9.83749H9.85622H9.87495H9.89368H9.91241H9.93114H9.94987H9.9686H9.98733H10.0061H10.0248H10.0435H10.0623H10.081H10.0997H10.1184H10.1372H10.1559H10.1746H10.1934H10.2121H10.2308H10.2496H10.2683H10.287H10.3058H10.3245H10.3432H10.362H10.3807H10.3994H10.4182H10.4369H10.4556H10.4744H10.4931H10.5118H10.5306H10.5493H10.568H10.5868H10.6055H10.6242H10.643H10.6617H10.6804H10.6992H10.7179H10.7366H10.7554H10.7741H10.7928H10.8116H10.8303H10.8491H10.8678H10.8865H10.9053H10.924H10.9427H10.9615H10.9802H10.9989H11.0177H11.0364H11.0551H11.0739H11.0926H11.1114H11.1301H11.1488H11.1676H11.1863H11.205H11.2238H11.2425H11.2613H11.28H11.2987H11.3175H11.3362H11.3549H11.3737H11.3924H11.4112H11.4299H11.4486H11.4674H11.4861H11.5048H11.5236H11.5423H11.5611H11.5798H11.5985H11.6173H11.636H11.6547H11.6735H11.6922H11.711H11.7297H11.7484H11.7672H11.7859H11.8047H11.8234H11.8421H11.8609H11.8796H11.8984H11.9171H11.9358H11.9546H11.9733H11.9921H12.0108H12.0295H12.0483H12.067H12.0857H12.1045H12.1232H12.142H12.1607H12.1794H12.1982H12.2169H12.2357H12.2544H12.2732H12.2919H12.3106H12.3294H12.3481H12.3669H12.3856H12.4043H12.4231H12.4418H12.4606H12.4793H12.498H12.5168H12.5355H12.5543H12.573H12.5917H12.6105H12.6292H12.648H12.6667H12.6854H12.7042H12.7229H12.7417H12.7604H12.7792H12.7979H12.8166H12.8354H12.8541H12.8729H12.8916H12.9103H12.9291H12.9478H12.9666H12.9853H13.0041H13.0228H13.0415H13.0603H13.079H13.0978H13.1165H13.1352H13.154H13.1727H13.1915H13.2102H13.229H13.2477H13.2664H13.2852H13.3039H13.3227H13.3414H13.3601H13.3789H13.3976H13.4164H13.4351H13.4539H13.4726H13.4913H13.5101H13.5288H13.5476H13.5663H13.5851H13.6038H13.6225H13.6413H13.66H13.6788H13.6975H13.7162H13.735H13.7537H13.7725H13.7912H13.81H13.8287H13.8474H13.8662H13.8849H13.9037H13.9224H13.9412H13.9599H13.9786H13.9974H14.0161H14.0349H14.0536H14.0723H14.0911H14.1098H14.1286H14.1473H14.1661H14.1848H14.2035H14.2223H14.241H14.2598H14.2785H14.2973H14.316H14.3347H14.3535H14.3722H14.391H14.4097H14.4284H14.4472H14.4659H14.4847H14.5034H14.5222H14.5409H14.5596H14.5784H14.5971H14.6159H14.6346H14.6533H14.6721H14.6908H14.7096H14.7283H14.7471H14.7658H14.7845H14.8033H14.822H14.8408H14.8595H14.8782H14.897H14.9157H14.9345H14.9532H14.9719H14.9907H15.0094H15.0282H15.0469H15.0657H15.0844H15.1031H15.1219H15.1406H15.1594H15.1781H15.1968H15.2156H15.2343H15.2531H15.2718H15.2905H15.3093H15.328H15.3468H15.3655H15.3842H15.403H15.4217H15.4405H15.4592H15.4779H15.4967H15.5154H15.5342H15.5529H15.5716H15.5904H15.6091H15.6279H15.6466H15.6653H15.6841H15.7028H15.7216H15.7403H15.759H15.7778H15.7965H15.8153H15.834H15.8527H15.8715H15.8902H15.909H15.9277H15.9464H15.9652H15.9839H16.0026H16.0214H16.0401H16.0589H16.0776H16.0963H16.1151H16.1338H16.1525H16.1713H16.19H16.2088H16.2275H16.2462H16.265H16.2837H16.3025H16.3212H16.3399H16.3587H16.3774H16.3961H16.4149H16.4336H16.4523H16.4711H16.4898H16.5086H16.5273H16.546H16.5648H16.5835H16.6022H16.621H16.6397H16.6584H16.6772H16.6959H16.7147H16.7334H16.7521H16.7709H16.7896H16.8083H16.8271H16.8458H16.8645H16.8833H16.902H16.9207H16.9395H16.9582H16.9769H16.9957H17.0144H17.0331H17.0519H17.0706H17.0893H17.1081H17.1268H17.1455H17.1643H17.183H17.2017H17.2205H17.2392H17.2579H17.2767H17.2954H17.3141H17.3329H17.3516H17.3703H17.3891H17.4078H17.4265H17.4453H17.464H17.4827H17.5015H17.5202H17.5389H17.5577H17.5764H17.5951H17.6139H17.6326H17.6513H17.67H17.6888H17.7075H17.7262H17.745H17.7637H17.7824H17.8012H17.8199H17.8386H17.8573H17.8761H17.8948H17.9135H17.9323H17.951H17.9697H17.9885H18.0072H18.0259H18.0446H18.0634H18.0821H18.1008H18.1195H18.1383H18.157H18.1757H18.1945H18.2132H18.2319H18.2506H18.2694H18.2881H18.3068H18.3255H18.3443H18.363H18.3817H18.4004H18.4192H18.4379H18.4566H18.4754H18.4941H18.5128H18.5315H18.5503H18.569H18.5877H18.6064H18.6136C18.7125 15.9862 18.826 15.9862 18.9416 15.9573L18.9416 15.9573L18.9444 15.9566C19.2409 15.8764 19.4228 15.6105 19.415 15.3139M19.415 15.3139C19.415 15.3139 19.415 15.3139 19.415 15.314L19.2651 15.3178L19.415 15.3139ZM18.9053 15.8118C18.8077 15.8362 18.7101 15.8362 18.6064 15.8362H9.01349C7.20833 15.8362 6.06792 14.092 6.79364 12.4332C6.9339 12.11 6.9522 11.8417 6.84242 11.5062C6.09101 9.27435 5.34943 7.0359 4.60807 4.7981C4.33859 3.9847 4.06915 3.17138 3.79928 2.3585C3.56753 1.66327 3.12844 1.34615 2.39662 1.34005L18.9053 15.8118ZM18.3773 10.2532L18.3773 10.2532C15.822 10.5216 13.2669 10.7899 10.7119 11.0521C10.4243 11.0814 10.1371 11.1102 9.85001 11.1389C9.24362 11.1996 8.63748 11.2603 8.029 11.3265C8.0027 11.3288 7.98916 11.3275 7.98334 11.3264C7.98268 11.3254 7.98189 11.3242 7.98095 11.3227C7.97585 11.3142 7.96894 11.2998 7.96021 11.275C7.58527 10.135 7.20882 8.99493 6.8324 7.855L6.83228 7.85463C6.45957 6.72596 6.0869 5.59738 5.71571 4.46881C10.7961 4.54036 15.8425 4.61771 20.9171 4.70087C20.8864 4.82744 20.8556 4.9529 20.8249 5.07762C20.7674 5.31202 20.7105 5.54377 20.656 5.77519C20.5249 6.3058 20.3968 6.83483 20.2689 7.36346L20.2688 7.36362C20.1408 7.89272 20.0128 8.42142 19.8818 8.95158L19.8817 8.95193C19.7839 9.3515 19.6072 9.65281 19.3614 9.86504C19.1155 10.0774 18.7895 10.21 18.3773 10.2532Z" fill="black" stroke="black" stroke-width="0.3"></path><path d="M7.32395 16.936C5.99022 16.9297 4.88685 18.0341 4.88665 19.3725C4.88034 20.7182 5.97232 21.8096 7.31712 21.8098M7.32395 16.936C8.65693 16.9362 9.76702 18.0525 9.76052 19.3797C9.75402 20.7179 8.65694 21.8161 7.31712 21.8098M7.32395 16.936C7.32383 16.936 7.32371 16.936 7.32358 16.936V17.086L7.32432 16.936C7.32419 16.936 7.32407 16.936 7.32395 16.936ZM7.31712 21.8098C7.317 21.8098 7.31688 21.8098 7.31676 21.8098L7.31749 21.6598V21.8098C7.31736 21.8098 7.31724 21.8098 7.31712 21.8098ZM8.44207 19.3729C8.44207 19.9794 7.94158 20.486 7.32838 20.4914C6.70951 20.4968 6.21047 20.008 6.20509 19.3899C6.19971 18.7654 6.70589 18.2548 7.32292 18.2544C7.93162 18.2602 8.44207 18.7624 8.44207 19.3729Z" fill="black" stroke="black" stroke-width="0.3"></path><path d="M16.9905 16.936C15.6564 16.9295 14.5533 18.0342 14.5468 19.3722V19.3729C14.5468 20.7171 15.6313 21.8159 16.9776 21.8159C18.3286 21.8159 19.4142 20.737 19.4206 19.3858C19.4271 18.0466 18.3357 16.9425 16.9905 16.936ZM16.9905 16.936L16.9898 17.086M16.9905 16.936L16.9898 17.086M16.9898 17.086C15.7396 17.0799 14.7029 18.1166 14.6968 19.3729C14.6968 20.6353 15.7152 21.6659 16.9776 21.6659C18.2461 21.6659 19.2646 20.6536 19.2706 19.3851C19.2767 18.1288 18.2522 17.0921 16.9898 17.086ZM18.1022 19.3838L18.1022 19.3838C18.0968 20.0013 17.5804 20.5022 16.9619 20.4914C16.3478 20.4806 15.843 19.9621 15.853 19.3646C15.8753 18.7433 16.383 18.2551 16.9885 18.2605L16.9885 18.2605C17.6015 18.2659 18.1076 18.7842 18.1022 19.3838Z" fill="black" stroke="black" stroke-width="0.3"></path></svg>