<svg xmlns="http://www.w3.org/2000/svg" width="32" height="32" viewBox="0 0 32 32" fill="none"><path d="M16.7787 17.4315V21.0056H14.4092V14.1737H16.7787V14.6098C17.2464 14.1909 17.8208 13.98 18.449 13.98C20.1337 13.98 21.0007 15.1346 21.0007 16.7446V21.0044L18.5606 21.0048V17.4315C18.5606 16.8488 18.4322 16.2498 17.7334 16.2498C17.0047 16.2498 16.7787 16.7799 16.7787 17.4315ZM12.404 13.8274C11.6257 13.8274 11 13.189 11 12.4135C11 11.638 11.6257 11 12.404 11C13.182 11 13.8081 11.638 13.8081 12.4135C13.8081 13.1885 13.182 13.8274 12.404 13.8274ZM11.1887 21.0056V14.1737H13.6378V21.0056H11.1887Z" fill="black"></path><path fill-rule="evenodd" clip-rule="evenodd" d="M15.4998 5.7998C21.409 5.7998 26.1998 10.5906 26.1998 16.4998C26.1998 22.409 21.409 27.1998 15.4998 27.1998C9.59057 27.1998 4.7998 22.409 4.7998 16.4998C4.7998 10.5906 9.59057 5.7998 15.4998 5.7998ZM15.4998 6.68478C10.079 6.68478 5.68437 11.079 5.68437 16.4998C5.68437 21.9206 10.079 26.3148 15.4998 26.3148C20.9206 26.3148 25.3152 21.9206 25.3152 16.4998C25.3152 11.079 20.9206 6.68478 15.4998 6.68478ZM25.9998 16.4998C25.9998 10.701 21.2986 5.9998 15.4998 5.9998C9.70103 5.9998 4.9998 10.701 4.9998 16.4998C4.9998 22.2986 9.70103 26.9998 15.4998 26.9998C21.2986 26.9998 25.9998 22.2986 25.9998 16.4998ZM5.48437 16.4998C5.48437 10.9685 9.96854 6.48478 15.4998 6.48478C21.0311 6.48478 25.5152 10.9685 25.5152 16.4998C25.5152 22.0311 21.0311 26.5148 15.4998 26.5148C9.96854 26.5148 5.48437 22.0311 5.48437 16.4998Z" fill="black"></path><path d="M15.5 6C21.2988 6 26 10.7012 26 16.5C26 22.2988 21.2988 27 15.5 27C9.70122 27 5 22.2988 5 16.5C5 10.7012 9.70122 6 15.5 6ZM15.5 6.48498C9.96874 6.48498 5.48456 10.9687 5.48456 16.5C5.48456 22.0313 9.96874 26.515 15.5 26.515C21.0313 26.515 25.5154 22.0313 25.5154 16.5C25.5154 10.9687 21.0313 6.48498 15.5 6.48498Z" fill="black"></path></svg>