<svg xmlns="http://www.w3.org/2000/svg" width="32" height="32" viewBox="0 0 32 32" fill="none"><path d="M16.0002 26.6663C10.1054 26.6663 5.3335 21.8944 5.3335 15.9997C5.3335 10.1049 10.1054 5.33301 16.0002 5.33301C21.8949 5.33301 26.6668 10.1049 26.6668 15.9997C26.6668 21.8944 21.8949 26.6663 16.0002 26.6663Z" stroke="black" stroke-width="1.5" stroke-miterlimit="10"></path><path d="M13.3613 13.5859H11.1719V20.7158H13.3613V13.5859Z" fill="black"></path><path d="M12.2385 12.6879C12.9683 12.6879 13.5297 12.0704 13.5297 11.3967C13.5297 10.723 12.9683 10.1055 12.2385 10.1055C11.5087 10.1055 10.9473 10.723 10.9473 11.3967C10.9473 12.0704 11.5087 12.6879 12.2385 12.6879Z" fill="black"></path><path d="M16.8985 17.0114C16.8985 16.0009 17.3476 15.3834 18.2458 15.3834C19.0318 15.3834 19.4248 15.9448 19.4248 17.0114C19.4248 18.022 19.4248 20.7728 19.4248 20.7728H21.6143C21.6143 20.7728 21.6143 18.1904 21.6143 16.2255C21.6143 14.3167 20.5476 13.3623 19.0318 13.3623C17.516 13.3623 16.8985 14.5413 16.8985 14.5413V13.5869H14.7651V20.7167H16.8985C16.8985 20.7728 16.8985 18.0781 16.8985 17.0114Z" fill="black"></path></svg>