<svg xmlns="http://www.w3.org/2000/svg" width="24" height="24" viewBox="0 0 24 24" fill="none"><path d="M12.0002 22.6663C6.10543 22.6663 1.3335 17.8944 1.3335 11.9997C1.3335 6.10494 6.10543 1.33301 12.0002 1.33301C17.8949 1.33301 22.6668 6.10494 22.6668 11.9997C22.6668 17.8944 17.8949 22.6663 12.0002 22.6663Z" stroke="black" stroke-width="1.5" stroke-miterlimit="10"></path><path d="M9.36135 9.58594H7.17188V16.7158H9.36135V9.58594Z" fill="black"></path><path d="M8.23849 8.68792C8.96832 8.68792 9.52972 8.07038 9.52972 7.3967C9.52972 6.72301 8.96832 6.10547 8.23849 6.10547C7.50867 6.10547 6.94727 6.72301 6.94727 7.3967C6.94727 8.07038 7.50867 8.68792 8.23849 8.68792Z" fill="black"></path><path d="M12.8985 13.0114C12.8985 12.0009 13.3476 11.3834 14.2458 11.3834C15.0318 11.3834 15.4248 11.9448 15.4248 13.0114C15.4248 14.022 15.4248 16.7728 15.4248 16.7728H17.6143C17.6143 16.7728 17.6143 14.1904 17.6143 12.2255C17.6143 10.3167 16.5476 9.3623 15.0318 9.3623C13.516 9.3623 12.8985 10.5413 12.8985 10.5413V9.58687H10.7651V16.7167H12.8985C12.8985 16.7728 12.8985 14.0781 12.8985 13.0114Z" fill="black"></path></svg>