<svg xmlns="http://www.w3.org/2000/svg" width="159" height="82" viewBox="0 0 159 82" fill="none"><g clip-path="url(#clip0_23_367)"><path d="M79.339 56.7673C95.0219 56.7673 107.736 44.0595 107.736 28.3837C107.736 12.7078 95.0219 0 79.339 0C63.656 0 50.9424 12.7078 50.9424 28.3837C50.9424 44.0595 63.656 56.7673 79.339 56.7673Z" fill="#C9005C"></path><mask id="mask0_23_367" style="mask-type:luminance" maskUnits="userSpaceOnUse" x="61" y="10" width="37" height="37"><path d="M97.1199 10.1274H61.2925V46.6398H97.1199V10.1274Z" fill="white"></path></mask><g mask="url(#mask0_23_367)"><path d="M76.7155 31.4735C76.8908 31.569 76.6608 31.2252 76.6061 31.1291C76.0921 30.2228 75.536 29.3405 75.0811 28.4007C74.8393 27.9012 74.6457 27.388 74.5642 26.8364C74.3992 25.7181 74.5642 24.6671 75.1886 23.7093C75.8965 22.622 76.8953 21.9479 78.134 21.6278C78.875 21.4366 79.6311 21.4086 80.3796 21.5588C81.3589 21.7539 82.1603 22.2718 82.8025 23.0373C83.0804 23.3687 83.3175 23.7281 83.5036 24.1219C83.9827 25.1365 84.0632 26.1837 83.7677 27.261C83.6409 27.7231 83.4473 28.1561 83.2081 28.5725C82.8079 29.2696 82.4337 29.9809 82.0473 30.6866C81.976 30.8173 81.9166 30.9572 81.8286 31.0759C81.5321 31.4791 81.131 31.6836 80.6326 31.5976C79.87 31.466 79.4569 30.6913 79.7468 29.9604C79.8294 29.7532 79.9395 29.5572 80.0451 29.3603C80.3611 28.7694 80.6836 28.1822 80.9995 27.5915C81.2338 27.1518 81.3673 26.6767 81.4016 26.182C81.4265 25.8217 81.3552 25.4651 81.1728 25.1478C80.9697 24.7958 80.7021 24.4943 80.3704 24.262C80.073 24.0538 79.7404 23.9408 79.3736 23.9259C78.9381 23.9092 78.5257 23.966 78.1237 24.1603C77.1639 24.624 76.885 25.678 77.0695 26.4527C77.1343 26.7252 77.2399 26.9968 77.376 27.2405C78.1903 28.6956 79.0177 30.1434 79.8433 31.5929C79.9081 31.7069 79.9905 31.8115 80.0656 31.9215C81.0411 31.7199 81.9992 31.5566 82.9053 31.1664C84.1226 30.6418 85.1723 29.8867 86.1016 28.9467C86.2164 28.8301 86.3387 28.7199 86.4452 28.5967C86.7297 28.2682 87.1114 28.1532 87.5163 28.1263C88.3444 28.0722 88.954 28.8954 88.6928 29.7037C88.6104 29.9604 88.4881 30.2012 88.3019 30.4C87.5578 31.1925 86.7797 31.9448 85.8643 32.5404C84.723 33.2833 83.4982 33.8331 82.1816 34.1738C82.0093 34.2186 81.837 34.2607 81.6666 34.3111C81.6138 34.3269 81.5683 34.3661 81.5072 34.4025C81.5248 34.4716 81.5293 34.5314 81.5535 34.5818C81.8795 35.2436 85.554 41.6402 85.7727 41.923C85.8347 41.8689 85.9152 41.8279 85.9542 41.7615C86.3072 41.1576 86.6537 40.5499 87.0011 39.9424C87.4003 39.2451 87.7989 38.546 88.1982 37.8486C88.8049 36.7892 89.4117 35.7307 90.0204 34.6722C90.5921 33.6783 91.1665 32.6869 91.7372 31.6928C92.2561 30.7893 92.7721 29.8839 93.289 28.9794C93.5178 28.579 93.7272 28.1645 93.984 27.7827C94.4398 27.1042 95.0576 26.6814 95.9036 26.6748C96.1852 26.6729 96.466 26.6692 96.7474 26.6729C96.8634 26.6748 96.9782 26.6962 97.0969 26.7094C97.1699 26.939 97.0598 27.106 96.9699 27.2702C96.7336 27.7005 96.4881 28.1263 96.2444 28.5538C95.4709 29.9119 94.6973 31.27 93.9218 32.6271C93.3084 33.6997 92.6915 34.7702 92.0801 35.8438C91.5491 36.7753 91.0248 37.7096 90.4948 38.6421C90.002 39.5093 89.5035 40.3735 89.0096 41.2398C88.4714 42.1845 87.9378 43.1308 87.3987 44.0746C86.9705 44.825 86.5314 45.5681 86.1107 46.3223C85.8328 46.8207 85.553 46.6424 85.3603 46.311C84.9268 45.5643 84.4951 44.8165 84.0642 44.068C83.5815 43.2298 83.0989 42.3908 82.618 41.5516C82.0992 40.6481 81.584 39.7425 81.0643 38.839C80.7225 38.2454 80.3759 37.6555 80.0322 37.0628C79.9423 36.9079 79.859 36.7501 79.77 36.596C79.7107 36.4934 79.6552 36.3841 79.4893 36.3487C79.4318 36.4048 79.3466 36.4644 79.2938 36.5456C78.4628 37.8338 77.6364 39.1256 76.8091 40.4166C76.4634 40.955 76.1188 41.4946 75.7714 42.0323C74.883 43.4081 73.9945 44.7831 73.1033 46.1569C73.0143 46.2933 72.916 46.4268 72.8031 46.5425C72.666 46.6817 72.5066 46.6685 72.3787 46.5154C72.2841 46.4016 72.2008 46.2766 72.1275 46.1477C71.4809 45.008 70.8407 43.8655 70.1931 42.7267C69.7002 41.8597 69.1981 40.9981 68.7033 40.1318C68.1939 39.2404 67.6871 38.3463 67.1804 37.4529C66.4605 36.1844 65.7424 34.9141 65.0197 33.6474C64.4 32.5609 63.7728 31.4801 63.1529 30.3936C62.5701 29.3723 61.9929 28.3475 61.4131 27.3244C61.3833 27.2731 61.3537 27.2208 61.3324 27.1659C61.2434 26.94 61.3084 26.7822 61.5317 26.7075C61.6427 26.6701 61.7615 26.6357 61.8781 26.6319C62.4285 26.6178 62.9722 26.6515 63.4884 26.8726C64.0813 27.1275 64.5381 27.5382 64.8559 28.1011C65.6321 29.475 66.403 30.8528 67.1794 32.2267C67.8306 33.3804 68.4876 34.5314 69.1397 35.685C69.6892 36.6577 70.234 37.6321 70.7823 38.6047C71.3745 39.6558 71.9684 40.7049 72.5631 41.7551C72.6122 41.8418 72.6751 41.9212 72.728 41.9986C72.904 41.9605 72.9493 41.8222 73.0207 41.7158C73.8758 40.4436 74.7273 39.1685 75.5806 37.8945C76.2273 36.9303 76.873 35.9651 77.5234 35.0036C77.7809 34.6228 77.9023 34.464 77.2648 34.3736C75.901 34.1804 74.6245 33.7089 73.4192 33.0454C72.5723 32.5795 71.7914 32.0195 71.0762 31.3605C70.3293 30.6727 69.6659 29.9185 69.1148 29.0652C68.2735 27.7641 67.6935 26.3566 67.3721 24.8332C67.1358 23.713 67.071 22.5818 67.1534 21.4514C67.2508 20.1223 67.5649 18.8361 68.0874 17.6002C68.5329 16.5473 69.138 15.5998 69.8143 14.6898C69.8495 14.6422 69.8847 14.5936 69.9236 14.5488C71.6653 12.5607 73.773 11.1624 76.3477 10.5286C77.023 10.3625 77.7068 10.2383 78.4044 10.187C78.8482 10.1543 79.2902 10.1104 79.7339 10.1319C81.8249 10.2346 83.7918 10.7629 85.5929 11.8671C86.3173 12.3114 86.9743 12.836 87.6071 13.4035C88.3528 14.0728 88.0249 15.0006 87.5606 15.4626C87.1558 15.8649 86.4396 15.8808 85.9607 15.5224C85.7708 15.3805 85.5826 15.2321 85.4122 15.0687C84.6702 14.3584 83.7872 13.8786 82.8616 13.4689C82.0556 13.1114 81.2061 12.921 80.3324 12.8145C78.1812 12.5541 76.1836 13.0012 74.3262 14.1129C73.8157 14.4181 73.3626 14.7999 72.9068 15.1826C72.2981 15.6951 71.7996 16.3036 71.3513 16.9486C70.5842 18.0529 70.1126 19.2907 69.9115 20.6226C69.6244 22.5257 69.8328 24.3692 70.6276 26.1333C71.5616 28.2065 73.0282 29.7709 75.0386 30.807C75.4592 31.0236 75.9048 31.1916 76.3421 31.3736C76.4599 31.4221 76.5904 31.4398 76.7155 31.4716V31.4735Z" fill="white"></path></g><path d="M9.56914 75.5885C9.69947 75.5885 9.81496 75.6391 9.91566 75.7401L10.8575 76.7662C10.3362 77.4147 9.69353 77.9114 8.92943 78.2563C8.17125 78.6014 7.25905 78.7739 6.19285 78.7739C5.23919 78.7739 4.38031 78.6103 3.61619 78.283C2.85801 77.956 2.20941 77.5008 1.67038 76.918C1.13136 76.335 0.716723 75.6391 0.42648 74.83C0.14216 74.0211 0 73.1377 0 72.18C0 71.2103 0.154007 70.3241 0.46202 69.5211C0.770034 68.712 1.20244 68.0161 1.75923 67.4331C2.32194 66.8502 2.99128 66.3981 3.76725 66.0769C4.5432 65.7496 5.40209 65.5862 6.34389 65.5862C7.27978 65.5862 8.10906 65.7408 8.83169 66.0502C9.56026 66.3594 10.1793 66.7639 10.6887 67.2636L9.88901 68.3789C9.84163 68.4504 9.77944 68.5128 9.70243 68.5664C9.63134 68.6198 9.53065 68.6465 9.40033 68.6465C9.31148 68.6465 9.21968 68.6228 9.1249 68.5752C9.03013 68.5216 8.92647 68.4592 8.81392 68.3879C8.70138 68.3104 8.57107 68.2273 8.42299 68.138C8.27489 68.0488 8.10312 67.9685 7.90766 67.897C7.71219 67.8197 7.48414 67.7573 7.22351 67.7097C6.96881 67.6561 6.67264 67.6294 6.33502 67.6294C5.76044 67.6294 5.23327 67.7336 4.75348 67.9418C4.27961 68.144 3.87089 68.4413 3.52735 68.834C3.1838 69.2207 2.91725 69.6965 2.7277 70.2617C2.53816 70.8208 2.44337 71.4603 2.44337 72.18C2.44337 72.9056 2.54407 73.5511 2.74547 74.1163C2.95277 74.6812 3.23118 75.1572 3.58066 75.5439C3.93013 75.9304 4.3418 76.2279 4.81568 76.4361C5.28953 76.6383 5.79895 76.7395 6.34389 76.7395C6.66968 76.7395 6.96289 76.7216 7.22351 76.6859C7.49006 76.6502 7.73292 76.5937 7.95208 76.5164C8.17717 76.4391 8.38745 76.341 8.58291 76.2219C8.78431 76.097 8.98273 75.9455 9.17821 75.767C9.23745 75.7134 9.29965 75.6718 9.3648 75.6419C9.42995 75.6064 9.49807 75.5885 9.56914 75.5885Z" fill="white"></path><path d="M15.9912 69.3337C16.6665 69.3337 17.2795 69.4438 17.8304 69.6638C18.3872 69.8839 18.861 70.1962 19.2521 70.6006C19.6489 71.0051 19.954 71.4988 20.1671 72.0819C20.3804 72.6647 20.487 73.3162 20.487 74.0359C20.487 74.7615 20.3804 75.416 20.1671 75.9989C19.954 76.5819 19.6489 77.0786 19.2521 77.489C18.861 77.8994 18.3872 78.2148 17.8304 78.4348C17.2795 78.6548 16.6665 78.7649 15.9912 78.7649C15.31 78.7649 14.691 78.6548 14.1342 78.4348C13.5775 78.2148 13.1006 77.8994 12.7038 77.489C12.3128 77.0786 12.0078 76.5819 11.7886 75.9989C11.5754 75.416 11.4688 74.7615 11.4688 74.0359C11.4688 73.3162 11.5754 72.6647 11.7886 72.0819C12.0078 71.4988 12.3128 71.0051 12.7038 70.6006C13.1006 70.1962 13.5775 69.8839 14.1342 69.6638C14.691 69.4438 15.31 69.3337 15.9912 69.3337ZM15.9912 77.0696C16.7494 77.0696 17.3092 76.8138 17.6705 76.3022C18.0377 75.7907 18.2213 75.0412 18.2213 74.0538C18.2213 73.0662 18.0377 72.3138 17.6705 71.7964C17.3092 71.2788 16.7494 71.02 15.9912 71.02C15.2212 71.02 14.6496 71.2818 14.2764 71.8052C13.9092 72.3228 13.7255 73.0723 13.7255 74.0538C13.7255 75.0352 13.9092 75.7848 14.2764 76.3022C14.6496 76.8138 15.2212 77.0696 15.9912 77.0696Z" fill="white"></path><path d="M30.0153 69.4766V78.6312H28.6739C28.3836 78.6312 28.1999 78.4973 28.1229 78.2297L27.9719 77.4981C27.5987 77.8787 27.187 78.1879 26.7368 78.426C26.2866 78.6579 25.7566 78.774 25.1465 78.774C24.6489 78.774 24.2076 78.6907 23.8226 78.524C23.4435 78.3516 23.1237 78.1106 22.863 77.8014C22.6023 77.4921 22.4039 77.1263 22.2676 76.7038C22.1374 76.2756 22.0723 75.8056 22.0723 75.2941V69.4766H24.2668V75.2941C24.2668 75.8532 24.3942 76.2875 24.6489 76.5968C24.9095 76.9002 25.2974 77.0518 25.8128 77.0518C26.1918 77.0518 26.5473 76.9687 26.879 76.802C27.2106 76.6296 27.5247 76.3945 27.8208 76.0971V69.4766H30.0153Z" fill="white"></path><path d="M34.2616 71.0646C34.5461 70.5175 34.8835 70.0891 35.2746 69.7799C35.6654 69.4645 36.1275 69.3069 36.6606 69.3069C37.0813 69.3069 37.4187 69.399 37.6734 69.5835L37.5313 71.2343C37.5017 71.3413 37.4573 71.4186 37.3981 71.4662C37.3448 71.5079 37.2708 71.5286 37.176 71.5286C37.0871 71.5286 36.9539 71.5137 36.7762 71.484C36.6043 71.4543 36.4355 71.4394 36.2698 71.4394C36.0269 71.4394 35.8106 71.4752 35.6211 71.5465C35.4315 71.6179 35.2598 71.7219 35.1058 71.8589C34.9577 71.9898 34.8244 72.1504 34.706 72.3407C34.5934 72.531 34.4867 72.7481 34.3861 72.992V78.6312H32.1914V69.4765H33.4799C33.7048 69.4765 33.8619 69.5181 33.9507 69.6014C34.0395 69.6787 34.0988 69.8215 34.1284 70.0296L34.2616 71.0646Z" fill="white"></path><path d="M43.5145 74.723C42.8808 74.7527 42.3476 74.8092 41.9154 74.8925C41.4829 74.9698 41.1363 75.071 40.8758 75.1958C40.6151 75.3209 40.4285 75.4665 40.316 75.6331C40.2034 75.7997 40.1471 75.981 40.1471 76.1774C40.1471 76.5641 40.2596 76.8407 40.4847 77.0072C40.7158 77.1738 41.0149 77.2571 41.3822 77.2571C41.8324 77.2571 42.2203 77.1768 42.5461 77.0162C42.8778 76.8496 43.2007 76.5998 43.5145 76.2665V74.723ZM38.4857 70.7524C39.5341 69.7887 40.7958 69.3069 42.2706 69.3069C42.8038 69.3069 43.2806 69.3962 43.7013 69.5747C44.1217 69.7472 44.4772 69.9909 44.7674 70.3063C45.0575 70.6155 45.2768 70.9873 45.4248 71.4216C45.5789 71.8558 45.6559 72.3317 45.6559 72.8492V78.6312H44.6607C44.4534 78.6312 44.2934 78.6015 44.1809 78.5419C44.0683 78.4764 43.9796 78.3485 43.9144 78.1582L43.7189 77.498C43.4879 77.7062 43.2628 77.8906 43.0437 78.0512C42.8244 78.2058 42.5965 78.3367 42.3596 78.4437C42.1227 78.5509 41.868 78.6312 41.5955 78.6846C41.3288 78.7442 41.0327 78.7739 40.7068 78.7739C40.322 78.7739 39.9665 78.7233 39.6407 78.6222C39.315 78.5151 39.0335 78.3575 38.7966 78.1493C38.5597 77.9411 38.3762 77.6824 38.2458 77.373C38.1155 77.0638 38.0503 76.7038 38.0503 76.2934C38.0503 76.0613 38.0889 75.8325 38.1658 75.6064C38.2428 75.3743 38.3672 75.1543 38.5389 74.9461C38.7166 74.7379 38.9447 74.5415 39.223 74.3572C39.5015 74.1727 39.8422 74.0121 40.2448 73.8754C40.6537 73.7385 41.1275 73.6284 41.6665 73.5451C42.2055 73.456 42.8216 73.4024 43.5145 73.3845V72.8492C43.5145 72.2365 43.3842 71.7844 43.1237 71.493C42.863 71.1955 42.4869 71.0469 41.9953 71.0469C41.6399 71.0469 41.3436 71.0885 41.1067 71.1718C40.8758 71.2551 40.6715 71.3503 40.4937 71.4573C40.316 71.5585 40.1531 71.6507 40.0049 71.734C39.8628 71.8171 39.7028 71.8589 39.5251 71.8589C39.3712 71.8589 39.2408 71.8201 39.1343 71.7428C39.0277 71.6595 38.9417 71.5643 38.8766 71.4573L38.4857 70.7524Z" fill="white"></path><path d="M51.0547 73.8308C51.3271 73.8308 51.564 73.7951 51.7656 73.7236C51.9669 73.6463 52.1328 73.5423 52.263 73.4114C52.3993 73.2805 52.5001 73.1229 52.5651 72.9384C52.6362 72.7541 52.6718 72.5519 52.6718 72.3317C52.6718 71.8797 52.5355 71.5228 52.263 71.261C51.9965 70.9933 51.5936 70.8594 51.0547 70.8594C50.5157 70.8594 50.1098 70.9933 49.8375 71.261C49.5708 71.5228 49.4377 71.8797 49.4377 72.3317C49.4377 72.5459 49.4703 72.7451 49.5353 72.9296C49.6064 73.1139 49.7072 73.2745 49.8375 73.4114C49.9737 73.5423 50.1424 73.6463 50.3439 73.7236C50.5512 73.7951 50.7882 73.8308 51.0547 73.8308ZM53.5337 79.0416C53.5337 78.8631 53.4803 78.7173 53.3737 78.6043C53.267 78.4913 53.1218 78.4051 52.9383 78.3457C52.7546 78.2802 52.5385 78.2327 52.2898 78.2028C52.0469 78.173 51.7862 78.1524 51.5079 78.1403C51.2354 78.1225 50.9511 78.1076 50.6548 78.0957C50.3645 78.0839 50.0802 78.06 49.8019 78.0245C49.559 78.1612 49.3605 78.3218 49.2066 78.5063C49.0584 78.6906 48.9845 78.9048 48.9845 79.1486C48.9845 79.3092 49.023 79.458 49.1 79.5949C49.183 79.7376 49.3103 79.8595 49.4821 79.9607C49.6598 80.0617 49.8877 80.1392 50.1662 80.1926C50.4445 80.252 50.7852 80.2819 51.188 80.2819C51.5966 80.2819 51.9491 80.2492 52.2452 80.1837C52.5415 80.1241 52.7844 80.038 52.9739 79.9249C53.1694 79.8179 53.3116 79.687 53.4003 79.5322C53.4891 79.3837 53.5337 79.22 53.5337 79.0416ZM55.7194 69.7887V70.6097C55.7194 70.8713 55.5623 71.0319 55.2484 71.0915L54.4309 71.2431C54.5555 71.5585 54.6176 71.9034 54.6176 72.2783C54.6176 72.7302 54.5257 73.1408 54.3421 73.5096C54.1644 73.8724 53.9157 74.1818 53.5958 74.4375C53.276 74.6933 52.8969 74.8925 52.4585 75.0352C52.0261 75.1721 51.5582 75.2406 51.0547 75.2406C50.8769 75.2406 50.7052 75.2316 50.5393 75.2137C50.3735 75.1958 50.2106 75.1721 50.0507 75.1424C49.7664 75.3149 49.6242 75.5082 49.6242 75.7223C49.6242 75.9068 49.7072 76.0435 49.8729 76.1328C50.0448 76.2161 50.2698 76.2756 50.5482 76.3113C50.8265 76.3468 51.1436 76.3707 51.4989 76.3826C51.8543 76.3886 52.2186 76.4065 52.5918 76.4362C52.9649 76.4659 53.3292 76.5195 53.6846 76.5968C54.0401 76.6681 54.3569 76.7841 54.6354 76.9447C54.9137 77.1054 55.1358 77.3254 55.3018 77.6051C55.4735 77.8787 55.5595 78.2327 55.5595 78.6667C55.5595 79.0713 55.4587 79.464 55.2572 79.8446C55.0619 80.2253 54.7746 80.5644 54.3955 80.8617C54.0223 81.1593 53.5603 81.3972 53.0095 81.5757C52.4645 81.76 51.8425 81.8521 51.1436 81.8521C50.4565 81.8521 49.8581 81.7839 49.3487 81.6469C48.8393 81.516 48.4159 81.3378 48.0782 81.1117C47.7406 80.8916 47.4889 80.6357 47.3229 80.3443C47.1572 80.0528 47.0742 79.7495 47.0742 79.4343C47.0742 79.0058 47.2016 78.6491 47.4563 78.3634C47.717 78.072 48.0722 77.84 48.5225 77.6675C48.2796 77.5426 48.087 77.376 47.9449 77.1678C47.8027 76.9596 47.7318 76.6859 47.7318 76.3468C47.7318 76.2101 47.7554 76.0704 47.8027 75.9276C47.8561 75.7789 47.9301 75.6331 48.0248 75.4904C48.1256 75.3476 48.25 75.2137 48.3981 75.0888C48.5462 74.9579 48.721 74.8419 48.9223 74.7409C48.4603 74.4909 48.096 74.1579 47.8295 73.7415C47.5688 73.3251 47.4385 72.8374 47.4385 72.2783C47.4385 71.8261 47.5272 71.4186 47.705 71.0558C47.8887 70.687 48.1404 70.3748 48.4603 70.119C48.786 69.8572 49.1682 69.6578 49.6064 69.5211C50.0506 69.3842 50.5335 69.3159 51.0547 69.3159C51.4457 69.3159 51.8129 69.3575 52.1564 69.4408C52.5001 69.5181 52.814 69.6341 53.0982 69.7887H55.7194Z" fill="white"></path><path d="M62.8282 73.0008C62.8282 72.7153 62.7866 72.4477 62.7037 72.1979C62.6267 71.9421 62.5083 71.7191 62.3484 71.5286C62.1884 71.3382 61.9839 71.1896 61.7352 71.0824C61.4923 70.9694 61.208 70.913 60.8824 70.913C60.2484 70.913 59.748 71.0945 59.3808 71.4573C59.0193 71.8201 58.7884 72.3346 58.6876 73.0008H62.8282ZM58.6433 74.3303C58.6788 74.8003 58.7618 75.2078 58.892 75.5528C59.0223 75.8919 59.1942 76.1743 59.4074 76.4004C59.6207 76.6205 59.8724 76.7871 60.1626 76.9001C60.4587 77.0071 60.7846 77.0607 61.1399 77.0607C61.4953 77.0607 61.8004 77.019 62.0551 76.9359C62.3158 76.8525 62.5409 76.7604 62.7304 76.6592C62.9258 76.558 63.0947 76.4659 63.2368 76.3825C63.385 76.2992 63.5271 76.2577 63.6633 76.2577C63.847 76.2577 63.9831 76.3261 64.0721 76.4628L64.7029 77.2659C64.46 77.5514 64.1875 77.7923 63.8854 77.9887C63.5833 78.179 63.2664 78.3336 62.9348 78.4527C62.6089 78.5657 62.2742 78.646 61.9308 78.6936C61.5931 78.7412 61.2644 78.7649 60.9445 78.7649C60.3106 78.7649 59.7212 78.6609 59.1764 78.4527C58.6315 78.2385 58.1576 77.9262 57.7548 77.5157C57.352 77.0993 57.0351 76.5877 56.804 75.981C56.5731 75.3685 56.4575 74.6605 56.4575 73.8575C56.4575 73.2329 56.5583 72.647 56.7596 72.0997C56.9611 71.5464 57.2484 71.0676 57.6215 70.6632C58.0005 70.2527 58.4597 69.9284 58.9987 69.6905C59.5437 69.4526 60.1567 69.3337 60.8378 69.3337C61.4124 69.3337 61.9425 69.4259 62.4284 69.6102C62.914 69.7947 63.3316 70.0653 63.6811 70.4223C64.0305 70.7733 64.303 71.2075 64.4985 71.7249C64.6999 72.2365 64.8006 72.8225 64.8006 73.4826C64.8006 73.8159 64.765 74.0418 64.6939 74.1608C64.6229 74.2739 64.4866 74.3303 64.2852 74.3303H58.6433Z" fill="white"></path><path d="M70.4811 69.3337C71.1562 69.3337 71.7694 69.4438 72.3202 69.6638C72.877 69.8839 73.351 70.1962 73.7418 70.6006C74.1387 71.0051 74.4437 71.4988 74.657 72.0819C74.8702 72.6647 74.9769 73.3162 74.9769 74.0359C74.9769 74.7615 74.8702 75.416 74.657 75.9989C74.4437 76.5819 74.1387 77.0786 73.7418 77.489C73.351 77.8994 72.877 78.2148 72.3202 78.4348C71.7694 78.6548 71.1562 78.7649 70.4811 78.7649C69.7998 78.7649 69.1808 78.6548 68.624 78.4348C68.0673 78.2148 67.5904 77.8994 67.1936 77.489C66.8026 77.0786 66.4977 76.5819 66.2784 75.9989C66.0652 75.416 65.9585 74.7615 65.9585 74.0359C65.9585 73.3162 66.0652 72.6647 66.2784 72.0819C66.4977 71.4988 66.8026 71.0051 67.1936 70.6006C67.5904 70.1962 68.0673 69.8839 68.624 69.6638C69.1808 69.4438 69.7998 69.3337 70.4811 69.3337ZM70.4811 77.0696C71.2392 77.0696 71.799 76.8138 72.1602 76.3022C72.5275 75.7907 72.7112 75.0412 72.7112 74.0538C72.7112 73.0662 72.5275 72.3138 72.1602 71.7964C71.799 71.2788 71.2392 71.02 70.4811 71.02C69.711 71.02 69.1394 71.2818 68.7662 71.8052C68.3989 72.3228 68.2154 73.0723 68.2154 74.0538C68.2154 75.0352 68.3989 75.7848 68.7662 76.3022C69.1394 76.8138 69.711 77.0696 70.4811 77.0696Z" fill="white"></path><path d="M84.5058 69.4766V78.6312H83.1641C82.8738 78.6312 82.6903 78.4973 82.6131 78.2297L82.4622 77.4981C82.0889 77.8787 81.6773 78.1879 81.2271 78.426C80.777 78.6579 80.2468 78.774 79.6367 78.774C79.1391 78.774 78.6979 78.6907 78.3128 78.524C77.9338 78.3516 77.6139 78.1106 77.3532 77.8014C77.0927 77.4921 76.8942 77.1263 76.758 76.7038C76.6277 76.2756 76.5625 75.8056 76.5625 75.2941V69.4766H78.757V75.2941C78.757 75.8532 78.8844 76.2875 79.1391 76.5968C79.3998 76.9002 79.7878 77.0518 80.303 77.0518C80.6823 77.0518 81.0375 76.9687 81.3694 76.802C81.7011 76.6296 82.0149 76.3945 82.311 76.0971V69.4766H84.5058Z" fill="white"></path><path d="M92.2435 71.2609C92.1843 71.3561 92.1219 71.4245 92.0567 71.4661C91.9918 71.5018 91.9088 71.5197 91.808 71.5197C91.7015 71.5197 91.5859 71.49 91.4616 71.4306C91.343 71.3709 91.2039 71.3055 91.0439 71.2342C90.884 71.1569 90.7005 71.0885 90.4931 71.029C90.2916 70.9694 90.0517 70.9397 89.7734 70.9397C89.341 70.9397 89.0003 71.0319 88.7516 71.2164C88.5087 71.4007 88.3874 71.6416 88.3874 71.9391C88.3874 72.1355 88.4496 72.3019 88.5739 72.4388C88.7043 72.5695 88.873 72.6856 89.0803 72.7868C89.2936 72.8879 89.5335 72.9801 89.8 73.0634C90.0665 73.1407 90.336 73.2269 90.6085 73.322C90.887 73.4172 91.1595 73.5274 91.426 73.6523C91.6925 73.7711 91.9296 73.9259 92.1369 74.1163C92.35 74.3006 92.5188 74.5236 92.6433 74.7854C92.7736 75.0472 92.8386 75.3624 92.8386 75.7312C92.8386 76.1713 92.7587 76.5789 92.5989 76.9537C92.4448 77.3223 92.2139 77.6436 91.9058 77.9172C91.5977 78.185 91.2157 78.3961 90.7596 78.5508C90.3094 78.6994 89.7882 78.7739 89.1959 78.7739C88.882 78.7739 88.5739 78.7442 88.2718 78.6846C87.9757 78.6311 87.6885 78.5538 87.41 78.4527C87.1375 78.3515 86.8828 78.2326 86.6459 78.0957C86.4148 77.959 86.2104 77.8102 86.0327 77.6496L86.5393 76.8108C86.6045 76.7098 86.6815 76.6325 86.7702 76.5789C86.8592 76.5253 86.9717 76.4986 87.1079 76.4986C87.244 76.4986 87.3714 76.5373 87.4899 76.6146C87.6143 76.6919 87.7564 76.7752 87.9164 76.8644C88.0763 76.9537 88.263 77.0368 88.4761 77.1141C88.6953 77.1916 88.9708 77.2302 89.3024 77.2302C89.5631 77.2302 89.7852 77.2005 89.9688 77.141C90.1585 77.0756 90.3124 76.9923 90.431 76.8911C90.5553 76.7901 90.6441 76.6741 90.6975 76.5432C90.7566 76.4064 90.7862 76.2665 90.7862 76.1238C90.7862 75.9097 90.7211 75.7343 90.5907 75.5973C90.4664 75.4606 90.2976 75.3416 90.0843 75.2406C89.877 75.1394 89.6371 75.05 89.3646 74.9727C89.0981 74.8894 88.8226 74.8003 88.5383 74.7051C88.26 74.61 87.9845 74.4999 87.712 74.375C87.4456 74.2441 87.2056 74.0805 86.9923 73.8842C86.785 73.688 86.6163 73.4471 86.4859 73.1614C86.3616 72.8759 86.2994 72.531 86.2994 72.1264C86.2994 71.7516 86.3734 71.3948 86.5215 71.0557C86.6697 70.7166 86.8858 70.4223 87.1701 70.1724C87.4603 69.9166 87.8186 69.7144 88.2452 69.5656C88.6775 69.411 89.1751 69.3337 89.7378 69.3337C90.3658 69.3337 90.9374 69.4377 91.4526 69.6459C91.968 69.8541 92.3974 70.1278 92.7411 70.4669L92.2435 71.2609Z" fill="white"></path><path d="M116.131 65.729L112.142 78.6312H109.983L107.175 69.8155C107.098 69.6014 107.027 69.3396 106.962 69.0303C106.927 69.179 106.891 69.3188 106.856 69.4497C106.82 69.5806 106.782 69.7024 106.74 69.8155L103.906 78.6312H101.738L97.7573 65.729H99.7563C99.9637 65.729 100.136 65.7796 100.272 65.8806C100.414 65.9758 100.509 66.1067 100.556 66.2733L102.742 73.9914C102.789 74.1818 102.834 74.39 102.875 74.616C102.922 74.8361 102.97 75.068 103.017 75.3119C103.065 75.0621 103.115 74.8271 103.168 74.607C103.228 74.387 103.29 74.1818 103.355 73.9914L105.878 66.2733C105.926 66.1364 106.017 66.0115 106.154 65.8985C106.296 65.7854 106.467 65.729 106.669 65.729H107.371C107.578 65.729 107.747 65.7796 107.877 65.8806C108.008 65.9818 108.105 66.1127 108.171 66.2733L110.685 73.9914C110.809 74.3601 110.922 74.7855 111.023 75.2673C111.1 74.7973 111.185 74.3721 111.28 73.9914L113.466 66.2733C113.502 66.1245 113.59 65.9966 113.733 65.8896C113.881 65.7824 114.055 65.729 114.257 65.729H116.131Z" fill="#C9005C"></path><path d="M120.32 69.3337C120.996 69.3337 121.609 69.4438 122.16 69.6638C122.716 69.8839 123.19 70.1962 123.581 70.6006C123.978 71.0051 124.283 71.4988 124.496 72.0819C124.71 72.6647 124.816 73.3162 124.816 74.0359C124.816 74.7615 124.71 75.416 124.496 75.9989C124.283 76.5819 123.978 77.0786 123.581 77.489C123.19 77.8994 122.716 78.2148 122.16 78.4348C121.609 78.6548 120.996 78.7649 120.32 78.7649C119.639 78.7649 119.02 78.6548 118.463 78.4348C117.907 78.2148 117.43 77.8994 117.033 77.489C116.642 77.0786 116.337 76.5819 116.118 75.9989C115.905 75.416 115.798 74.7615 115.798 74.0359C115.798 73.3162 115.905 72.6647 116.118 72.0819C116.337 71.4988 116.642 71.0051 117.033 70.6006C117.43 70.1962 117.907 69.8839 118.463 69.6638C119.02 69.4438 119.639 69.3337 120.32 69.3337ZM120.32 77.0696C121.079 77.0696 121.638 76.8138 122 76.3022C122.367 75.7907 122.551 75.0412 122.551 74.0538C122.551 73.0662 122.367 72.3138 122 71.7964C121.638 71.2788 121.079 71.02 120.32 71.02C119.55 71.02 118.979 71.2818 118.606 71.8052C118.238 72.3228 118.055 73.0723 118.055 74.0538C118.055 75.0352 118.238 75.7847 118.606 76.3022C118.979 76.8138 119.55 77.0696 120.32 77.0696Z" fill="#C9005C"></path><path d="M126.491 78.6311V69.4765H127.832C128.117 69.4765 128.303 69.6102 128.392 69.878L128.534 70.556C128.694 70.3775 128.86 70.2141 129.032 70.0653C129.209 69.9166 129.396 69.7887 129.592 69.6817C129.793 69.5745 130.006 69.4913 130.231 69.4317C130.462 69.3663 130.714 69.3337 130.987 69.3337C131.561 69.3337 132.032 69.4913 132.399 69.8066C132.772 70.1159 133.051 70.5293 133.234 71.0467C133.377 70.7433 133.554 70.4847 133.767 70.2705C133.981 70.0505 134.215 69.872 134.469 69.7351C134.724 69.5984 134.994 69.4972 135.278 69.4317C135.568 69.3663 135.858 69.3337 136.149 69.3337C136.652 69.3337 137.099 69.411 137.49 69.5656C137.881 69.7202 138.21 69.9463 138.477 70.2438C138.743 70.5412 138.944 70.904 139.081 71.3324C139.223 71.7606 139.294 72.2513 139.294 72.8046V78.6311H137.099V72.8046C137.099 72.2216 136.972 71.7843 136.717 71.493C136.463 71.1955 136.089 71.0467 135.598 71.0467C135.373 71.0467 135.162 71.0855 134.967 71.1627C134.777 71.24 134.609 71.3531 134.461 71.5018C134.318 71.6446 134.206 71.8261 134.123 72.0461C134.04 72.2662 133.999 72.5191 133.999 72.8046V78.6311H131.795V72.8046C131.795 72.1919 131.671 71.7458 131.422 71.4661C131.179 71.1866 130.821 71.0467 130.347 71.0467C130.027 71.0467 129.728 71.127 129.449 71.2876C129.177 71.4424 128.922 71.6564 128.685 71.9301V78.6311H126.491Z" fill="#C9005C"></path><path d="M147.253 73.0008C147.253 72.7153 147.211 72.4477 147.128 72.1979C147.051 71.9421 146.933 71.7189 146.773 71.5286C146.613 71.3382 146.409 71.1896 146.16 71.0824C145.917 70.9694 145.633 70.913 145.307 70.913C144.673 70.913 144.173 71.0945 143.806 71.4573C143.444 71.8201 143.213 72.3346 143.112 73.0008H147.253ZM143.068 74.3303C143.104 74.8003 143.187 75.2078 143.317 75.5528C143.447 75.8919 143.619 76.1743 143.832 76.4004C144.045 76.6205 144.297 76.7871 144.587 76.9001C144.884 77.0071 145.209 77.0607 145.565 77.0607C145.92 77.0607 146.225 77.019 146.48 76.9359C146.741 76.8525 146.966 76.7604 147.155 76.6592C147.351 76.558 147.519 76.4659 147.662 76.3825C147.81 76.2992 147.952 76.2577 148.088 76.2577C148.272 76.2577 148.408 76.3261 148.497 76.4628L149.128 77.2659C148.885 77.5514 148.612 77.7923 148.31 77.9887C148.008 78.179 147.691 78.3336 147.36 78.4527C147.034 78.5657 146.699 78.646 146.356 78.6936C146.018 78.7412 145.689 78.7649 145.369 78.7649C144.735 78.7649 144.146 78.6609 143.601 78.4527C143.056 78.2385 142.582 77.9262 142.18 77.5157C141.777 77.0993 141.46 76.5877 141.229 75.981C140.998 75.3685 140.882 74.6605 140.882 73.8575C140.882 73.2329 140.983 72.647 141.184 72.0997C141.386 71.5464 141.673 71.0676 142.046 70.663C142.425 70.2527 142.885 69.9284 143.424 69.6905C143.969 69.4526 144.581 69.3337 145.263 69.3337C145.837 69.3337 146.367 69.4259 146.853 69.6102C147.339 69.7947 147.756 70.0653 148.106 70.4223C148.455 70.7733 148.728 71.2073 148.923 71.7249C149.125 72.2365 149.225 72.8225 149.225 73.4826C149.225 73.8159 149.19 74.0418 149.119 74.1608C149.048 74.2739 148.911 74.3303 148.71 74.3303H143.068Z" fill="#C9005C"></path><path d="M152.924 70.6006C153.108 70.4163 153.301 70.2466 153.502 70.092C153.709 69.9314 153.925 69.7977 154.151 69.6905C154.382 69.5775 154.627 69.4913 154.888 69.4317C155.149 69.3663 155.433 69.3337 155.741 69.3337C156.239 69.3337 156.68 69.4199 157.065 69.5923C157.45 69.759 157.77 69.9969 158.024 70.3063C158.285 70.6096 158.48 70.9754 158.611 71.4037C158.747 71.8261 158.815 72.2931 158.815 72.8046V78.6311H156.621V72.8046C156.621 72.2455 156.493 71.8142 156.239 71.5109C155.984 71.2015 155.596 71.0467 155.075 71.0467C154.696 71.0467 154.34 71.133 154.008 71.3055C153.677 71.4781 153.363 71.7131 153.067 72.0104V78.6311H150.872V69.4765H152.214C152.498 69.4765 152.685 69.6102 152.773 69.878L152.924 70.6006Z" fill="#C9005C"></path></g><defs><clipPath id="clip0_23_367"><rect width="159" height="82" fill="white"></rect></clipPath></defs></svg>