<svg xmlns="http://www.w3.org/2000/svg" width="159" height="82" viewBox="0 0 159 82" fill="none"><g clip-path="url(#clip0_137_3)"><path d="M79.339 56.7673C95.0219 56.7673 107.736 44.0595 107.736 28.3837C107.736 12.7078 95.0219 0 79.339 0C63.656 0 50.9424 12.7078 50.9424 28.3837C50.9424 44.0595 63.656 56.7673 79.339 56.7673Z" fill="#C9005C"></path><mask id="mask0_137_3" style="mask-type:luminance" maskUnits="userSpaceOnUse" x="61" y="10" width="37" height="37"><path d="M97.1199 10.1279H61.2925V46.6403H97.1199V10.1279Z" fill="white"></path></mask><g mask="url(#mask0_137_3)"><path d="M76.7155 31.4742C76.8908 31.5698 76.6608 31.226 76.6061 31.1299C76.0921 30.2235 75.536 29.3413 75.0811 28.4015C74.8393 27.902 74.6457 27.3887 74.5642 26.8371C74.3992 25.7188 74.5642 24.6678 75.1886 23.71C75.8965 22.6227 76.8953 21.9487 78.134 21.6286C78.875 21.4373 79.6311 21.4093 80.3796 21.5596C81.3589 21.7546 82.1603 22.2725 82.8025 23.038C83.0804 23.3694 83.3175 23.7288 83.5036 24.1226C83.9827 25.1373 84.0632 26.1845 83.7677 27.2618C83.6409 27.7238 83.4473 28.1568 83.2081 28.5732C82.8079 29.2704 82.4337 29.9817 82.0473 30.6873C81.976 30.818 81.9166 30.958 81.8286 31.0766C81.5321 31.4799 81.131 31.6843 80.6326 31.5983C79.87 31.4667 79.4569 30.692 79.7468 29.9612C79.8294 29.7539 79.9395 29.5579 80.0451 29.361C80.3611 28.7701 80.6836 28.1829 80.9995 27.5922C81.2338 27.1525 81.3673 26.6774 81.4016 26.1828C81.4265 25.8224 81.3552 25.4658 81.1728 25.1486C80.9697 24.7965 80.7021 24.495 80.3704 24.2627C80.073 24.0545 79.7404 23.9415 79.3736 23.9266C78.9381 23.9099 78.5257 23.9667 78.1237 24.161C77.1639 24.6248 76.885 25.6787 77.0695 26.4534C77.1343 26.7259 77.2399 26.9975 77.376 27.2413C78.1903 28.6964 79.0177 30.1442 79.8433 31.5936C79.9081 31.7076 79.9905 31.8122 80.0656 31.9222C81.0411 31.7206 81.9992 31.5573 82.9053 31.1671C84.1226 30.6426 85.1723 29.8874 86.1016 28.9475C86.2164 28.8308 86.3387 28.7206 86.4452 28.5975C86.7297 28.2689 87.1114 28.154 87.5163 28.1271C88.3444 28.0729 88.954 28.8961 88.6928 29.7045C88.6104 29.9612 88.4881 30.2019 88.3019 30.4007C87.5578 31.1932 86.7797 31.9455 85.8643 32.5412C84.723 33.284 83.4982 33.8338 82.1816 34.1746C82.0093 34.2193 81.837 34.2615 81.6666 34.3119C81.6138 34.3277 81.5683 34.3668 81.5072 34.4033C81.5248 34.4723 81.5293 34.5321 81.5535 34.5825C81.8795 35.2443 85.554 41.6409 85.7727 41.9238C85.8347 41.8696 85.9152 41.8286 85.9542 41.7622C86.3072 41.1583 86.6537 40.5506 87.0011 39.9432C87.4003 39.2458 87.7989 38.5467 88.1982 37.8493C88.8049 36.7899 89.4117 35.7315 90.0204 34.673C90.5921 33.679 91.1665 32.6877 91.7372 31.6935C92.2561 30.79 92.7721 29.8846 93.289 28.9802C93.5178 28.5798 93.7272 28.1653 93.984 27.7835C94.4398 27.1049 95.0576 26.6821 95.9036 26.6755C96.1852 26.6736 96.466 26.6699 96.7474 26.6736C96.8634 26.6755 96.9782 26.697 97.0969 26.7101C97.1699 26.9398 97.0598 27.1068 96.9699 27.271C96.7336 27.7013 96.4881 28.1271 96.2444 28.5546C95.4709 29.9126 94.6973 31.2707 93.9218 32.6279C93.3084 33.7004 92.6915 34.771 92.0801 35.8445C91.5491 36.776 91.0248 37.7104 90.4948 38.6428C90.002 39.51 89.5035 40.3742 89.0096 41.2405C88.4714 42.1852 87.9378 43.1316 87.3987 44.0753C86.9705 44.8257 86.5314 45.5688 86.1107 46.323C85.8328 46.8214 85.553 46.6431 85.3603 46.3117C84.9268 45.5651 84.4951 44.8173 84.0642 44.0687C83.5815 43.2305 83.0989 42.3915 82.618 41.5523C82.0992 40.6488 81.584 39.7432 81.0643 38.8397C80.7225 38.2462 80.3759 37.6562 80.0322 37.0636C79.9423 36.9086 79.859 36.7508 79.77 36.5968C79.7107 36.4941 79.6552 36.3848 79.4893 36.3495C79.4318 36.4055 79.3466 36.4651 79.2938 36.5464C78.4628 37.8345 77.6364 39.1264 76.8091 40.4173C76.4634 40.9558 76.1188 41.4953 75.7714 42.033C74.883 43.4088 73.9945 44.7838 73.1033 46.1577C73.0143 46.294 72.916 46.4276 72.8031 46.5432C72.666 46.6824 72.5066 46.6692 72.3787 46.5161C72.2841 46.4024 72.2008 46.2773 72.1275 46.1485C71.4809 45.0087 70.8407 43.8662 70.1931 42.7274C69.7002 41.8604 69.1981 40.9988 68.7033 40.1326C68.1939 39.2411 67.6871 38.347 67.1804 37.4536C66.4605 36.1851 65.7424 34.9148 65.0197 33.6482C64.4 32.5617 63.7728 31.4808 63.1529 30.3943C62.5701 29.3731 61.9929 28.3483 61.4131 27.3251C61.3833 27.2738 61.3537 27.2215 61.3324 27.1666C61.2434 26.9407 61.3084 26.7829 61.5317 26.7083C61.6427 26.6708 61.7615 26.6364 61.8781 26.6326C62.4285 26.6185 62.9722 26.6522 63.4884 26.8734C64.0813 27.1282 64.5381 27.539 64.8559 28.1019C65.6321 29.4758 66.403 30.8536 67.1794 32.2275C67.8306 33.3811 68.4876 34.5321 69.1397 35.6857C69.6892 36.6585 70.234 37.6329 70.7823 38.6054C71.3745 39.6565 71.9684 40.7056 72.5631 41.7558C72.6122 41.8425 72.6751 41.9219 72.728 41.9994C72.904 41.9612 72.9493 41.823 73.0207 41.7165C73.8758 40.4444 74.7273 39.1692 75.5806 37.8952C76.2273 36.931 76.873 35.9658 77.5234 35.0044C77.7809 34.6235 77.9023 34.4648 77.2648 34.3743C75.901 34.1812 74.6245 33.7097 73.4192 33.0461C72.5723 32.5803 71.7914 32.0202 71.0762 31.3612C70.3293 30.6734 69.6659 29.9192 69.1148 29.0659C68.2735 27.7648 67.6935 26.3573 67.3721 24.8339C67.1358 23.7137 67.071 22.5825 67.1534 21.4522C67.2508 20.1231 67.5649 18.8368 68.0874 17.6009C68.5329 16.548 69.138 15.6006 69.8143 14.6905C69.8495 14.6429 69.8847 14.5944 69.9236 14.5496C71.6653 12.5614 73.773 11.1631 76.3477 10.5294C77.023 10.3632 77.7068 10.2391 78.4044 10.1877C78.8482 10.155 79.2902 10.1112 79.7339 10.1326C81.8249 10.2353 83.7918 10.7636 85.5929 11.8679C86.3173 12.3122 86.9743 12.8367 87.6071 13.4043C88.3528 14.0735 88.0249 15.0013 87.5606 15.4634C87.1558 15.8657 86.4396 15.8815 85.9607 15.5231C85.7708 15.3812 85.5826 15.2328 85.4122 15.0695C84.6702 14.3591 83.7872 13.8794 82.8616 13.4696C82.0556 13.1121 81.2061 12.9217 80.3324 12.8153C78.1812 12.5548 76.1836 13.002 74.3262 14.1137C73.8157 14.4189 73.3626 14.8006 72.9068 15.1833C72.2981 15.6958 71.7996 16.3044 71.3513 16.9494C70.5842 18.0536 70.1126 19.2914 69.9115 20.6233C69.6244 22.5264 69.8328 24.3699 70.6276 26.1341C71.5616 28.2072 73.0282 29.7716 75.0386 30.8077C75.4592 31.0243 75.9048 31.1923 76.3421 31.3744C76.4599 31.4229 76.5904 31.4406 76.7155 31.4723V31.4742Z" fill="white"></path></g><path d="M9.56914 75.5882C9.69947 75.5882 9.81496 75.6388 9.91566 75.7398L10.8575 76.766C10.3362 77.4144 9.69353 77.9111 8.92943 78.2561C8.17125 78.6012 7.25905 78.7736 6.19285 78.7736C5.23919 78.7736 4.38031 78.61 3.61619 78.2828C2.85801 77.9557 2.20941 77.5006 1.67038 76.9177C1.13136 76.3347 0.716723 75.6388 0.42648 74.8297C0.14216 74.0208 0 73.1375 0 72.1798C0 71.2101 0.154007 70.3239 0.46202 69.5208C0.770034 68.7117 1.20244 68.0158 1.75923 67.4328C2.32194 66.85 2.99128 66.3979 3.76725 66.0766C4.5432 65.7494 5.40209 65.5859 6.34389 65.5859C7.27978 65.5859 8.10906 65.7405 8.83169 66.0499C9.56026 66.3591 10.1793 66.7637 10.6887 67.2634L9.88901 68.3786C9.84163 68.4501 9.77944 68.5125 9.70243 68.5661C9.63134 68.6196 9.53065 68.6463 9.40033 68.6463C9.31148 68.6463 9.21968 68.6226 9.1249 68.575C9.03013 68.5214 8.92647 68.4589 8.81392 68.3877C8.70138 68.3102 8.57107 68.2271 8.42299 68.1377C8.27489 68.0486 8.10312 67.9683 7.90766 67.8968C7.71219 67.8195 7.48414 67.7571 7.22351 67.7095C6.96881 67.6559 6.67264 67.6292 6.33502 67.6292C5.76044 67.6292 5.23327 67.7334 4.75348 67.9416C4.27961 68.1437 3.87089 68.4411 3.52735 68.8338C3.1838 69.2205 2.91725 69.6963 2.7277 70.2614C2.53816 70.8206 2.44337 71.46 2.44337 72.1798C2.44337 72.9054 2.54407 73.5508 2.74547 74.116C2.95277 74.681 3.23118 75.157 3.58066 75.5437C3.93013 75.9302 4.3418 76.2277 4.81568 76.4359C5.28953 76.6381 5.79895 76.7393 6.34389 76.7393C6.66968 76.7393 6.96289 76.7214 7.22351 76.6857C7.49006 76.6499 7.73292 76.5935 7.95208 76.5162C8.17717 76.4389 8.38745 76.3407 8.58291 76.2217C8.78431 76.0968 8.98273 75.9452 9.17821 75.7667C9.23745 75.7131 9.29965 75.6716 9.3648 75.6417C9.42995 75.6061 9.49807 75.5882 9.56914 75.5882Z" fill="black"></path><path d="M15.9912 69.334C16.6665 69.334 17.2795 69.444 17.8304 69.664C18.3872 69.8841 18.861 70.1965 19.2521 70.6008C19.6489 71.0054 19.954 71.4991 20.1671 72.0821C20.3804 72.665 20.487 73.3164 20.487 74.0362C20.487 74.7618 20.3804 75.4163 20.1671 75.9991C19.954 76.5821 19.6489 77.0788 19.2521 77.4892C18.861 77.8996 18.3872 78.215 17.8304 78.435C17.2795 78.6551 16.6665 78.7651 15.9912 78.7651C15.31 78.7651 14.691 78.6551 14.1342 78.435C13.5775 78.215 13.1006 77.8996 12.7038 77.4892C12.3128 77.0788 12.0078 76.5821 11.7886 75.9991C11.5754 75.4163 11.4688 74.7618 11.4688 74.0362C11.4688 73.3164 11.5754 72.665 11.7886 72.0821C12.0078 71.4991 12.3128 71.0054 12.7038 70.6008C13.1006 70.1965 13.5775 69.8841 14.1342 69.664C14.691 69.444 15.31 69.334 15.9912 69.334ZM15.9912 77.0698C16.7494 77.0698 17.3092 76.814 17.6705 76.3025C18.0377 75.7909 18.2213 75.0414 18.2213 74.0541C18.2213 73.0665 18.0377 72.314 17.6705 71.7966C17.3092 71.279 16.7494 71.0202 15.9912 71.0202C15.2212 71.0202 14.6496 71.282 14.2764 71.8055C13.9092 72.323 13.7255 73.0725 13.7255 74.0541C13.7255 75.0354 13.9092 75.7851 14.2764 76.3025C14.6496 76.814 15.2212 77.0698 15.9912 77.0698Z" fill="black"></path><path d="M30.0153 69.4766V78.6312H28.6739C28.3836 78.6312 28.1999 78.4973 28.1229 78.2297L27.9719 77.4981C27.5987 77.8787 27.187 78.1879 26.7368 78.426C26.2866 78.6579 25.7566 78.774 25.1465 78.774C24.6489 78.774 24.2076 78.6907 23.8226 78.524C23.4435 78.3516 23.1237 78.1106 22.863 77.8014C22.6023 77.4921 22.4039 77.1263 22.2676 76.7038C22.1374 76.2756 22.0723 75.8056 22.0723 75.2941V69.4766H24.2668V75.2941C24.2668 75.8532 24.3942 76.2875 24.6489 76.5968C24.9095 76.9002 25.2974 77.0518 25.8128 77.0518C26.1918 77.0518 26.5473 76.9687 26.879 76.802C27.2106 76.6296 27.5247 76.3945 27.8208 76.0971V69.4766H30.0153Z" fill="black"></path><path d="M34.2616 71.0644C34.5461 70.5173 34.8835 70.0888 35.2746 69.7796C35.6654 69.4642 36.1275 69.3066 36.6606 69.3066C37.0813 69.3066 37.4187 69.3988 37.6734 69.5833L37.5313 71.234C37.5017 71.341 37.4573 71.4183 37.3981 71.4659C37.3448 71.5077 37.2708 71.5283 37.176 71.5283C37.0871 71.5283 36.9539 71.5135 36.7762 71.4838C36.6043 71.4541 36.4355 71.4392 36.2698 71.4392C36.0269 71.4392 35.8106 71.4749 35.6211 71.5462C35.4315 71.6177 35.2598 71.7217 35.1058 71.8586C34.9577 71.9895 34.8244 72.1501 34.706 72.3404C34.5934 72.5308 34.4867 72.7478 34.3861 72.9917V78.6309H32.1914V69.4763H33.4799C33.7048 69.4763 33.8619 69.5178 33.9507 69.6012C34.0395 69.6785 34.0988 69.8212 34.1284 70.0294L34.2616 71.0644Z" fill="black"></path><path d="M43.5145 74.7228C42.8808 74.7525 42.3476 74.8089 41.9154 74.8922C41.4829 74.9695 41.1363 75.0707 40.8758 75.1956C40.6151 75.3207 40.4285 75.4662 40.316 75.6329C40.2034 75.7995 40.1471 75.9808 40.1471 76.1771C40.1471 76.5638 40.2596 76.8405 40.4847 77.0069C40.7158 77.1736 41.0149 77.2569 41.3822 77.2569C41.8324 77.2569 42.2203 77.1766 42.5461 77.016C42.8778 76.8493 43.2007 76.5996 43.5145 76.2663V74.7228ZM38.4857 70.7522C39.5341 69.7885 40.7958 69.3066 42.2706 69.3066C42.8038 69.3066 43.2806 69.396 43.7013 69.5745C44.1217 69.7469 44.4772 69.9907 44.7674 70.3061C45.0575 70.6153 45.2768 70.9871 45.4248 71.4213C45.5789 71.8556 45.6559 72.3314 45.6559 72.849V78.6309H44.6607C44.4534 78.6309 44.2934 78.6012 44.1809 78.5416C44.0683 78.4762 43.9796 78.3483 43.9144 78.1579L43.7189 77.4978C43.4879 77.706 43.2628 77.8903 43.0437 78.0509C42.8244 78.2055 42.5965 78.3364 42.3596 78.4434C42.1227 78.5506 41.868 78.6309 41.5955 78.6844C41.3288 78.744 41.0327 78.7737 40.7068 78.7737C40.322 78.7737 39.9665 78.7231 39.6407 78.6219C39.315 78.5149 39.0335 78.3573 38.7966 78.1491C38.5597 77.9409 38.3762 77.6821 38.2458 77.3727C38.1155 77.0635 38.0503 76.7036 38.0503 76.2932C38.0503 76.0611 38.0889 75.8322 38.1658 75.6062C38.2428 75.3741 38.3672 75.154 38.5389 74.9458C38.7166 74.7376 38.9447 74.5413 39.223 74.357C39.5015 74.1725 39.8422 74.0119 40.2448 73.8751C40.6537 73.7382 41.1275 73.6282 41.6665 73.5449C42.2055 73.4557 42.8216 73.4021 43.5145 73.3843V72.849C43.5145 72.2363 43.3842 71.7841 43.1237 71.4928C42.863 71.1953 42.4869 71.0467 41.9953 71.0467C41.6399 71.0467 41.3436 71.0883 41.1067 71.1716C40.8758 71.2549 40.6715 71.3501 40.4937 71.4571C40.316 71.5583 40.1531 71.6504 40.0049 71.7337C39.8628 71.8169 39.7028 71.8586 39.5251 71.8586C39.3712 71.8586 39.2408 71.8199 39.1343 71.7426C39.0277 71.6593 38.9417 71.5641 38.8766 71.4571L38.4857 70.7522Z" fill="black"></path><path d="M51.0547 73.8313C51.3271 73.8313 51.564 73.7956 51.7656 73.7241C51.9669 73.6468 52.1328 73.5428 52.263 73.4119C52.3993 73.281 52.5001 73.1234 52.5651 72.9389C52.6362 72.7546 52.6718 72.5524 52.6718 72.3322C52.6718 71.8802 52.5355 71.5233 52.263 71.2615C51.9965 70.9938 51.5936 70.8599 51.0547 70.8599C50.5157 70.8599 50.1098 70.9938 49.8375 71.2615C49.5708 71.5233 49.4377 71.8802 49.4377 72.3322C49.4377 72.5464 49.4703 72.7455 49.5353 72.93C49.6064 73.1144 49.7072 73.275 49.8375 73.4119C49.9737 73.5428 50.1424 73.6468 50.3439 73.7241C50.5512 73.7956 50.7882 73.8313 51.0547 73.8313ZM53.5337 79.0421C53.5337 78.8636 53.4803 78.7178 53.3737 78.6048C53.267 78.4918 53.1218 78.4056 52.9383 78.3462C52.7546 78.2807 52.5385 78.2332 52.2898 78.2032C52.0469 78.1735 51.7862 78.1528 51.5079 78.1408C51.2354 78.1229 50.9511 78.1081 50.6548 78.0962C50.3645 78.0844 50.0802 78.0605 49.8019 78.025C49.559 78.1617 49.3605 78.3223 49.2066 78.5068C49.0584 78.6911 48.9845 78.9053 48.9845 79.1491C48.9845 79.3097 49.023 79.4585 49.1 79.5954C49.183 79.7381 49.3103 79.86 49.4821 79.9612C49.6598 80.0622 49.8877 80.1397 50.1662 80.1931C50.4445 80.2525 50.7852 80.2824 51.188 80.2824C51.5966 80.2824 51.9491 80.2497 52.2452 80.1842C52.5415 80.1246 52.7844 80.0385 52.9739 79.9254C53.1694 79.8184 53.3116 79.6875 53.4003 79.5327C53.4891 79.3842 53.5337 79.2205 53.5337 79.0421ZM55.7194 69.7892V70.6102C55.7194 70.8718 55.5623 71.0324 55.2484 71.092L54.4309 71.2436C54.5555 71.559 54.6176 71.9039 54.6176 72.2787C54.6176 72.7307 54.5257 73.1412 54.3421 73.5101C54.1644 73.8729 53.9157 74.1822 53.5958 74.438C53.276 74.6938 52.8969 74.893 52.4585 75.0357C52.0261 75.1726 51.5582 75.2411 51.0547 75.2411C50.8769 75.2411 50.7052 75.2321 50.5393 75.2142C50.3735 75.1963 50.2106 75.1726 50.0507 75.1429C49.7664 75.3154 49.6242 75.5087 49.6242 75.7227C49.6242 75.9072 49.7072 76.044 49.8729 76.1333C50.0448 76.2166 50.2698 76.2761 50.5482 76.3118C50.8265 76.3473 51.1436 76.3712 51.4989 76.3831C51.8543 76.3891 52.2186 76.407 52.5918 76.4367C52.9649 76.4664 53.3292 76.52 53.6846 76.5973C54.0401 76.6686 54.3569 76.7846 54.6354 76.9452C54.9137 77.1058 55.1358 77.3259 55.3018 77.6055C55.4735 77.8792 55.5595 78.2332 55.5595 78.6672C55.5595 79.0718 55.4587 79.4645 55.2572 79.8451C55.0619 80.2258 54.7746 80.5649 54.3955 80.8622C54.0223 81.1598 53.5603 81.3977 53.0095 81.5762C52.4645 81.7605 51.8425 81.8526 51.1436 81.8526C50.4565 81.8526 49.8581 81.7844 49.3487 81.6474C48.8393 81.5165 48.4159 81.3382 48.0782 81.1122C47.7406 80.8921 47.4889 80.6362 47.3229 80.3448C47.1572 80.0533 47.0742 79.75 47.0742 79.4348C47.0742 79.0063 47.2016 78.6495 47.4563 78.3639C47.717 78.0725 48.0722 77.8405 48.5225 77.668C48.2796 77.5431 48.087 77.3765 47.9449 77.1683C47.8027 76.9601 47.7318 76.6864 47.7318 76.3473C47.7318 76.2106 47.7554 76.0709 47.8027 75.9281C47.8561 75.7794 47.9301 75.6336 48.0248 75.4909C48.1256 75.3481 48.25 75.2142 48.3981 75.0893C48.5462 74.9584 48.721 74.8424 48.9223 74.7414C48.4603 74.4914 48.096 74.1584 47.8295 73.742C47.5688 73.3256 47.4385 72.8379 47.4385 72.2787C47.4385 71.8266 47.5272 71.4191 47.705 71.0563C47.8887 70.6875 48.1404 70.3753 48.4603 70.1195C48.786 69.8577 49.1682 69.6583 49.6064 69.5216C50.0506 69.3847 50.5335 69.3164 51.0547 69.3164C51.4457 69.3164 51.8129 69.358 52.1564 69.4413C52.5001 69.5186 52.814 69.6346 53.0982 69.7892H55.7194Z" fill="black"></path><path d="M62.8282 73.001C62.8282 72.7155 62.7866 72.4479 62.7037 72.1981C62.6267 71.9424 62.5083 71.7193 62.3484 71.5288C62.1884 71.3385 61.9839 71.1899 61.7352 71.0827C61.4923 70.9697 61.208 70.9132 60.8824 70.9132C60.2484 70.9132 59.748 71.0947 59.3808 71.4575C59.0193 71.8203 58.7884 72.3349 58.6876 73.001H62.8282ZM58.6433 74.3305C58.6788 74.8005 58.7618 75.2081 58.892 75.553C59.0223 75.8921 59.1942 76.1746 59.4074 76.4006C59.6207 76.6207 59.8724 76.7873 60.1626 76.9004C60.4587 77.0074 60.7846 77.061 61.1399 77.061C61.4953 77.061 61.8004 77.0192 62.0551 76.9361C62.3158 76.8528 62.5409 76.7606 62.7304 76.6594C62.9258 76.5583 63.0947 76.4661 63.2368 76.3828C63.385 76.2995 63.5271 76.2579 63.6633 76.2579C63.847 76.2579 63.9831 76.3264 64.0721 76.4631L64.7029 77.2662C64.46 77.5517 64.1875 77.7926 63.8854 77.9889C63.5833 78.1793 63.2664 78.3339 62.9348 78.4529C62.6089 78.5659 62.2742 78.6462 61.9308 78.6938C61.5931 78.7414 61.2644 78.7651 60.9445 78.7651C60.3106 78.7651 59.7212 78.6611 59.1764 78.4529C58.6315 78.2387 58.1576 77.9265 57.7548 77.5159C57.352 77.0995 57.0351 76.588 56.804 75.9812C56.5731 75.3687 56.4575 74.6608 56.4575 73.8577C56.4575 73.2331 56.5583 72.6473 56.7596 72.1C56.9611 71.5467 57.2484 71.0678 57.6215 70.6635C58.0005 70.2529 58.4597 69.9287 58.9987 69.6908C59.5437 69.4528 60.1567 69.334 60.8378 69.334C61.4124 69.334 61.9425 69.4261 62.4284 69.6104C62.914 69.7949 63.3316 70.0656 63.6811 70.4226C64.0305 70.7735 64.303 71.2078 64.4985 71.7251C64.6999 72.2367 64.8006 72.8227 64.8006 73.4829C64.8006 73.8161 64.765 74.042 64.6939 74.1611C64.6229 74.2741 64.4866 74.3305 64.2852 74.3305H58.6433Z" fill="black"></path><path d="M70.4811 69.334C71.1562 69.334 71.7694 69.444 72.3202 69.664C72.877 69.8841 73.351 70.1965 73.7418 70.6008C74.1387 71.0054 74.4437 71.4991 74.657 72.0821C74.8702 72.665 74.9769 73.3164 74.9769 74.0362C74.9769 74.7618 74.8702 75.4163 74.657 75.9991C74.4437 76.5821 74.1387 77.0788 73.7418 77.4892C73.351 77.8996 72.877 78.215 72.3202 78.435C71.7694 78.6551 71.1562 78.7651 70.4811 78.7651C69.7998 78.7651 69.1808 78.6551 68.624 78.435C68.0673 78.215 67.5904 77.8996 67.1936 77.4892C66.8026 77.0788 66.4977 76.5821 66.2784 75.9991C66.0652 75.4163 65.9585 74.7618 65.9585 74.0362C65.9585 73.3164 66.0652 72.665 66.2784 72.0821C66.4977 71.4991 66.8026 71.0054 67.1936 70.6008C67.5904 70.1965 68.0673 69.8841 68.624 69.664C69.1808 69.444 69.7998 69.334 70.4811 69.334ZM70.4811 77.0698C71.2392 77.0698 71.799 76.814 72.1602 76.3025C72.5275 75.7909 72.7112 75.0414 72.7112 74.0541C72.7112 73.0665 72.5275 72.314 72.1602 71.7966C71.799 71.279 71.2392 71.0202 70.4811 71.0202C69.711 71.0202 69.1394 71.282 68.7662 71.8055C68.3989 72.323 68.2154 73.0725 68.2154 74.0541C68.2154 75.0354 68.3989 75.7851 68.7662 76.3025C69.1394 76.814 69.711 77.0698 70.4811 77.0698Z" fill="black"></path><path d="M84.5058 69.4766V78.6312H83.1641C82.8738 78.6312 82.6903 78.4973 82.6131 78.2297L82.4622 77.4981C82.0889 77.8787 81.6773 78.1879 81.2271 78.426C80.777 78.6579 80.2468 78.774 79.6367 78.774C79.1391 78.774 78.6979 78.6907 78.3128 78.524C77.9338 78.3516 77.6139 78.1106 77.3532 77.8014C77.0927 77.4921 76.8942 77.1263 76.758 76.7038C76.6277 76.2756 76.5625 75.8056 76.5625 75.2941V69.4766H78.757V75.2941C78.757 75.8532 78.8844 76.2875 79.1391 76.5968C79.3998 76.9002 79.7878 77.0518 80.303 77.0518C80.6823 77.0518 81.0375 76.9687 81.3694 76.802C81.7011 76.6296 82.0149 76.3945 82.311 76.0971V69.4766H84.5058Z" fill="black"></path><path d="M92.2435 71.2612C92.1843 71.3563 92.1219 71.4248 92.0567 71.4664C91.9918 71.5021 91.9088 71.52 91.808 71.52C91.7015 71.52 91.5859 71.4902 91.4616 71.4308C91.343 71.3712 91.2039 71.3057 91.0439 71.2345C90.884 71.1572 90.7005 71.0887 90.4931 71.0293C90.2916 70.9697 90.0517 70.9399 89.7734 70.9399C89.341 70.9399 89.0003 71.0321 88.7516 71.2166C88.5087 71.4009 88.3874 71.6418 88.3874 71.9394C88.3874 72.1357 88.4496 72.3022 88.5739 72.4391C88.7043 72.5698 88.873 72.6858 89.0803 72.787C89.2936 72.8882 89.5335 72.9804 89.8 73.0637C90.0665 73.141 90.336 73.2271 90.6085 73.3223C90.887 73.4174 91.1595 73.5276 91.426 73.6525C91.6925 73.7714 91.9296 73.9262 92.1369 74.1165C92.35 74.3008 92.5188 74.5239 92.6433 74.7857C92.7736 75.0475 92.8386 75.3627 92.8386 75.7315C92.8386 76.1716 92.7587 76.5791 92.5989 76.954C92.4448 77.3226 92.2139 77.6438 91.9058 77.9175C91.5977 78.1853 91.2157 78.3963 90.7596 78.5511C90.3094 78.6997 89.7882 78.7741 89.1959 78.7741C88.882 78.7741 88.5739 78.7444 88.2718 78.6848C87.9757 78.6314 87.6885 78.5541 87.41 78.4529C87.1375 78.3517 86.8828 78.2329 86.6459 78.0959C86.4148 77.9592 86.2104 77.8104 86.0327 77.6498L86.5393 76.811C86.6045 76.71 86.6815 76.6327 86.7702 76.5791C86.8592 76.5255 86.9717 76.4988 87.1079 76.4988C87.244 76.4988 87.3714 76.5376 87.4899 76.6149C87.6143 76.6922 87.7564 76.7755 87.9164 76.8646C88.0763 76.954 88.263 77.0371 88.4761 77.1144C88.6953 77.1919 88.9708 77.2304 89.3024 77.2304C89.5631 77.2304 89.7852 77.2007 89.9688 77.1413C90.1585 77.0758 90.3124 76.9925 90.431 76.8913C90.5553 76.7903 90.6441 76.6743 90.6975 76.5434C90.7566 76.4067 90.7862 76.2667 90.7862 76.124C90.7862 75.91 90.7211 75.7345 90.5907 75.5976C90.4664 75.4608 90.2976 75.3418 90.0843 75.2408C89.877 75.1396 89.6371 75.0503 89.3646 74.973C89.0981 74.8897 88.8226 74.8005 88.5383 74.7054C88.26 74.6102 87.9845 74.5002 87.712 74.3753C87.4456 74.2444 87.2056 74.0808 86.9923 73.8844C86.785 73.6883 86.6163 73.4473 86.4859 73.1617C86.3616 72.8762 86.2994 72.5312 86.2994 72.1267C86.2994 71.7519 86.3734 71.3951 86.5215 71.056C86.6697 70.7169 86.8858 70.4226 87.1701 70.1726C87.4603 69.9168 87.8186 69.7146 88.2452 69.5659C88.6775 69.4113 89.1751 69.334 89.7378 69.334C90.3658 69.334 90.9374 69.438 91.4526 69.6462C91.968 69.8544 92.3974 70.128 92.7411 70.4671L92.2435 71.2612Z" fill="black"></path><path d="M116.131 65.7295L112.142 78.6317H109.983L107.175 69.816C107.098 69.6019 107.027 69.3401 106.962 69.0307C106.927 69.1795 106.891 69.3193 106.856 69.4502C106.82 69.5811 106.782 69.7029 106.74 69.816L103.906 78.6317H101.738L97.7573 65.7295H99.7563C99.9637 65.7295 100.136 65.7801 100.272 65.8811C100.414 65.9762 100.509 66.1071 100.556 66.2738L102.742 73.9919C102.789 74.1823 102.834 74.3905 102.875 74.6165C102.922 74.8366 102.97 75.0685 103.017 75.3124C103.065 75.0626 103.115 74.8275 103.168 74.6075C103.228 74.3875 103.29 74.1823 103.355 73.9919L105.878 66.2738C105.926 66.1369 106.017 66.012 106.154 65.8989C106.296 65.7859 106.467 65.7295 106.669 65.7295H107.371C107.578 65.7295 107.747 65.7801 107.877 65.8811C108.008 65.9823 108.105 66.1132 108.171 66.2738L110.685 73.9919C110.809 74.3606 110.922 74.786 111.023 75.2678C111.1 74.7978 111.185 74.3726 111.28 73.9919L113.466 66.2738C113.502 66.125 113.59 65.9971 113.733 65.8901C113.881 65.7829 114.055 65.7295 114.257 65.7295H116.131Z" fill="#C9005C"></path><path d="M120.32 69.334C120.996 69.334 121.609 69.444 122.16 69.664C122.716 69.8841 123.19 70.1965 123.581 70.6008C123.978 71.0054 124.283 71.4991 124.496 72.0821C124.71 72.665 124.816 73.3164 124.816 74.0362C124.816 74.7618 124.71 75.4163 124.496 75.9991C124.283 76.5821 123.978 77.0788 123.581 77.4892C123.19 77.8996 122.716 78.215 122.16 78.435C121.609 78.6551 120.996 78.7651 120.32 78.7651C119.639 78.7651 119.02 78.6551 118.463 78.435C117.907 78.215 117.43 77.8996 117.033 77.4892C116.642 77.0788 116.337 76.5821 116.118 75.9991C115.905 75.4163 115.798 74.7618 115.798 74.0362C115.798 73.3164 115.905 72.665 116.118 72.0821C116.337 71.4991 116.642 71.0054 117.033 70.6008C117.43 70.1965 117.907 69.8841 118.463 69.664C119.02 69.444 119.639 69.334 120.32 69.334ZM120.32 77.0698C121.079 77.0698 121.638 76.814 122 76.3025C122.367 75.7909 122.551 75.0414 122.551 74.0541C122.551 73.0665 122.367 72.314 122 71.7966C121.638 71.279 121.079 71.0202 120.32 71.0202C119.55 71.0202 118.979 71.282 118.606 71.8055C118.238 72.323 118.055 73.0725 118.055 74.0541C118.055 75.0354 118.238 75.7849 118.606 76.3025C118.979 76.814 119.55 77.0698 120.32 77.0698Z" fill="#C9005C"></path><path d="M126.491 78.6314V69.4767H127.832C128.117 69.4767 128.303 69.6104 128.392 69.8783L128.534 70.5563C128.694 70.3778 128.86 70.2144 129.032 70.0656C129.209 69.9168 129.396 69.7889 129.592 69.6819C129.793 69.5747 130.006 69.4916 130.231 69.432C130.462 69.3665 130.714 69.334 130.987 69.334C131.561 69.334 132.032 69.4916 132.399 69.8068C132.772 70.1162 133.051 70.5296 133.234 71.047C133.377 70.7436 133.554 70.485 133.767 70.2708C133.981 70.0507 134.215 69.8722 134.469 69.7353C134.724 69.5986 134.994 69.4974 135.278 69.432C135.568 69.3665 135.858 69.334 136.149 69.334C136.652 69.334 137.099 69.4113 137.49 69.5659C137.881 69.7205 138.21 69.9465 138.477 70.2441C138.743 70.5414 138.944 70.9042 139.081 71.3326C139.223 71.7609 139.294 72.2516 139.294 72.8049V78.6314H137.099V72.8049C137.099 72.2218 136.972 71.7846 136.717 71.4933C136.463 71.1957 136.089 71.047 135.598 71.047C135.373 71.047 135.162 71.0857 134.967 71.163C134.777 71.2403 134.609 71.3533 134.461 71.5021C134.318 71.6448 134.206 71.8263 134.123 72.0464C134.04 72.2664 133.999 72.5194 133.999 72.8049V78.6314H131.795V72.8049C131.795 72.1921 131.671 71.746 131.422 71.4664C131.179 71.1869 130.821 71.047 130.347 71.047C130.027 71.047 129.728 71.1273 129.449 71.2879C129.177 71.4427 128.922 71.6567 128.685 71.9303V78.6314H126.491Z" fill="#C9005C"></path><path d="M147.253 73.001C147.253 72.7155 147.211 72.4479 147.128 72.1981C147.051 71.9424 146.933 71.7191 146.773 71.5288C146.613 71.3385 146.409 71.1899 146.16 71.0827C145.917 70.9697 145.633 70.9132 145.307 70.9132C144.673 70.9132 144.173 71.0947 143.806 71.4575C143.444 71.8203 143.213 72.3349 143.112 73.001H147.253ZM143.068 74.3305C143.104 74.8005 143.187 75.2081 143.317 75.553C143.447 75.8921 143.619 76.1746 143.832 76.4006C144.045 76.6207 144.297 76.7873 144.587 76.9004C144.884 77.0074 145.209 77.061 145.565 77.061C145.92 77.061 146.225 77.0192 146.48 76.9361C146.741 76.8528 146.966 76.7606 147.155 76.6594C147.351 76.5583 147.519 76.4661 147.662 76.3828C147.81 76.2995 147.952 76.2579 148.088 76.2579C148.272 76.2579 148.408 76.3264 148.497 76.4631L149.128 77.2662C148.885 77.5517 148.612 77.7926 148.31 77.9889C148.008 78.1793 147.691 78.3339 147.36 78.4529C147.034 78.5659 146.699 78.6462 146.356 78.6938C146.018 78.7414 145.689 78.7651 145.369 78.7651C144.735 78.7651 144.146 78.6611 143.601 78.4529C143.056 78.2387 142.582 77.9265 142.18 77.5159C141.777 77.0995 141.46 76.588 141.229 75.9812C140.998 75.3687 140.882 74.6608 140.882 73.8577C140.882 73.2331 140.983 72.6473 141.184 72.1C141.386 71.5467 141.673 71.0678 142.046 70.6633C142.425 70.2529 142.885 69.9287 143.424 69.6908C143.969 69.4528 144.581 69.334 145.263 69.334C145.837 69.334 146.367 69.4261 146.853 69.6104C147.339 69.7949 147.756 70.0656 148.106 70.4226C148.455 70.7735 148.728 71.2076 148.923 71.7251C149.125 72.2367 149.225 72.8227 149.225 73.4829C149.225 73.8161 149.19 74.042 149.119 74.1611C149.048 74.2741 148.911 74.3305 148.71 74.3305H143.068Z" fill="#C9005C"></path><path d="M152.924 70.6008C153.108 70.4165 153.301 70.2469 153.502 70.0923C153.709 69.9317 153.925 69.798 154.151 69.6908C154.382 69.5777 154.627 69.4916 154.888 69.432C155.149 69.3665 155.433 69.334 155.741 69.334C156.239 69.334 156.68 69.4201 157.065 69.5926C157.45 69.7592 157.77 69.9971 158.024 70.3065C158.285 70.6099 158.48 70.9757 158.611 71.4039C158.747 71.8263 158.815 72.2933 158.815 72.8049V78.6314H156.621V72.8049C156.621 72.2457 156.493 71.8145 156.239 71.5111C155.984 71.2017 155.596 71.047 155.075 71.047C154.696 71.047 154.34 71.1333 154.008 71.3057C153.677 71.4784 153.363 71.7133 153.067 72.0106V78.6314H150.872V69.4767H152.214C152.498 69.4767 152.685 69.6104 152.773 69.8783L152.924 70.6008Z" fill="#C9005C"></path></g><defs><clipPath id="clip0_137_3"><rect width="159" height="82" fill="white"></rect></clipPath></defs></svg>