<svg xmlns="http://www.w3.org/2000/svg" width="45" height="45" viewBox="0 0 45 45" fill="none"><g clip-path="url(#clip0_1026_614)"><path d="M38.8485 15.9961C37.8776 15.9961 37.0907 16.7831 37.0907 17.7539V38.6719C37.0907 39.6411 36.3021 40.4297 35.3329 40.4297H32.0512C31.6204 40.9961 31.1572 41.5667 30.6602 42.1402C30.0933 42.7946 29.5299 43.4002 28.998 43.9453H35.3329C38.2406 43.9453 40.6063 41.5796 40.6063 38.6719V17.7539C40.6063 16.7831 39.8193 15.9961 38.8485 15.9961Z" fill="white"></path><path d="M14.3406 42.1402C13.8437 41.5667 13.3805 40.9961 12.9497 40.4297H9.66797C8.69871 40.4297 7.91016 39.6411 7.91016 38.6719V17.7539C7.91016 16.7831 7.12318 15.9961 6.15234 15.9961C5.1815 15.9961 4.39453 16.7831 4.39453 17.7539V38.6719C4.39453 41.5796 6.7602 43.9453 9.66797 43.9453H16.0028C15.4709 43.4002 14.9075 42.7946 14.3406 42.1402Z" fill="white"></path><path d="M19.8633 29.7866C19.8633 28.3304 21.0438 27.1499 22.5 27.1499C23.9562 27.1499 25.1367 28.3304 25.1367 29.7866C25.1367 31.2428 23.9562 32.4233 22.5 32.4233C21.0438 32.4233 19.8633 31.2428 19.8633 29.7866Z" fill="white"></path><path d="M38.847 15.9961C37.8761 15.9961 37.0892 16.7831 37.0892 17.7539V38.6719C37.0892 39.6411 36.3006 40.4297 35.3313 40.4297H32.0497C31.6188 40.9961 31.1557 41.5667 30.6587 42.1402C30.0918 42.7946 29.5284 43.4002 28.9965 43.9453H35.3313C38.2391 43.9453 40.6048 41.5796 40.6048 38.6719V17.7539C40.6048 16.7831 39.8178 15.9961 38.847 15.9961Z" fill="url(#paint0_linear_1026_614)"></path><path d="M14.3399 42.1402C13.843 41.5667 13.3798 40.9961 12.949 40.4297H9.66729C8.69803 40.4297 7.90948 39.6411 7.90948 38.6719V17.7539C7.90948 16.7831 7.1225 15.9961 6.15166 15.9961C5.18082 15.9961 4.39385 16.7831 4.39385 17.7539V38.6719C4.39385 41.5796 6.75952 43.9453 9.66729 43.9453H16.0021C15.4703 43.4002 14.9068 42.7946 14.3399 42.1402Z" fill="url(#paint1_linear_1026_614)"></path><path fill-rule="evenodd" clip-rule="evenodd" d="M2.28562 23.222L22.4993 5.66797L42.713 23.222L45.0182 20.5676L22.4993 1.01172L-0.0195312 20.5676L2.28562 23.222Z" fill="url(#paint2_linear_1026_614)"></path><path d="M19.8626 29.7865C19.8626 28.3303 21.0431 27.1498 22.4993 27.1498C23.9555 27.1498 25.136 28.3303 25.136 29.7865C25.136 31.2427 23.9555 32.4232 22.4993 32.4232C21.0431 32.4232 19.8626 31.2427 19.8626 29.7865Z" fill="url(#paint3_linear_1026_614)"></path><path fill-rule="evenodd" clip-rule="evenodd" d="M23.609 44.158L22.4993 42.7948L21.3895 44.158L22.4993 45.0613L23.609 44.158ZM22.4993 40.4561C22.4636 40.4233 22.4273 40.3897 22.3903 40.3554C21.64 39.6595 20.6443 38.6792 19.6541 37.5362C18.659 36.3876 17.7011 35.1111 16.9995 33.8239C16.2888 32.5201 15.9096 31.3296 15.9096 30.3198V29.7934C15.9096 26.1536 18.86 23.2031 22.4993 23.2031C26.1387 23.2031 29.0891 26.1536 29.0891 29.7934V30.3198C29.0891 31.3296 28.7098 32.5201 27.9991 33.8239C27.2975 35.1111 26.3396 36.3876 25.3445 37.5362C24.3542 38.6792 23.3586 39.6595 22.6083 40.3554C22.5713 40.3897 22.535 40.4233 22.4993 40.4561ZM31.086 35.5064C31.9405 33.9388 32.6047 32.15 32.6047 30.3198V29.7934C32.6047 24.2122 28.0805 19.6875 22.4993 19.6875C16.9181 19.6875 12.394 24.2122 12.394 29.7934V30.3198C12.394 32.15 13.0582 33.9388 13.9126 35.5064C14.7762 37.0908 15.9052 38.578 16.997 39.8382C18.0936 41.104 19.1848 42.1774 19.9997 42.9331C20.4082 43.312 20.7502 43.6137 20.9924 43.8227C21.1136 43.9272 21.21 44.0087 21.2775 44.0652C21.3113 44.0934 21.3378 44.1155 21.3567 44.131C21.3661 44.1388 21.3736 44.1449 21.3791 44.1494L21.3858 44.155L21.3895 44.158C21.3899 44.1583 21.3895 44.158 22.4993 42.7948C23.609 44.158 23.6087 44.1583 23.609 44.158L23.6127 44.155L23.6195 44.1494C23.625 44.1449 23.6324 44.1388 23.6419 44.131C23.6607 44.1155 23.6873 44.0935 23.721 44.0652C23.7885 44.0087 23.885 43.9272 24.0061 43.8227C24.2483 43.6138 24.5903 43.312 24.9989 42.9331C25.8137 42.1774 26.905 41.104 28.0016 39.8382C29.0934 38.578 30.2224 37.0908 31.086 35.5064Z" fill="url(#paint4_linear_1026_614)"></path></g><defs><linearGradient id="paint0_linear_1026_614" x1="22.4993" y1="1.01172" x2="22.4993" y2="45.0613" gradientUnits="userSpaceOnUse"><stop stop-color="#098DFA"></stop><stop offset="1" stop-color="#7000FE"></stop></linearGradient><linearGradient id="paint1_linear_1026_614" x1="22.4993" y1="1.01172" x2="22.4993" y2="45.0613" gradientUnits="userSpaceOnUse"><stop stop-color="#098DFA"></stop><stop offset="1" stop-color="#7000FE"></stop></linearGradient><linearGradient id="paint2_linear_1026_614" x1="22.4993" y1="1.01172" x2="22.4993" y2="45.0613" gradientUnits="userSpaceOnUse"><stop stop-color="#098DFA"></stop><stop offset="1" stop-color="#7000FE"></stop></linearGradient><linearGradient id="paint3_linear_1026_614" x1="22.4993" y1="1.01172" x2="22.4993" y2="45.0613" gradientUnits="userSpaceOnUse"><stop stop-color="#098DFA"></stop><stop offset="1" stop-color="#7000FE"></stop></linearGradient><linearGradient id="paint4_linear_1026_614" x1="22.4993" y1="1.01172" x2="22.4993" y2="45.0613" gradientUnits="userSpaceOnUse"><stop stop-color="#098DFA"></stop><stop offset="1" stop-color="#7000FE"></stop></linearGradient><clipPath id="clip0_1026_614"><rect width="45" height="45" fill="white"></rect></clipPath></defs></svg>