<svg xmlns="http://www.w3.org/2000/svg" width="54" height="54" viewBox="0 0 54 54" fill="none"><g clip-path="url(#clip0_1033_1402)"><path d="M41.2383 1.58203H44.4023V7.91016H41.2383V1.58203Z" fill="#2C3B73"></path><path d="M9.59766 1.58203H12.7617V7.91016H9.59766V1.58203Z" fill="#47568C"></path><path d="M25.418 1.58203H28.582V7.91016H25.418V1.58203Z" fill="#47568C"></path><path d="M27 1.58203H28.582V7.91016H27V1.58203Z" fill="#2C3B73"></path><path d="M22.2539 41.1328H31.7461V54H22.2539V41.1328Z" fill="#61729B"></path><path d="M27 41.1328H31.7461V54H27V41.1328Z" fill="#47568C"></path><path d="M0 6.32812V37.9688L3.16406 41.1328H50.8359L54 37.9688V6.32812H0Z" fill="#47568C"></path><path d="M54 6.32812V37.9688L50.8359 41.1328H27V6.32812H54Z" fill="#2C3B73"></path><path d="M0 37.9688H54V44.4023H0V37.9688Z" fill="#64E1DC"></path><path d="M27 37.9688H54V44.4023H27V37.9688Z" fill="#00C8C8"></path><path d="M50.8359 9.49219V37.9688H43.4848L27 35.5323L17.5078 34.1402L3.16406 26.23V9.49219H50.8359Z" fill="#E0F4FF"></path><path d="M50.8359 9.49219V37.9688H43.4848L27 35.5323V9.49219H50.8359Z" fill="#BBDCFF"></path><path d="M34.9102 12.6562H47.6719V15.8203H34.9102V12.6562Z" fill="#9ABADB"></path><path d="M34.9102 18.9844H47.6719V22.1484H34.9102V18.9844Z" fill="#9ABADB"></path><path d="M41.2383 25.3125H47.6719V28.4766H41.2383V25.3125Z" fill="#9ABADB"></path><path d="M6.43359 0H15.9258V3.16406H6.43359V0Z" fill="#61729B"></path><path d="M22.2539 0H31.7461V3.16406H22.2539V0Z" fill="#61729B"></path><path d="M38.0742 0H47.5664V3.16406H38.0742V0Z" fill="#47568C"></path><path d="M14.3438 22.1484C11.7268 22.1484 9.59766 20.0193 9.59766 17.4023C9.59766 14.7854 11.7268 12.6562 14.3438 12.6562C16.9607 12.6562 19.0898 14.7854 19.0898 17.4023C19.0898 20.0193 16.9607 22.1484 14.3438 22.1484Z" fill="#FFB64C"></path><path d="M27 0H31.7461V3.16406H27V0Z" fill="#47568C"></path><path d="M43.4848 37.9687H3.16406V26.23L8.01562 21.4839L14.3438 27.812L23.8359 18.3198L43.4848 37.9687Z" fill="#9CDD05"></path><path d="M43.4848 37.9687H27V21.4839L43.4848 37.9687Z" fill="#66BB00"></path></g><defs><clipPath id="clip0_1033_1402"><rect width="54" height="54" fill="white"></rect></clipPath></defs></svg>