<svg xmlns="http://www.w3.org/2000/svg" width="54" height="54" viewBox="0 0 54 54" fill="none"><g clip-path="url(#clip0_1033_1437)"><path d="M47.5664 12.6562V38.0742L44.4023 42.1558L36.4922 43.7378H17.5078L9.59766 42.1558V9.49219H44.4023L47.5664 12.6562Z" fill="#E0F4FF"></path><path d="M47.5664 12.6562V38.0742L44.4023 42.1558L36.4922 43.7378H27V9.49219H44.4023L47.5664 12.6562Z" fill="#BBDCFF"></path><path d="M47.5664 45.0669L44.4023 47.5664V54H9.59766V42.1558L17.5078 34.2456L23.8359 40.5737L33.3281 31.0815L44.4023 42.1558L47.5664 45.0669Z" fill="#9CDD05"></path><path d="M47.5664 45.0669L44.4023 47.5664V54H27V37.4097L33.3281 31.0815L44.4023 42.1558L47.5664 45.0669Z" fill="#66BB00"></path><path d="M23.8359 31.7461C21.219 31.7461 19.0898 29.6169 19.0898 27C19.0898 24.3831 21.219 22.2539 23.8359 22.2539C26.4529 22.2539 28.582 24.3831 28.582 27C28.582 29.6169 26.4529 31.7461 23.8359 31.7461Z" fill="#FDBF00"></path><path d="M44.4023 0V12.6562H9.59766C6.11719 12.6562 3.26953 9.80859 3.26953 6.32812C3.26953 4.58789 3.96538 3.00586 5.13625 1.86671C6.27539 0.695846 7.85742 0 9.59766 0H44.4023Z" fill="#BBDCFF"></path><path d="M27 0H44.4023V12.6562H27V0Z" fill="#9ABADB"></path><path d="M44.4023 0C40.9075 0 38.0742 2.83324 38.0742 6.32812C38.0742 9.82301 40.9075 12.6562 44.4023 12.6562V47.5664H50.7305V6.32812C50.7305 2.83324 47.8972 0 44.4023 0Z" fill="#1CADB5"></path></g><defs><clipPath id="clip0_1033_1437"><rect width="54" height="54" fill="white"></rect></clipPath></defs></svg>