<svg xmlns="http://www.w3.org/2000/svg" width="45" height="45" viewBox="0 0 45 45" fill="none"><g clip-path="url(#clip0_1026_642)"><path fill-rule="evenodd" clip-rule="evenodd" d="M0 24.2578C0 28.1411 3.14801 31.2891 7.03125 31.2891H10.5469V17.2266H7.03125C3.14801 17.2266 0 20.3746 0 24.2578ZM7.03125 27.7734C5.08963 27.7734 3.51562 26.1994 3.51562 24.2578C3.51562 22.3162 5.08963 20.7422 7.03125 20.7422V27.7734Z" fill="url(#paint0_linear_1026_642)"></path><path fill-rule="evenodd" clip-rule="evenodd" d="M34.4531 31.2891H37.9687C41.852 31.2891 45 28.1411 45 24.2578C45 20.3746 41.852 17.2266 37.9687 17.2266H34.4531V31.2891ZM37.9687 27.7734V20.7422C39.9104 20.7422 41.4844 22.3162 41.4844 24.2578C41.4844 26.1994 39.9104 27.7734 37.9687 27.7734Z" fill="url(#paint1_linear_1026_642)"></path><path fill-rule="evenodd" clip-rule="evenodd" d="M3.51562 18.9844V19.2844H7.03125V18.9844C7.03125 10.2471 13.7627 3.51562 22.5 3.51562C31.2373 3.51562 37.9687 10.2471 37.9687 18.9844V19.2844H41.4844V18.9844C41.4844 8.30543 33.1789 0 22.5 0C11.8211 0 3.51562 8.30543 3.51562 18.9844Z" fill="url(#paint2_linear_1026_642)"></path><path fill-rule="evenodd" clip-rule="evenodd" d="M17.2266 39.7266C17.2266 42.639 19.5876 45 22.5 45C25.4125 45 27.7734 42.6389 27.7734 39.7266C27.7734 36.8142 25.4125 34.4531 22.5 34.4531C19.5876 34.4531 17.2266 36.8142 17.2266 39.7266ZM22.5 41.4844C21.5292 41.4844 20.7422 40.6973 20.7422 39.7266C20.7422 38.7558 21.5292 37.9687 22.5 37.9687C23.4708 37.9687 24.2578 38.7557 24.2578 39.7266C24.2578 40.6974 23.4708 41.4844 22.5 41.4844Z" fill="url(#paint3_linear_1026_642)"></path><path fill-rule="evenodd" clip-rule="evenodd" d="M32.6953 37.9687H26.0156V41.4844H32.6953C37.5494 41.4844 41.4844 37.5494 41.4844 32.6953V29.2312H37.9688V32.6953C37.9688 35.6078 35.6078 37.9687 32.6953 37.9687Z" fill="url(#paint4_linear_1026_642)"></path><path fill-rule="evenodd" clip-rule="evenodd" d="M22.5 32.0172L26.7437 27.7734H31.2891V13.7109H13.7109V27.7734H18.2563L22.5 32.0172ZM22.5 27.0453L19.7125 24.2578H17.2266V17.2266H27.7734V24.2578H25.2875L22.5 27.0453Z" fill="url(#paint5_linear_1026_642)"></path></g><defs><linearGradient id="paint0_linear_1026_642" x1="22.5" y1="0" x2="22.5" y2="45" gradientUnits="userSpaceOnUse"><stop stop-color="#098DFA"></stop><stop offset="1" stop-color="#7000FE"></stop></linearGradient><linearGradient id="paint1_linear_1026_642" x1="22.5" y1="0" x2="22.5" y2="45" gradientUnits="userSpaceOnUse"><stop stop-color="#098DFA"></stop><stop offset="1" stop-color="#7000FE"></stop></linearGradient><linearGradient id="paint2_linear_1026_642" x1="22.5" y1="0" x2="22.5" y2="45" gradientUnits="userSpaceOnUse"><stop stop-color="#098DFA"></stop><stop offset="1" stop-color="#7000FE"></stop></linearGradient><linearGradient id="paint3_linear_1026_642" x1="22.5" y1="0" x2="22.5" y2="45" gradientUnits="userSpaceOnUse"><stop stop-color="#098DFA"></stop><stop offset="1" stop-color="#7000FE"></stop></linearGradient><linearGradient id="paint4_linear_1026_642" x1="22.5" y1="0" x2="22.5" y2="45" gradientUnits="userSpaceOnUse"><stop stop-color="#098DFA"></stop><stop offset="1" stop-color="#7000FE"></stop></linearGradient><linearGradient id="paint5_linear_1026_642" x1="22.5" y1="0" x2="22.5" y2="45" gradientUnits="userSpaceOnUse"><stop stop-color="#098DFA"></stop><stop offset="1" stop-color="#7000FE"></stop></linearGradient><clipPath id="clip0_1026_642"><rect width="45" height="45" fill="white"></rect></clipPath></defs></svg>