<svg xmlns="http://www.w3.org/2000/svg" width="54" height="54" viewBox="0 0 54 54" fill="none"><g clip-path="url(#clip0_1033_1384)"><path d="M34.9102 0V9.70312L31.7461 12.8672H23.0449L19.0898 9.70312V0H34.9102Z" fill="#FF641A"></path><path d="M31.7461 12.8672H27V0H34.9102V9.70312L31.7461 12.8672Z" fill="#F03800"></path><path d="M41.6812 23.4038L28.772 49.2539H25.2281L12.3188 23.4038L13.458 22.6441C13.521 22.581 19.0899 18.7841 19.0899 14.4492V9.70312H34.9102V14.4492C34.9102 18.7841 40.479 22.581 40.5424 22.6441L41.6812 23.4038Z" fill="#E0F4FF"></path><path d="M41.6812 23.4038L28.772 49.2539H27V9.70312H34.9102V14.4492C34.9102 18.7841 40.479 22.581 40.5424 22.6441L41.6812 23.4038Z" fill="#BBDCFF"></path><path d="M27 22.3594C24.3736 22.3594 22.2539 24.479 22.2539 27.1055C22.2539 29.7319 24.3736 31.8516 27 31.8516C29.6264 31.8516 31.7461 29.7319 31.7461 27.1055C31.7461 24.479 29.6264 22.3594 27 22.3594Z" fill="#BBDCFF"></path><path d="M27 31.8516V22.3594C29.6264 22.3594 31.7461 24.479 31.7461 27.1055C31.7461 29.7319 29.6264 31.8516 27 31.8516Z" fill="#9ABADB"></path><path d="M25.418 30.2695H28.582V49.2539H25.418V30.2695Z" fill="#BBDCFF"></path><path d="M27 30.2695H28.582V49.2539H27V30.2695Z" fill="#9ABADB"></path><path d="M50.4771 30.4911C48.8321 42.103 38.7388 50.8359 27 50.8359C15.2613 50.8359 5.16801 42.103 3.52295 30.4911L6.65529 30.0479C8.07912 40.0781 16.8433 47.6718 27 47.6718C37.1568 47.6718 45.921 40.0781 47.3448 30.0479L50.4771 30.4911Z" fill="#61729B"></path><path d="M50.4771 30.4911C48.832 42.103 38.7388 50.8359 27 50.8359V47.6718C37.1567 47.6718 45.9209 40.0781 47.3448 30.0479L50.4771 30.4911Z" fill="#47568C"></path><path d="M8.01562 47.6719H45.9844V50.8359H8.01562V47.6719Z" fill="#61729B"></path><path d="M27 47.6719H45.9844V50.8359H27V47.6719Z" fill="#47568C"></path><path d="M54 31.8516H44.4023V22.3594H54V31.8516Z" fill="#00C8C8"></path><path d="M49.1484 54C46.5315 54 44.4023 51.8708 44.4023 49.2539C44.4023 46.637 46.5315 44.5078 49.1484 44.5078C51.7654 44.5078 54 46.637 54 49.2539C54 51.8708 51.7654 54 49.1484 54Z" fill="#00C8C8"></path><path d="M4.85156 54C2.23462 54 0 51.8708 0 49.2539C0 46.637 2.23462 44.5078 4.85156 44.5078C7.46851 44.5078 9.59766 46.637 9.59766 49.2539C9.59766 51.8708 7.46851 54 4.85156 54Z" fill="#64E1DC"></path><path d="M9.59766 31.8516H0V22.3594H9.59766V31.8516Z" fill="#64E1DC"></path></g><defs><clipPath id="clip0_1033_1384"><rect width="54" height="54" fill="white"></rect></clipPath></defs></svg>