<svg xmlns="http://www.w3.org/2000/svg" width="26" height="26" viewBox="0 0 26 26" fill="none"><g clip-path="url(#clip0_1026_778)"><path fill-rule="evenodd" clip-rule="evenodd" d="M0 12.7954C0 14.4782 1.36417 15.8423 3.04687 15.8423H4.0625V13.811H3.04687C2.48596 13.811 2.03125 13.3563 2.03125 12.7954V3.04541C2.03125 2.48452 2.48598 2.02979 3.04687 2.02979H22.9531C23.514 2.02979 23.9688 2.48452 23.9688 3.04541V12.7954C23.9688 13.3563 23.514 13.811 22.9531 13.811H21.9375V15.8423H22.9531C24.6358 15.8423 26 14.4782 26 12.7954V3.04541C26 1.36269 24.6358 -0.00146484 22.9531 -0.00146484H3.04687C1.36415 -0.00146484 0 1.36269 0 3.04541V12.7954Z" fill="url(#paint0_linear_1026_778)"></path><path fill-rule="evenodd" clip-rule="evenodd" d="M11.3139 6.7945L2.30761 0.654913L1.16347 2.33328L10.1788 8.47899L10.1831 8.4819C11.8889 9.61908 14.1111 9.61908 15.8168 8.4819L15.8212 8.47899L24.8365 2.33328L23.6924 0.654913L14.686 6.79452C13.6645 7.47321 12.3355 7.47321 11.3139 6.7945Z" fill="url(#paint1_linear_1026_778)"></path><path fill-rule="evenodd" clip-rule="evenodd" d="M9.95312 18.8892C9.95312 20.5698 11.3193 21.936 13 21.936C14.6807 21.936 16.0469 20.5698 16.0469 18.8892C16.0469 17.2085 14.6807 15.8423 13 15.8423C11.3193 15.8423 9.95312 17.2085 9.95312 18.8892ZM13 19.9048C12.4411 19.9048 11.9844 19.448 11.9844 18.8892C11.9844 18.3303 12.4411 17.8735 13 17.8735C13.5589 17.8735 14.0156 18.3303 14.0156 18.8892C14.0156 19.448 13.5589 19.9048 13 19.9048Z" fill="url(#paint2_linear_1026_778)"></path><path fill-rule="evenodd" clip-rule="evenodd" d="M13 23.9673C10.1954 23.9673 7.92187 21.6937 7.92187 18.8892C7.92187 16.0846 10.1954 13.811 13 13.811C15.8046 13.811 18.0781 16.0846 18.0781 18.8892C18.0781 19.4501 17.6234 19.9048 17.0625 19.9048C16.5016 19.9048 16.0469 19.4501 16.0469 18.8892H14.0156C14.0156 20.5719 15.3798 21.936 17.0625 21.936C18.7452 21.936 20.1094 20.5719 20.1094 18.8892C20.1094 14.9628 16.9264 11.7798 13 11.7798C9.07361 11.7798 5.89062 14.9628 5.89062 18.8892C5.89062 22.8155 9.07361 25.9985 13 25.9985C13.8299 25.9985 14.6287 25.8559 15.3718 25.593L14.6943 23.678C14.1657 23.8651 13.5959 23.9673 13 23.9673Z" fill="url(#paint3_linear_1026_778)"></path></g><defs><linearGradient id="paint0_linear_1026_778" x1="13" y1="-0.00146484" x2="13" y2="25.9985" gradientUnits="userSpaceOnUse"><stop stop-color="#098DFA"></stop><stop offset="1" stop-color="#7000FE"></stop></linearGradient><linearGradient id="paint1_linear_1026_778" x1="13" y1="-0.00146484" x2="13" y2="25.9985" gradientUnits="userSpaceOnUse"><stop stop-color="#098DFA"></stop><stop offset="1" stop-color="#7000FE"></stop></linearGradient><linearGradient id="paint2_linear_1026_778" x1="13" y1="-0.00146484" x2="13" y2="25.9985" gradientUnits="userSpaceOnUse"><stop stop-color="#098DFA"></stop><stop offset="1" stop-color="#7000FE"></stop></linearGradient><linearGradient id="paint3_linear_1026_778" x1="13" y1="-0.00146484" x2="13" y2="25.9985" gradientUnits="userSpaceOnUse"><stop stop-color="#098DFA"></stop><stop offset="1" stop-color="#7000FE"></stop></linearGradient><clipPath id="clip0_1026_778"><rect width="26" height="26" fill="white"></rect></clipPath></defs></svg>