<svg xmlns="http://www.w3.org/2000/svg" width="54" height="54" viewBox="0 0 54 54" fill="none"><g clip-path="url(#clip0_1033_1369)"><path d="M44.4023 19.0898H54V25.418H44.4023V19.0898Z" fill="#2C3B73"></path><path d="M44.4023 6.43359H54V12.7617H44.4023V6.43359Z" fill="#47568C"></path><path d="M0 19.0898H9.59766V25.418H0V19.0898Z" fill="#47568C"></path><path d="M0 6.43359H9.59766V12.7617H0V6.43359Z" fill="#61729B"></path><path d="M50.7305 38.0742V45.9844C50.7305 48.6219 48.5622 50.7305 45.9844 50.7305C43.358 50.7305 38.0742 48.6104 38.0742 45.9844V38.0742H50.7305Z" fill="#BBDCFF"></path><path d="M47.5664 15.9258V28.582H6.43359V15.9258L9.59766 12.7617H44.4023L47.5664 15.9258Z" fill="#FF641A"></path><path d="M47.5664 15.9258V28.582H27V12.7617H44.4023L47.5664 15.9258Z" fill="#F03800"></path><path d="M41.2383 12.7617V35.8277L33.3281 43.7378H17.5078L12.7617 35.8277V12.7617H41.2383Z" fill="#E0F4FF"></path><path d="M41.2383 12.7617V35.8277L33.3281 43.7378H27V12.7617H41.2383Z" fill="#BBDCFF"></path><path d="M45.9844 50.7305H19.0898C15.6094 50.7305 12.7617 47.8828 12.7617 44.4023V35.8276L17.5078 31.0815L23.8359 37.4097L33.3281 27.9175L41.2383 35.8276V45.9844C41.2383 48.6104 43.358 50.7305 45.9844 50.7305Z" fill="#9CDD05"></path><path d="M23.8359 31.7461C21.219 31.7461 19.0898 29.6169 19.0898 27C19.0898 24.3831 21.219 22.2539 23.8359 22.2539C26.4529 22.2539 28.582 24.3831 28.582 27C28.582 29.6169 26.4529 31.7461 23.8359 31.7461Z" fill="#FDBF00"></path><path d="M45.9844 50.7305H27V34.2456L33.3281 27.9175L41.2383 35.8276V45.9844C41.2383 48.6104 43.358 50.7305 45.9844 50.7305Z" fill="#66BB00"></path><path d="M6.43359 3.26953H47.5664V15.9258H6.43359V3.26953Z" fill="#64E1DC"></path><path d="M27 3.26953H47.5664V15.9258H27V3.26953Z" fill="#00C8C8"></path></g><defs><clipPath id="clip0_1033_1369"><rect width="54" height="54" fill="white"></rect></clipPath></defs></svg>