<svg xmlns="http://www.w3.org/2000/svg" width="45" height="45" viewBox="0 0 45 45" fill="none"><g clip-path="url(#clip0_1026_667)"><path fill-rule="evenodd" clip-rule="evenodd" d="M6.67969 22.5C6.67969 31.2373 13.7627 38.3203 22.5 38.3203C31.2373 38.3203 38.3203 31.2373 38.3203 22.5C38.3203 13.7626 31.2373 6.67969 22.5 6.67969C13.7627 6.67969 6.67969 13.7626 6.67969 22.5ZM22.5 34.8047C15.7044 34.8047 10.1953 29.2956 10.1953 22.5C10.1953 15.7043 15.7044 10.1953 22.5 10.1953C29.2956 10.1953 34.8047 15.7043 34.8047 22.5C34.8047 29.2956 29.2956 34.8047 22.5 34.8047Z" fill="url(#paint0_linear_1026_667)"></path><path fill-rule="evenodd" clip-rule="evenodd" d="M24.2578 21.7719L29.0164 26.5305L26.5305 29.0164L20.7422 23.2281V13.7109H24.2578V21.7719Z" fill="url(#paint1_linear_1026_667)"></path><path fill-rule="evenodd" clip-rule="evenodd" d="M6.32812 38.638C10.4327 42.5767 16.0073 45 22.1484 45C34.7691 45 45 34.769 45 22.1484V20.3906H41.4844V22.1484C41.4844 32.8274 32.8274 41.4844 22.1484 41.4844C15.4245 41.4844 9.50117 38.0538 6.0341 32.8393L2.8125 27.994V41.4844H6.32812V38.638Z" fill="url(#paint2_linear_1026_667)"></path><path fill-rule="evenodd" clip-rule="evenodd" d="M22.8516 0C10.2309 0 0 10.231 0 22.8516H3.51562C3.51562 12.1726 12.1726 3.51563 22.8516 3.51563C29.5755 3.51563 35.4988 6.94616 38.9659 12.1607L42.1875 17.006V3.51563H38.6719V6.36201C34.5673 2.42327 28.9927 0 22.8516 0Z" fill="url(#paint3_linear_1026_667)"></path></g><defs><linearGradient id="paint0_linear_1026_667" x1="22.5" y1="0" x2="22.5" y2="45" gradientUnits="userSpaceOnUse"><stop stop-color="#098DFA"></stop><stop offset="1" stop-color="#7000FE"></stop></linearGradient><linearGradient id="paint1_linear_1026_667" x1="22.5" y1="0" x2="22.5" y2="45" gradientUnits="userSpaceOnUse"><stop stop-color="#098DFA"></stop><stop offset="1" stop-color="#7000FE"></stop></linearGradient><linearGradient id="paint2_linear_1026_667" x1="22.5" y1="0" x2="22.5" y2="45" gradientUnits="userSpaceOnUse"><stop stop-color="#098DFA"></stop><stop offset="1" stop-color="#7000FE"></stop></linearGradient><linearGradient id="paint3_linear_1026_667" x1="22.5" y1="0" x2="22.5" y2="45" gradientUnits="userSpaceOnUse"><stop stop-color="#098DFA"></stop><stop offset="1" stop-color="#7000FE"></stop></linearGradient><clipPath id="clip0_1026_667"><rect width="45" height="45" fill="white"></rect></clipPath></defs></svg>