<svg xmlns="http://www.w3.org/2000/svg" width="54" height="54" viewBox="0 0 54 54" fill="none"><g clip-path="url(#clip0_1031_1035)"><path d="M47.6718 0H28.6816C27.8079 0 27.0996 0.708328 27.0996 1.58203V8.33203C27.0996 9.20573 27.8079 9.91406 28.6816 9.91406H47.6718C48.5455 9.91406 49.2538 9.20573 49.2538 8.33203V1.58203C49.2538 0.708328 48.5455 0 47.6718 0Z" fill="#002C3C"></path><path fill-rule="evenodd" clip-rule="evenodd" d="M42.9258 3.16406H46.0898V6.75H42.9258V3.16406Z" fill="#00ABF0"></path><path fill-rule="evenodd" clip-rule="evenodd" d="M36.5947 3.16406H39.7588V6.75H36.5947V3.16406Z" fill="#00CB75"></path><path fill-rule="evenodd" clip-rule="evenodd" d="M30.2637 3.16406H33.4277V6.75H30.2637V3.16406Z" fill="#EC385F"></path><path d="M4.74609 54C3.87239 54 3.16406 53.2917 3.16406 52.418V29.0039C3.16406 28.1302 3.87239 27.4219 4.74609 27.4219C5.6198 27.4219 6.32812 28.1302 6.32812 29.0039V52.418C6.32812 53.2917 5.6198 54 4.74609 54Z" fill="#007A9F"></path><path d="M49.2539 54C48.3802 54 47.6719 53.2917 47.6719 52.418V29.0039C47.6719 28.1302 48.3802 27.4219 49.2539 27.4219C50.1276 27.4219 50.8359 28.1302 50.8359 29.0039V52.418C50.8359 53.2917 50.1276 54 49.2539 54Z" fill="#00607F"></path><path d="M49.1484 30.5859H47.6719L27.6979 25.6894L6.32812 30.5859H4.85156C2.17645 30.5859 0 28.4095 0 25.7344V11.6016C0 8.92645 2.17645 6.75 4.85156 6.75H49.1484C51.8235 6.75 54 8.92645 54 11.6016V25.7344C54 28.4095 51.8235 30.5859 49.1484 30.5859Z" fill="#00ABF0"></path><path d="M49.1484 6.75H27V25.8493L27.6979 25.6894L47.6719 30.5859H49.1484C51.8235 30.5859 54 28.4095 54 25.7344V11.6016C54 8.92645 51.8235 6.75 49.1484 6.75Z" fill="#4083DB"></path><path d="M6.9082 54H2.58398C1.71028 54 1.00195 53.2917 1.00195 52.418C1.00195 51.5443 1.71028 50.8359 2.58398 50.8359H6.9082C7.78191 50.8359 8.49023 51.5443 8.49023 52.418C8.49023 53.2917 7.78191 54 6.9082 54Z" fill="#00607F"></path><path d="M51.416 54H47.0918C46.2181 54 45.5098 53.2917 45.5098 52.418C45.5098 51.5443 46.2181 50.8359 47.0918 50.8359H51.416C52.2897 50.8359 52.998 51.5443 52.998 52.418C52.998 53.2917 52.2897 54 51.416 54Z" fill="#002C3C"></path><path d="M47.6719 30.5859H6.32812V21.1992C6.32812 20.3255 7.03645 19.6172 7.91016 19.6172H12.5508L26.6477 23.3669L41.4492 19.6172H46.0898C46.9635 19.6172 47.6719 20.3255 47.6719 21.1992V30.5859Z" fill="#00607F"></path><path d="M46.0898 19.6172H41.4492L27 23.2777V30.5859H47.6719V21.1992C47.6719 20.3255 46.9635 19.6172 46.0898 19.6172Z" fill="#002C3C"></path><path d="M9.80859 16.4531H8.64844C7.77473 16.4531 7.06641 15.7448 7.06641 14.8711C7.06641 13.9974 7.77473 13.2891 8.64844 13.2891H9.80859C10.6823 13.2891 11.3906 13.9974 11.3906 14.8711C11.3906 15.7448 10.6823 16.4531 9.80859 16.4531Z" fill="#FFD737"></path><path d="M17.2969 16.4531H16.1367C15.263 16.4531 14.5547 15.7448 14.5547 14.8711C14.5547 13.9974 15.263 13.2891 16.1367 13.2891H17.2969C18.1706 13.2891 18.8789 13.9974 18.8789 14.8711C18.8789 15.7448 18.1706 16.4531 17.2969 16.4531Z" fill="#BEE75E"></path><path d="M41.4492 19.6172H12.5508V48.3181L31.1716 42.2167L41.4492 30.8355V19.6172Z" fill="#F9F9F9"></path><path d="M27 19.6172V43.5836L31.1716 42.2167L41.4492 30.8355V19.6172H27Z" fill="#E6E6E6"></path><path d="M14.1328 50.9414H39.8672C40.7409 50.9414 41.4492 50.2331 41.4492 49.3593V30.8354L31.8042 38.26L28.0929 34.7153C27.4671 34.1178 26.4775 34.1339 25.8714 34.7511L12.5508 48.3181V49.3593C12.5508 50.2331 13.2591 50.9414 14.1328 50.9414Z" fill="#BEE75E"></path><path d="M31.8042 38.26L28.0929 34.7153C27.7866 34.4229 27.3931 34.2774 27.0001 34.2775V50.9414H39.8673C40.741 50.9414 41.4493 50.2331 41.4493 49.3593V30.8354L31.8042 38.26Z" fill="#00CB75"></path></g><defs><clipPath id="clip0_1031_1035"><rect width="54" height="54" fill="white"></rect></clipPath></defs></svg>