<svg xmlns="http://www.w3.org/2000/svg" width="54" height="54" viewBox="0 0 54 54" fill="none"><g clip-path="url(#clip0_1033_1426)"><path d="M22.2086 31.4732L9.52762 19.4556C3.88174 22.3448 0 28.2091 0 34.9751C0 44.5897 7.82199 52.4113 17.4365 52.4113C20.945 52.4113 24.2092 51.3607 26.9473 49.5702L22.2086 31.4732Z" fill="#64E1DC"></path><path d="M44.3834 19.124C44.3834 19.2505 44.3834 19.3457 44.3517 19.4409L26.9473 26.7322L9.54247 19.4409C9.51074 19.3457 9.51074 19.2505 9.51074 19.124C9.51074 9.51773 17.3414 1.6875 26.9473 1.6875C36.5532 1.6875 44.3834 9.51773 44.3834 19.124Z" fill="#FF641A"></path><path d="M44.3834 19.124C44.3834 19.2505 44.3834 19.3457 44.3517 19.4409L26.9473 26.7322V1.6875C36.5532 1.6875 44.3834 9.51773 44.3834 19.124Z" fill="#F03800"></path><path d="M44.3669 19.4556L31.6859 31.4732L26.9473 49.5702C29.6853 51.3607 32.9491 52.4113 36.458 52.4113C46.0725 52.4113 54 44.5897 54 34.9751C54 28.2091 50.0128 22.3448 44.3669 19.4556Z" fill="#FFB64C"></path><path d="M36.458 17.5386C32.9491 17.5386 29.6853 18.5896 26.9473 20.3801L34.8562 34.6435C40.4085 31.802 44.2413 26.0803 44.3669 19.4556C41.9897 18.239 39.3065 17.5386 36.458 17.5386Z" fill="#FF9100"></path><path d="M17.4365 17.5386C14.588 17.5386 11.9048 18.239 9.52759 19.4556C9.65324 26.0803 13.4855 31.802 19.0383 34.6435L26.9472 20.3801C24.2092 18.5896 20.945 17.5386 17.4365 17.5386Z" fill="#979FEF"></path><path d="M34.8727 34.9754C34.8727 41.0939 31.7025 46.4518 26.9473 49.5585C22.1917 46.4518 19.0215 41.0939 19.0215 34.9754C19.0215 34.8485 19.0215 34.7534 19.0532 34.6582H34.841C34.8727 34.7534 34.8727 34.8485 34.8727 34.9754Z" fill="#C3EA21"></path><path d="M34.8409 34.6582C34.8727 34.7534 34.8727 34.8485 34.8727 34.9754C34.8727 41.0939 31.7024 46.4518 26.9473 49.5585V34.6582H34.8409Z" fill="#9CDD05"></path><path d="M34.841 34.6579C32.4634 35.8625 29.8007 36.56 26.9473 36.56C24.0939 36.56 21.4308 35.8625 19.0532 34.6579C19.1484 28.6664 22.2552 23.4354 26.9473 20.3916C31.639 23.4354 34.7462 28.6664 34.841 34.6579Z" fill="#E0F4FF"></path><path d="M34.8409 34.6579C32.4634 35.8625 29.8007 36.56 26.9473 36.56V20.3916C31.639 23.4354 34.7462 28.6664 34.8409 34.6579Z" fill="#BBDCFF"></path></g><defs><clipPath id="clip0_1033_1426"><rect width="54" height="54" fill="white"></rect></clipPath></defs></svg>