<svg width="90" height="90" viewBox="0 0 90 90" fill="none" xmlns="http://www.w3.org/2000/svg">
<g filter="url(#filter0_d_421_25)">
<rect width="80" height="80" rx="16" fill="white" shape-rendering="crispEdges"/>
<g clip-path="url(#clip0_421_25)">
<g clip-path="url(#clip1_421_25)">
<g clip-path="url(#clip2_421_25)">
<path d="M39.6414 22.1055C39.5359 22.1617 39.1281 22.7102 38.6641 23.4133C38.0523 24.3484 37.8273 24.6367 37.6516 24.707C37.532 24.7562 36.8781 24.9461 36.2031 25.1359C34.7687 25.5297 34.5859 25.6492 34.5859 26.1625C34.5859 26.4508 34.6422 26.5352 35.493 27.5758C35.9922 28.1805 36.4281 28.743 36.4492 28.8203C36.4773 28.9047 36.4562 29.6078 36.4141 30.4023C36.3297 31.9281 36.3438 32.0336 36.6531 32.2797C36.9203 32.4977 37.2648 32.4344 38.5586 31.9141C39.2336 31.6398 39.8875 31.4219 40 31.4219C40.1125 31.4219 40.7664 31.6398 41.4414 31.9141C42.7352 32.4344 43.0797 32.4977 43.3469 32.2797C43.6562 32.0336 43.6703 31.9281 43.5859 30.4023C43.5437 29.6078 43.5227 28.9047 43.5508 28.8203C43.5719 28.743 44.0078 28.1805 44.507 27.5758C45.3578 26.5352 45.4141 26.4508 45.4141 26.1625C45.4141 25.6422 45.2383 25.5367 43.6914 25.1008C42.9602 24.8969 42.2992 24.7 42.2359 24.6648C42.1727 24.6297 41.7648 24.0602 41.3289 23.3992C40.5414 22.2039 40.3445 22 39.9859 22C39.8945 22.007 39.7398 22.0492 39.6414 22.1055Z" fill="#D12026"/>
<path d="M27.3438 22.7665C27.0484 22.9212 26.7812 23.3501 26.7812 23.6806C26.7812 23.9829 27.0203 24.4891 27.2242 24.6157C27.3086 24.672 28.0258 25.0235 28.8203 25.3962C29.9453 25.9306 30.332 26.0782 30.5641 26.0782C31.5555 26.0782 32.0688 24.8759 31.3586 24.2149C31.2531 24.1095 30.5008 23.7087 29.6922 23.329C28.0891 22.5696 27.8219 22.5063 27.3438 22.7665Z" fill="#D12026"/>
<path d="M50.2318 23.343C49.4232 23.7227 48.685 24.1234 48.6006 24.2148C48.3896 24.4539 48.2701 24.8828 48.3264 25.1922C48.4178 25.6703 48.917 26.0781 49.4303 26.0781C49.6693 26.0781 50.1967 25.8531 51.7576 25.1008C52.9318 24.5313 53.0865 24.3836 53.1287 23.8C53.185 23.125 52.735 22.6328 52.067 22.6328C51.7576 22.6398 51.4904 22.7383 50.2318 23.343Z" fill="#D12026"/>
<path d="M28.7852 30.1632C27.9766 30.5499 27.2383 30.9366 27.1398 31.021C26.9289 31.2179 26.7812 31.5624 26.7812 31.8577C26.7812 32.1742 27.0484 32.6171 27.3367 32.7859C27.7938 33.0531 28.0258 32.9968 29.6641 32.2304C30.5008 31.8366 31.2531 31.4429 31.3586 31.3304C32.0687 30.6202 31.5484 29.446 30.5289 29.4601C30.3391 29.4601 29.8187 29.671 28.7852 30.1632Z" fill="#D12026"/>
<path d="M48.9583 29.5872C48.3888 29.8544 48.1638 30.438 48.4239 31.0216C48.5013 31.1973 48.6489 31.3942 48.7474 31.4575C48.8458 31.5278 49.5559 31.8794 50.3224 32.252C51.4333 32.7864 51.7708 32.92 52.0309 32.92C52.8817 32.934 53.402 32.0621 53.0153 31.2887C52.8677 31.0075 52.7974 30.9653 51.3349 30.2481C49.6684 29.4395 49.4224 29.3692 48.9583 29.5872Z" fill="#D12026"/>
<path d="M36.0898 37.6373C35.9703 37.6935 35.7804 37.8553 35.6679 38.0029L35.464 38.2631L35.4429 48.0014C35.4289 57.0084 35.4359 57.7537 35.5414 57.8732C35.6539 57.9928 35.8789 57.9998 40.0062 57.9998H44.3515L44.457 57.8451C44.5554 57.7045 44.5695 56.6639 44.5695 48.0857C44.5695 38.8748 44.5624 38.474 44.4359 38.1998C44.3656 38.0381 44.1968 37.8342 44.0703 37.7428L43.8312 37.574L40.0695 37.56C37.0109 37.5459 36.2656 37.56 36.0898 37.6373Z" fill="#0C0C0C"/>
<path d="M47.3547 44.4508C47.207 44.5352 47.0242 44.718 46.9539 44.8516C46.8273 45.0836 46.8203 45.4 46.8203 51.4398C46.8203 57.107 46.8344 57.7891 46.9328 57.8875C47.0313 57.9859 47.5234 58 51.3273 58C54.1539 58 55.6656 57.9719 55.757 57.9297C55.8906 57.8594 55.8906 57.7117 55.8906 51.4891C55.8906 44.4438 55.9117 44.8164 55.4406 44.4789L55.2227 44.3242L51.4258 44.3102L47.6289 44.2891L47.3547 44.4508Z" fill="#0C0C0C"/>
<path d="M24.8125 49.2881C24.7141 49.3303 24.5594 49.4287 24.475 49.5131C24.1024 49.8576 24.1094 49.7592 24.1094 53.9498C24.1094 57.7396 24.1164 57.8592 24.243 57.9295C24.3344 57.9717 25.8461 57.9998 28.6727 57.9998C32.4766 57.9998 32.9688 57.9857 33.0672 57.8873C33.1656 57.7889 33.1797 57.3318 33.1797 53.8936V50.0053L33.018 49.7732C32.9336 49.6467 32.7719 49.4709 32.6664 49.3936C32.4695 49.2459 32.3992 49.2459 28.7289 49.2318C26.3383 49.2248 24.925 49.2459 24.8125 49.2881Z" fill="#0C0C0C"/>
</g>
</g>
</g>
</g>
<defs>
<filter id="filter0_d_421_25" x="0" y="0" width="90" height="90" filterUnits="userSpaceOnUse" color-interpolation-filters="sRGB">
<feFlood flood-opacity="0" result="BackgroundImageFix"/>
<feColorMatrix in="SourceAlpha" type="matrix" values="0 0 0 0 0 0 0 0 0 0 0 0 0 0 0 0 0 0 127 0" result="hardAlpha"/>
<feOffset dx="10" dy="10"/>
<feComposite in2="hardAlpha" operator="out"/>
<feColorMatrix type="matrix" values="0 0 0 0 1 0 0 0 0 1 0 0 0 0 1 0 0 0 0.07 0"/>
<feBlend mode="normal" in2="BackgroundImageFix" result="effect1_dropShadow_421_25"/>
<feBlend mode="normal" in="SourceGraphic" in2="effect1_dropShadow_421_25" result="shape"/>
</filter>
<clipPath id="clip0_421_25">
<rect width="36" height="36" fill="white" transform="translate(22 22)"/>
</clipPath>
<clipPath id="clip1_421_25">
<rect width="36" height="36" fill="white" transform="translate(22 22)"/>
</clipPath>
<clipPath id="clip2_421_25">
<rect width="36" height="36" fill="white" transform="translate(22 22)"/>
</clipPath>
</defs>
</svg>
