<svg width="90" height="90" viewBox="0 0 90 90" fill="none" xmlns="http://www.w3.org/2000/svg">
<g filter="url(#filter0_d_421_37)">
<rect width="80" height="80" rx="16" fill="white" shape-rendering="crispEdges"/>
<g clip-path="url(#clip0_421_37)">
<g clip-path="url(#clip1_421_37)">
<g clip-path="url(#clip2_421_37)">
<mask id="mask0_421_37" style="mask-type:luminance" maskUnits="userSpaceOnUse" x="22" y="22" width="36" height="36">
<path d="M58 22H22V58H58V22Z" fill="white"/>
</mask>
<g mask="url(#mask0_421_37)">
<path d="M39.2441 25.284V26.8351H40.0008H40.7574V25.284V23.7329H40.0008H39.2441V25.284Z" fill="#D12026"/>
<path d="M26.9476 26.9862L26.418 27.5158L27.5151 28.6129L28.6122 29.71L29.157 29.1653L29.7093 28.6129L28.6349 27.5385C28.0371 26.9408 27.5378 26.4565 27.5151 26.4565C27.4924 26.4565 27.2351 26.6987 26.9476 26.9862Z" fill="#D12026"/>
<path d="M51.3654 27.5385L50.291 28.6129L50.8434 29.1653L51.3881 29.71L52.4852 28.6129L53.5824 27.5158L53.0527 26.9862C52.7652 26.6987 52.5079 26.4565 52.4852 26.4565C52.4625 26.4565 51.9632 26.9408 51.3654 27.5385Z" fill="#D12026"/>
<path d="M37.8816 29.294C32.1086 29.9977 26.6533 33.5387 22.4994 39.2967L22 39.9928L22.575 40.8099C24.9509 44.1693 27.6823 46.6889 30.8072 48.4216C34.9535 50.7142 39.69 51.3876 44.1995 50.3132C46.9914 49.6549 49.7229 48.2703 52.303 46.2274C53.2488 45.4783 55.3749 43.3824 56.1769 42.4064C56.4796 42.0432 57.0092 41.3547 57.3573 40.8704L58.0004 39.9928L57.5388 39.3345C56.1769 37.3824 53.8995 34.9385 52.2576 33.6749C48.9738 31.1326 45.6749 29.7178 42.0734 29.294C40.9157 29.1578 38.9939 29.1578 37.8816 29.294ZM41.4 32.3205C42.8603 32.5778 44.2071 33.2663 45.3496 34.3559C46.4694 35.4227 47.1352 36.5274 47.5513 38.018C47.7329 38.6762 47.7556 38.8729 47.7481 40.0003C47.7481 41.0672 47.7254 41.3471 47.574 41.8919C47.1655 43.4051 46.5829 44.4039 45.4479 45.5237C43.9271 47.0294 42.1036 47.7936 40.0002 47.7936C36.4894 47.7936 33.41 45.4253 32.4566 41.9978C32.2675 41.3169 32.2448 41.1277 32.2448 40.0003C32.2448 38.6384 32.3582 38.0331 32.8122 36.9511C33.5386 35.2109 35.1426 33.6068 36.8905 32.8426C37.4504 32.6005 38.3734 32.3357 38.9031 32.26C39.463 32.1843 40.7947 32.2146 41.4 32.3205Z" fill="#0C0C0C"/>
<path d="M39.4091 35.3924C37.5553 35.6269 35.974 37.0418 35.4973 38.8729C35.3233 39.5387 35.3763 40.8325 35.6108 41.4908C36.0572 42.7695 37.1392 43.8515 38.4709 44.366C39.1443 44.6232 40.3397 44.6913 41.0585 44.5097C42.7307 44.0936 44.0623 42.7771 44.5012 41.1352C44.5617 40.9082 44.6147 40.3937 44.6147 39.9927V39.2663L43.9337 39.2209C42.7988 39.1377 42.027 38.7669 41.4368 38.0254C41.0131 37.4882 40.824 36.9208 40.7786 36.0431L40.7332 35.3091L40.3095 35.3167C40.0749 35.3243 39.6739 35.3545 39.4091 35.3924Z" fill="#D12026"/>
<path d="M27.5151 51.3876L26.418 52.4847L26.9703 53.0295L27.5151 53.5818L28.6122 52.4847L29.7093 51.3876L29.157 50.8353L28.6122 50.2905L27.5151 51.3876Z" fill="#D12026"/>
<path d="M50.8358 50.8428L50.291 51.3876L51.3881 52.4847L52.4852 53.5818L53.03 53.0295L53.5824 52.4847L52.4852 51.3876L51.3881 50.2905L50.8358 50.8428Z" fill="#D12026"/>
<path d="M39.2441 54.7166V56.2677H40.0008H40.7574V54.7166V53.1655H40.0008H39.2441V54.7166Z" fill="#D12026"/>
</g>
</g>
</g>
</g>
</g>
<defs>
<filter id="filter0_d_421_37" x="0" y="0" width="90" height="90" filterUnits="userSpaceOnUse" color-interpolation-filters="sRGB">
<feFlood flood-opacity="0" result="BackgroundImageFix"/>
<feColorMatrix in="SourceAlpha" type="matrix" values="0 0 0 0 0 0 0 0 0 0 0 0 0 0 0 0 0 0 127 0" result="hardAlpha"/>
<feOffset dx="10" dy="10"/>
<feComposite in2="hardAlpha" operator="out"/>
<feColorMatrix type="matrix" values="0 0 0 0 1 0 0 0 0 1 0 0 0 0 1 0 0 0 0.07 0"/>
<feBlend mode="normal" in2="BackgroundImageFix" result="effect1_dropShadow_421_37"/>
<feBlend mode="normal" in="SourceGraphic" in2="effect1_dropShadow_421_37" result="shape"/>
</filter>
<clipPath id="clip0_421_37">
<rect width="36" height="36" fill="white" transform="translate(22 22)"/>
</clipPath>
<clipPath id="clip1_421_37">
<rect width="36" height="36" fill="white" transform="translate(22 22)"/>
</clipPath>
<clipPath id="clip2_421_37">
<rect width="36" height="36" fill="white" transform="translate(22 22)"/>
</clipPath>
</defs>
</svg>
