<svg xmlns="http://www.w3.org/2000/svg" width="680" height="67" viewBox="0 0 680 67" fill="none"><path d="M0.296 65V1.64H42.92V13.352H13.256V26.216H35.048V37.256H13.256V53.288H44.072V65H0.296ZM55.3273 65V1.64H68.2873V53.288H96.0312V65H55.3273ZM105.671 65V1.64H148.295V13.352H118.631V26.216H140.423V37.256H118.631V53.288H149.447V65H105.671ZM201.694 1.64H214.654V66.152H210.334L173.662 26.984V65H160.702V0.487995H164.926L201.694 39.464V1.64ZM270.036 65L266.484 56.744H240.564L237.012 65H223.092L251.412 0.487995H255.732L283.956 65H270.036ZM261.972 46.088L253.524 24.68L245.076 46.088H261.972ZM314.734 65V1.64H327.694V53.288H355.438V65H314.734ZM365.077 65V1.64H407.701V13.352H378.037V26.216H399.829V37.256H378.037V53.288H408.853V65H365.077ZM461.101 1.64H474.061V66.152H469.741L433.069 26.984V65H420.109V0.487995H424.333L461.101 39.464V1.64ZM529.538 1.64H542.498V66.152H538.178L501.506 26.984V65H488.546V0.487995H492.77L529.538 39.464V1.64ZM553.336 33.32C553.048 15.176 568.696 0.103994 586.936 0.487995C605.176 0.103994 621.016 15.176 620.728 33.32C621.016 51.464 605.176 66.536 586.936 66.152C568.696 66.536 553.048 51.464 553.336 33.32ZM607.384 33.32C607.384 21.32 598.648 12.488 587.032 12.488C575.32 12.488 566.68 21.128 566.68 33.32C566.68 45.512 575.32 54.152 587.032 54.152C598.648 54.152 607.384 45.512 607.384 33.32ZM679.569 65H664.881L651.441 43.976L638.001 65H623.217L644.241 32.744L624.465 1.64H639.249L651.441 21.608L663.537 1.64H678.225L658.737 32.744L679.569 65Z" fill="white" fill-opacity="0.42"></path></svg>