<svg xmlns="http://www.w3.org/2000/svg" width="652" height="67" viewBox="0 0 652 67" fill="none"><path d="M0.296 65V1.64H42.92V13.352H13.256V26.216H35.048V37.256H13.256V53.288H44.072V65H0.296ZM55.3273 65V1.64H68.2873V53.288H96.0312V65H55.3273ZM105.671 65V1.64H118.631V65H105.671ZM174.132 1.64H187.092V66.152H182.772L146.1 26.984V65H133.14V0.487995H137.364L174.132 39.464V1.64ZM242.473 65L238.921 56.744H213.001L209.449 65H195.529L223.849 0.487995H228.169L256.393 65H242.473ZM234.409 46.088L225.961 24.68L217.513 46.088H234.409ZM287.171 65V1.64H300.131V53.288H327.875V65H287.171ZM337.515 65V1.64H380.139V13.352H350.475V26.216H372.267V37.256H350.475V53.288H381.291V65H337.515ZM433.538 1.64H446.498V66.152H442.178L405.506 26.984V65H392.546V0.487995H396.77L433.538 39.464V1.64ZM501.976 1.64H514.936V66.152H510.616L473.944 26.984V65H460.984V0.487995H465.208L501.976 39.464V1.64ZM525.773 33.32C525.485 15.176 541.133 0.103994 559.373 0.487995C577.613 0.103994 593.453 15.176 593.165 33.32C593.453 51.464 577.613 66.536 559.373 66.152C541.133 66.536 525.485 51.464 525.773 33.32ZM579.821 33.32C579.821 21.32 571.085 12.488 559.469 12.488C547.757 12.488 539.117 21.128 539.117 33.32C539.117 45.512 547.757 54.152 559.469 54.152C571.085 54.152 579.821 45.512 579.821 33.32ZM652.006 65H637.318L623.878 43.976L610.438 65H595.654L616.678 32.744L596.902 1.64H611.686L623.878 21.608L635.974 1.64H650.662L631.174 32.744L652.006 65Z" fill="white" fill-opacity="0.42"></path></svg>