<svg width="135" height="135" viewBox="0 0 135 135" fill="none" xmlns="http://www.w3.org/2000/svg">
<g filter="url(#filter0_d_421_66)">
<circle cx="67.5" cy="67.5" r="53.5" fill="white"/>
</g>
<path d="M68.5047 94.2293C64.9459 94.2293 61.6009 93.5541 58.4696 92.2035C55.3383 90.8529 52.6146 89.0201 50.2986 86.7049C47.9825 84.3897 46.1487 81.6672 44.7973 78.5372C43.4463 75.4073 42.7708 72.0632 42.7708 68.5049C42.7708 64.9462 43.446 61.6011 44.7966 58.4698C46.1471 55.3386 47.98 52.6149 50.2952 50.2988C52.6104 47.9827 55.3329 46.149 58.4628 44.7975C61.5928 43.4465 64.9369 42.771 68.4952 42.771C72.0539 42.771 75.3989 43.4463 78.5302 44.7968C81.6615 46.1474 84.3852 47.9802 86.7013 50.2954C89.0173 52.6106 90.8511 55.3331 92.2026 58.4631C93.5536 61.593 94.2291 64.9371 94.2291 68.4954C94.2291 72.0542 93.5538 75.3992 92.2033 78.5305C90.8527 81.6618 89.0198 84.3854 86.7047 86.7015C84.3895 89.0176 81.6669 90.8514 78.537 92.2028C75.4071 93.5538 72.063 94.2293 68.5047 94.2293ZM68.4999 90.1668C74.5485 90.1668 79.6718 88.0679 83.8697 83.87C88.0676 79.672 90.1666 74.5488 90.1666 68.5002C90.1666 62.4515 88.0676 57.3283 83.8697 53.1304C79.6718 48.9325 74.5485 46.8335 68.4999 46.8335C62.4513 46.8335 57.328 48.9325 53.1301 53.1304C48.9322 57.3283 46.8333 62.4515 46.8333 68.5002C46.8333 74.5488 48.9322 79.672 53.1301 83.87C57.328 88.0679 62.4513 90.1668 68.4999 90.1668ZM68.506 83.396C64.3699 83.396 60.8523 81.9484 57.953 79.0532C55.0537 76.158 53.6041 72.6423 53.6041 68.5063C53.6041 64.3702 55.0517 60.8525 57.9469 57.9532C60.8421 55.054 64.3577 53.6043 68.4938 53.6043C72.6299 53.6043 76.1476 55.0519 79.0468 57.9471C81.9461 60.8424 83.3957 64.358 83.3957 68.4941C83.3957 72.6301 81.9481 76.1478 79.0529 79.0471C76.1577 81.9464 72.6421 83.396 68.506 83.396ZM68.4999 79.3335C71.4791 79.3335 74.0294 78.2727 76.151 76.1512C78.2725 74.0297 79.3332 71.4793 79.3332 68.5002C79.3332 65.521 78.2725 62.9706 76.151 60.8491C74.0294 58.7276 71.4791 57.6668 68.4999 57.6668C65.5208 57.6668 62.9704 58.7276 60.8489 60.8491C58.7273 62.9706 57.6666 65.521 57.6666 68.5002C57.6666 71.4793 58.7273 74.0297 60.8489 76.1512C62.9704 78.2727 65.5208 79.3335 68.4999 79.3335ZM68.4999 72.5627C67.3922 72.5627 66.4382 72.1625 65.6379 71.3622C64.8376 70.5619 64.4374 69.6079 64.4374 68.5002C64.4374 67.3925 64.8376 66.4384 65.6379 65.6381C66.4382 64.8378 67.3922 64.4377 68.4999 64.4377C69.6076 64.4377 70.5616 64.8378 71.3619 65.6381C72.1623 66.4384 72.5624 67.3925 72.5624 68.5002C72.5624 69.6079 72.1623 70.5619 71.3619 71.3622C70.5616 72.1625 69.6076 72.5627 68.4999 72.5627Z" fill="#D12026"/>
<defs>
<filter id="filter0_d_421_66" x="0.2" y="0.2" width="134.6" height="134.6" filterUnits="userSpaceOnUse" color-interpolation-filters="sRGB">
<feFlood flood-opacity="0" result="BackgroundImageFix"/>
<feColorMatrix in="SourceAlpha" type="matrix" values="0 0 0 0 0 0 0 0 0 0 0 0 0 0 0 0 0 0 127 0" result="hardAlpha"/>
<feOffset/>
<feGaussianBlur stdDeviation="6.9"/>
<feComposite in2="hardAlpha" operator="out"/>
<feColorMatrix type="matrix" values="0 0 0 0 0 0 0 0 0 0 0 0 0 0 0 0 0 0 0.25 0"/>
<feBlend mode="normal" in2="BackgroundImageFix" result="effect1_dropShadow_421_66"/>
<feBlend mode="normal" in="SourceGraphic" in2="effect1_dropShadow_421_66" result="shape"/>
</filter>
</defs>
</svg>
