<svg width="97" height="97" viewBox="0 0 97 97" fill="none" xmlns="http://www.w3.org/2000/svg">
<g filter="url(#filter0_d_421_83)">
<circle cx="48.5" cy="48.5" r="34.5" fill="white"/>
</g>
<path d="M34.9813 64.2182C34.6101 64.2182 34.2992 64.0927 34.0488 63.8417C33.798 63.5909 33.6726 63.2801 33.6726 62.9092V61.3483C33.6726 60.9774 33.7981 60.6665 34.0492 60.4158C34.3002 60.1647 34.6112 60.0392 34.9821 60.0392C35.3533 60.0392 35.6642 60.1647 35.9146 60.4158C36.1654 60.6665 36.2908 60.9774 36.2908 61.3483V62.9092C36.2908 63.2801 36.1653 63.5909 35.9142 63.8417C35.6632 64.0927 35.3522 64.2182 34.9813 64.2182ZM41.9631 64.2182C41.5919 64.2182 41.281 64.0927 41.0306 63.8417C40.7798 63.5909 40.6544 63.2801 40.6544 62.9092V53.4937C40.6544 53.1228 40.78 52.812 41.031 52.5612C41.2821 52.3102 41.593 52.1846 41.964 52.1846C42.3352 52.1846 42.646 52.3102 42.8965 52.5612C43.1472 52.812 43.2726 53.1228 43.2726 53.4937V62.9092C43.2726 63.2801 43.1471 63.5909 42.896 63.8417C42.645 64.0927 42.334 64.2182 41.9631 64.2182ZM48.9449 64.2182C48.5737 64.2182 48.2629 64.0927 48.0124 63.8417C47.7616 63.5909 47.6362 63.2801 47.6362 62.9092V56.9846C47.6362 56.6137 47.7618 56.3029 48.0128 56.0521C48.2639 55.8011 48.5749 55.6756 48.9458 55.6756C49.317 55.6756 49.6278 55.8011 49.8783 56.0521C50.129 56.3029 50.2544 56.6137 50.2544 56.9846V62.9092C50.2544 63.2801 50.1289 63.5909 49.8778 63.8417C49.6268 64.0927 49.3158 64.2182 48.9449 64.2182ZM55.9267 64.2182C55.5555 64.2182 55.2447 64.0927 54.9942 63.8417C54.7434 63.5909 54.6181 63.2801 54.6181 62.9092V54.3665C54.6181 53.9956 54.7436 53.6847 54.9946 53.434C55.2457 53.1829 55.5567 53.0574 55.9276 53.0574C56.2988 53.0574 56.6096 53.1829 56.8601 53.434C57.1109 53.6847 57.2362 53.9956 57.2362 54.3665V62.9092C57.2362 63.2801 57.1107 63.5909 56.8597 63.8417C56.6086 64.0927 56.2976 64.2182 55.9267 64.2182ZM62.9085 64.2182C62.5373 64.2182 62.2265 64.0927 61.976 63.8417C61.7253 63.5909 61.5999 63.2801 61.5999 62.9092V47.3846C61.5999 47.0137 61.7254 46.7029 61.9765 46.4521C62.2275 46.2011 62.5385 46.0756 62.9094 46.0756C63.2806 46.0756 63.5914 46.2011 63.8419 46.4521C64.0927 46.7029 64.2181 47.0137 64.2181 47.3846V62.9092C64.2181 63.2801 64.0925 63.5909 63.8415 63.8417C63.5904 64.0927 63.2794 64.2182 62.9085 64.2182ZM52.4362 48.4319C52.0266 48.4319 51.6307 48.3534 51.2485 48.1963C50.8662 48.0392 50.517 47.8168 50.2008 47.5291L45.8406 43.1685C45.74 43.0678 45.6112 43.0175 45.4544 43.0175C45.2976 43.0175 45.1689 43.0678 45.0682 43.1685L35.9016 52.3356C35.6418 52.5951 35.3306 52.7233 34.9682 52.7201C34.6057 52.7166 34.2947 52.5795 34.0352 52.309C33.7935 52.0492 33.678 51.7403 33.6888 51.3822C33.6995 51.0238 33.8239 50.7252 34.0618 50.4863L43.2189 41.3292C43.5352 41.0153 43.8844 40.7864 44.2666 40.6424C44.6489 40.4984 45.0448 40.4264 45.4544 40.4264C45.864 40.4264 46.2665 40.4984 46.6618 40.6424C47.0572 40.7864 47.3999 41.0153 47.6899 41.3292L52.0501 45.6898C52.1507 45.7905 52.2794 45.8408 52.4362 45.8408C52.593 45.8408 52.7218 45.7905 52.8224 45.6898L61.9891 36.5227C62.2489 36.2632 62.56 36.135 62.9225 36.1382C63.285 36.1417 63.596 36.2788 63.8554 36.5493C64.0972 36.8091 64.2127 37.118 64.2019 37.4761C64.1912 37.8345 64.0668 38.1332 63.8288 38.372L54.6717 47.5291C54.3817 47.8168 54.039 48.0392 53.6437 48.1963C53.2483 48.3534 52.8458 48.4319 52.4362 48.4319Z" fill="#D12026"/>
<defs>
<filter id="filter0_d_421_83" x="0.2" y="0.2" width="96.6" height="96.6" filterUnits="userSpaceOnUse" color-interpolation-filters="sRGB">
<feFlood flood-opacity="0" result="BackgroundImageFix"/>
<feColorMatrix in="SourceAlpha" type="matrix" values="0 0 0 0 0 0 0 0 0 0 0 0 0 0 0 0 0 0 127 0" result="hardAlpha"/>
<feOffset/>
<feGaussianBlur stdDeviation="6.9"/>
<feComposite in2="hardAlpha" operator="out"/>
<feColorMatrix type="matrix" values="0 0 0 0 0 0 0 0 0 0 0 0 0 0 0 0 0 0 0.25 0"/>
<feBlend mode="normal" in2="BackgroundImageFix" result="effect1_dropShadow_421_83"/>
<feBlend mode="normal" in="SourceGraphic" in2="effect1_dropShadow_421_83" result="shape"/>
</filter>
</defs>
</svg>
