<svg width="97" height="97" viewBox="0 0 97 97" fill="none" xmlns="http://www.w3.org/2000/svg">
<g filter="url(#filter0_d_421_75)">
<circle cx="48.5" cy="48.5" r="34.5" fill="white"/>
</g>
<path d="M48.9484 65.5274C46.6549 65.5274 44.4991 65.0922 42.4811 64.2218C40.463 63.3514 38.7077 62.1702 37.215 60.6781C35.7224 59.186 34.5405 57.4314 33.6696 55.4142C32.7989 53.3971 32.3635 51.2419 32.3635 48.9486C32.3635 46.6551 32.7987 44.4993 33.6691 42.4813C34.5395 40.4633 35.7208 38.7079 37.2128 37.2153C38.7049 35.7226 40.4595 34.5408 42.4767 33.6698C44.4939 32.7991 46.6491 32.3638 48.9423 32.3638C51.2358 32.3638 53.3916 32.799 55.4096 33.6694C57.4277 34.5398 59.183 35.721 60.6757 37.2131C62.1683 38.7052 63.3501 40.4598 64.2211 42.4769C65.0918 44.4941 65.5272 46.6493 65.5272 48.9425C65.5272 51.2361 65.092 53.3918 64.2216 55.4099C63.3512 57.4279 62.1699 59.1833 60.6779 60.6759C59.1858 62.1686 57.4312 63.3504 55.414 64.2214C53.3968 65.0921 51.2416 65.5274 48.9484 65.5274ZM48.9453 62.9092C52.8435 62.9092 56.1453 61.5565 58.8508 58.851C61.5563 56.1456 62.909 52.8438 62.909 48.9456C62.909 45.0474 61.5563 41.7456 58.8508 39.0401C56.1453 36.3347 52.8435 34.982 48.9453 34.982C45.0472 34.982 41.7453 36.3347 39.0399 39.0401C36.3344 41.7456 34.9817 45.0474 34.9817 48.9456C34.9817 52.8438 36.3344 56.1456 39.0399 58.851C41.7453 61.5565 45.0472 62.9092 48.9453 62.9092ZM48.9493 58.5456C46.2837 58.5456 44.0166 57.6126 42.1481 55.7467C40.2796 53.8809 39.3453 51.6151 39.3453 48.9495C39.3453 46.2839 40.2783 44.0169 42.1442 42.1484C44.0101 40.2798 46.2758 39.3456 48.9414 39.3456C51.607 39.3456 53.8741 40.2785 55.7426 42.1444C57.6111 44.0103 58.5453 46.2761 58.5453 48.9417C58.5453 51.6073 57.6124 53.8743 55.7465 55.7428C53.8806 57.6113 51.6149 58.5456 48.9493 58.5456ZM48.9453 55.9274C50.8653 55.9274 52.509 55.2438 53.8763 53.8765C55.2435 52.5092 55.9272 50.8656 55.9272 48.9456C55.9272 47.0256 55.2435 45.382 53.8763 44.0147C52.509 42.6474 50.8653 41.9638 48.9453 41.9638C47.0253 41.9638 45.3817 42.6474 44.0144 44.0147C42.6472 45.382 41.9635 47.0256 41.9635 48.9456C41.9635 50.8656 42.6472 52.5092 44.0144 53.8765C45.3817 55.2438 47.0253 55.9274 48.9453 55.9274ZM48.9453 51.5638C48.2315 51.5638 47.6166 51.3059 47.1008 50.7901C46.5851 50.2743 46.3272 49.6595 46.3272 48.9456C46.3272 48.2317 46.5851 47.6169 47.1008 47.1011C47.6166 46.5853 48.2315 46.3274 48.9453 46.3274C49.6592 46.3274 50.2741 46.5853 50.7899 47.1011C51.3056 47.6169 51.5635 48.2317 51.5635 48.9456C51.5635 49.6595 51.3056 50.2743 50.7899 50.7901C50.2741 51.3059 49.6592 51.5638 48.9453 51.5638Z" fill="#D12026"/>
<defs>
<filter id="filter0_d_421_75" x="0.2" y="0.2" width="96.6" height="96.6" filterUnits="userSpaceOnUse" color-interpolation-filters="sRGB">
<feFlood flood-opacity="0" result="BackgroundImageFix"/>
<feColorMatrix in="SourceAlpha" type="matrix" values="0 0 0 0 0 0 0 0 0 0 0 0 0 0 0 0 0 0 127 0" result="hardAlpha"/>
<feOffset/>
<feGaussianBlur stdDeviation="6.9"/>
<feComposite in2="hardAlpha" operator="out"/>
<feColorMatrix type="matrix" values="0 0 0 0 0 0 0 0 0 0 0 0 0 0 0 0 0 0 0.25 0"/>
<feBlend mode="normal" in2="BackgroundImageFix" result="effect1_dropShadow_421_75"/>
<feBlend mode="normal" in="SourceGraphic" in2="effect1_dropShadow_421_75" result="shape"/>
</filter>
</defs>
</svg>
