<svg xmlns="http://www.w3.org/2000/svg" width="333" height="18" viewBox="0 0 333 18" fill="none"><path d="M5.69699 8.2C5.57033 7.96667 5.38699 7.79 5.14699 7.67C4.91366 7.54333 4.63699 7.48 4.31699 7.48C3.76366 7.48 3.32033 7.66333 2.98699 8.03C2.65366 8.39 2.48699 8.87333 2.48699 9.48C2.48699 10.1267 2.66033 10.6333 3.00699 11C3.36033 11.36 3.84366 11.54 4.45699 11.54C4.87699 11.54 5.23033 11.4333 5.51699 11.22C5.81033 11.0067 6.02366 10.7 6.15699 10.3H3.98699V9.04H7.70699V10.63C7.58033 11.0567 7.36366 11.4533 7.05699 11.82C6.75699 12.1867 6.37366 12.4833 5.90699 12.71C5.44033 12.9367 4.91366 13.05 4.32699 13.05C3.63366 13.05 3.01366 12.9 2.46699 12.6C1.92699 12.2933 1.50366 11.87 1.19699 11.33C0.896992 10.79 0.746992 10.1733 0.746992 9.48C0.746992 8.78667 0.896992 8.17 1.19699 7.63C1.50366 7.08333 1.92699 6.66 2.46699 6.36C3.00699 6.05333 3.62366 5.9 4.31699 5.9C5.15699 5.9 5.86366 6.10333 6.43699 6.51C7.01699 6.91667 7.40033 7.48 7.58699 8.2H5.69699ZM13.9142 10.12C13.9142 10.28 13.9042 10.4467 13.8842 10.62H10.0142C10.0408 10.9667 10.1508 11.2333 10.3442 11.42C10.5442 11.6 10.7875 11.69 11.0742 11.69C11.5008 11.69 11.7975 11.51 11.9642 11.15H13.7842C13.6908 11.5167 13.5208 11.8467 13.2742 12.14C13.0342 12.4333 12.7308 12.6633 12.3642 12.83C11.9975 12.9967 11.5875 13.08 11.1342 13.08C10.5875 13.08 10.1008 12.9633 9.67418 12.73C9.24751 12.4967 8.91418 12.1633 8.67418 11.73C8.43418 11.2967 8.31418 10.79 8.31418 10.21C8.31418 9.63 8.43085 9.12333 8.66418 8.69C8.90418 8.25667 9.23751 7.92333 9.66418 7.69C10.0908 7.45667 10.5808 7.34 11.1342 7.34C11.6742 7.34 12.1542 7.45333 12.5742 7.68C12.9942 7.90667 13.3208 8.23 13.5542 8.65C13.7942 9.07 13.9142 9.56 13.9142 10.12ZM12.1642 9.67C12.1642 9.37667 12.0642 9.14333 11.8642 8.97C11.6642 8.79667 11.4142 8.71 11.1142 8.71C10.8275 8.71 10.5842 8.79333 10.3842 8.96C10.1908 9.12667 10.0708 9.36333 10.0242 9.67H12.1642ZM18.2163 7.36C18.8696 7.36 19.3896 7.57333 19.7763 8C20.1696 8.42 20.3663 9 20.3663 9.74V13H18.6663V9.97C18.6663 9.59667 18.5696 9.30667 18.3763 9.1C18.183 8.89333 17.923 8.79 17.5963 8.79C17.2696 8.79 17.0096 8.89333 16.8163 9.1C16.623 9.30667 16.5263 9.59667 16.5263 9.97V13H14.8163V7.42H16.5263V8.16C16.6996 7.91333 16.933 7.72 17.2263 7.58C17.5196 7.43333 17.8496 7.36 18.2163 7.36ZM26.8146 10.12C26.8146 10.28 26.8046 10.4467 26.7846 10.62H22.9146C22.9412 10.9667 23.0512 11.2333 23.2446 11.42C23.4446 11.6 23.6879 11.69 23.9746 11.69C24.4012 11.69 24.6979 11.51 24.8646 11.15H26.6846C26.5912 11.5167 26.4212 11.8467 26.1746 12.14C25.9346 12.4333 25.6312 12.6633 25.2646 12.83C24.8979 12.9967 24.4879 13.08 24.0346 13.08C23.4879 13.08 23.0012 12.9633 22.5746 12.73C22.1479 12.4967 21.8146 12.1633 21.5746 11.73C21.3346 11.2967 21.2146 10.79 21.2146 10.21C21.2146 9.63 21.3312 9.12333 21.5646 8.69C21.8046 8.25667 22.1379 7.92333 22.5646 7.69C22.9912 7.45667 23.4812 7.34 24.0346 7.34C24.5746 7.34 25.0546 7.45333 25.4746 7.68C25.8946 7.90667 26.2212 8.23 26.4546 8.65C26.6946 9.07 26.8146 9.56 26.8146 10.12ZM25.0646 9.67C25.0646 9.37667 24.9646 9.14333 24.7646 8.97C24.5646 8.79667 24.3146 8.71 24.0146 8.71C23.7279 8.71 23.4846 8.79333 23.2846 8.96C23.0912 9.12667 22.9712 9.36333 22.9246 9.67H25.0646ZM29.4267 8.35C29.6267 8.04333 29.8767 7.80333 30.1767 7.63C30.4767 7.45 30.81 7.36 31.1767 7.36V9.17H30.7067C30.28 9.17 29.96 9.26333 29.7467 9.45C29.5333 9.63 29.4267 9.95 29.4267 10.41V13H27.7167V7.42H29.4267V8.35ZM31.654 10.2C31.654 9.62667 31.7607 9.12333 31.974 8.69C32.194 8.25667 32.4907 7.92333 32.864 7.69C33.2374 7.45667 33.654 7.34 34.114 7.34C34.5074 7.34 34.8507 7.42 35.144 7.58C35.444 7.74 35.674 7.95 35.834 8.21V7.42H37.544V13H35.834V12.21C35.6674 12.47 35.434 12.68 35.134 12.84C34.8407 13 34.4974 13.08 34.104 13.08C33.6507 13.08 33.2374 12.9633 32.864 12.73C32.4907 12.49 32.194 12.1533 31.974 11.72C31.7607 11.28 31.654 10.7733 31.654 10.2ZM35.834 10.21C35.834 9.78333 35.714 9.44667 35.474 9.2C35.2407 8.95333 34.954 8.83 34.614 8.83C34.274 8.83 33.984 8.95333 33.744 9.2C33.5107 9.44 33.394 9.77333 33.394 10.2C33.394 10.6267 33.5107 10.9667 33.744 11.22C33.984 11.4667 34.274 11.59 34.614 11.59C34.954 11.59 35.2407 11.4667 35.474 11.22C35.714 10.9733 35.834 10.6367 35.834 10.21ZM41.8911 11.55V13H41.0211C40.4011 13 39.9178 12.85 39.5711 12.55C39.2245 12.2433 39.0511 11.7467 39.0511 11.06V8.84H38.3711V7.42H39.0511V6.06H40.7611V7.42H41.8811V8.84H40.7611V11.08C40.7611 11.2467 40.8011 11.3667 40.8811 11.44C40.9611 11.5133 41.0945 11.55 41.2811 11.55H41.8911ZM48.1036 10.12C48.1036 10.28 48.0936 10.4467 48.0736 10.62H44.2036C44.2303 10.9667 44.3403 11.2333 44.5336 11.42C44.7336 11.6 44.977 11.69 45.2636 11.69C45.6903 11.69 45.987 11.51 46.1536 11.15H47.9736C47.8803 11.5167 47.7103 11.8467 47.4636 12.14C47.2236 12.4333 46.9203 12.6633 46.5536 12.83C46.187 12.9967 45.777 13.08 45.3236 13.08C44.777 13.08 44.2903 12.9633 43.8636 12.73C43.437 12.4967 43.1036 12.1633 42.8636 11.73C42.6236 11.2967 42.5036 10.79 42.5036 10.21C42.5036 9.63 42.6203 9.12333 42.8536 8.69C43.0936 8.25667 43.427 7.92333 43.8536 7.69C44.2803 7.45667 44.7703 7.34 45.3236 7.34C45.8636 7.34 46.3436 7.45333 46.7636 7.68C47.1836 7.90667 47.5103 8.23 47.7436 8.65C47.9836 9.07 48.1036 9.56 48.1036 10.12ZM46.3536 9.67C46.3536 9.37667 46.2536 9.14333 46.0536 8.97C45.8536 8.79667 45.6036 8.71 45.3036 8.71C45.017 8.71 44.7736 8.79333 44.5736 8.96C44.3803 9.12667 44.2603 9.36333 44.2136 9.67H46.3536ZM52.8349 11.68H55.0749V13H51.1249V5.98H52.8349V11.68ZM61.1505 10.12C61.1505 10.28 61.1405 10.4467 61.1205 10.62H57.2505C57.2772 10.9667 57.3872 11.2333 57.5805 11.42C57.7805 11.6 58.0238 11.69 58.3105 11.69C58.7372 11.69 59.0338 11.51 59.2005 11.15H61.0205C60.9272 11.5167 60.7572 11.8467 60.5105 12.14C60.2705 12.4333 59.9672 12.6633 59.6005 12.83C59.2338 12.9967 58.8238 13.08 58.3705 13.08C57.8238 13.08 57.3372 12.9633 56.9105 12.73C56.4838 12.4967 56.1505 12.1633 55.9105 11.73C55.6705 11.2967 55.5505 10.79 55.5505 10.21C55.5505 9.63 55.6672 9.12333 55.9005 8.69C56.1405 8.25667 56.4738 7.92333 56.9005 7.69C57.3272 7.45667 57.8172 7.34 58.3705 7.34C58.9105 7.34 59.3905 7.45333 59.8105 7.68C60.2305 7.90667 60.5572 8.23 60.7905 8.65C61.0305 9.07 61.1505 9.56 61.1505 10.12ZM59.4005 9.67C59.4005 9.37667 59.3005 9.14333 59.1005 8.97C58.9005 8.79667 58.6505 8.71 58.3505 8.71C58.0638 8.71 57.8205 8.79333 57.6205 8.96C57.4272 9.12667 57.3072 9.36333 57.2605 9.67H59.4005ZM61.7126 10.2C61.7126 9.62667 61.8193 9.12333 62.0326 8.69C62.2526 8.25667 62.5493 7.92333 62.9226 7.69C63.296 7.45667 63.7126 7.34 64.1726 7.34C64.566 7.34 64.9093 7.42 65.2026 7.58C65.5026 7.74 65.7326 7.95 65.8926 8.21V7.42H67.6026V13H65.8926V12.21C65.726 12.47 65.4926 12.68 65.1926 12.84C64.8993 13 64.556 13.08 64.1626 13.08C63.7093 13.08 63.296 12.9633 62.9226 12.73C62.5493 12.49 62.2526 12.1533 62.0326 11.72C61.8193 11.28 61.7126 10.7733 61.7126 10.2ZM65.8926 10.21C65.8926 9.78333 65.7726 9.44667 65.5326 9.2C65.2993 8.95333 65.0126 8.83 64.6726 8.83C64.3326 8.83 64.0426 8.95333 63.8026 9.2C63.5693 9.44 63.4526 9.77333 63.4526 10.2C63.4526 10.6267 63.5693 10.9667 63.8026 11.22C64.0426 11.4667 64.3326 11.59 64.6726 11.59C65.0126 11.59 65.2993 11.4667 65.5326 11.22C65.7726 10.9733 65.8926 10.6367 65.8926 10.21ZM68.4997 10.2C68.4997 9.62667 68.6064 9.12333 68.8197 8.69C69.0397 8.25667 69.3364 7.92333 69.7097 7.69C70.0831 7.45667 70.4997 7.34 70.9597 7.34C71.3264 7.34 71.6597 7.41667 71.9597 7.57C72.2664 7.72333 72.5064 7.93 72.6797 8.19V5.6H74.3897V13H72.6797V12.2C72.5197 12.4667 72.2897 12.68 71.9897 12.84C71.6964 13 71.3531 13.08 70.9597 13.08C70.4997 13.08 70.0831 12.9633 69.7097 12.73C69.3364 12.49 69.0397 12.1533 68.8197 11.72C68.6064 11.28 68.4997 10.7733 68.4997 10.2ZM72.6797 10.21C72.6797 9.78333 72.5597 9.44667 72.3197 9.2C72.0864 8.95333 71.7997 8.83 71.4597 8.83C71.1197 8.83 70.8297 8.95333 70.5897 9.2C70.3564 9.44 70.2397 9.77333 70.2397 10.2C70.2397 10.6267 70.3564 10.9667 70.5897 11.22C70.8297 11.4667 71.1197 11.59 71.4597 11.59C71.7997 11.59 72.0864 11.4667 72.3197 11.22C72.5597 10.9733 72.6797 10.6367 72.6797 10.21ZM77.8968 13.08C77.4102 13.08 76.9768 12.9967 76.5968 12.83C76.2168 12.6633 75.9168 12.4367 75.6968 12.15C75.4768 11.8567 75.3535 11.53 75.3268 11.17H77.0168C77.0368 11.3633 77.1268 11.52 77.2868 11.64C77.4468 11.76 77.6435 11.82 77.8768 11.82C78.0902 11.82 78.2535 11.78 78.3668 11.7C78.4868 11.6133 78.5468 11.5033 78.5468 11.37C78.5468 11.21 78.4635 11.0933 78.2968 11.02C78.1302 10.94 77.8602 10.8533 77.4868 10.76C77.0868 10.6667 76.7535 10.57 76.4868 10.47C76.2202 10.3633 75.9902 10.2 75.7968 9.98C75.6035 9.75333 75.5068 9.45 75.5068 9.07C75.5068 8.75 75.5935 8.46 75.7668 8.2C75.9468 7.93333 76.2068 7.72333 76.5468 7.57C76.8935 7.41667 77.3035 7.34 77.7768 7.34C78.4768 7.34 79.0268 7.51333 79.4268 7.86C79.8335 8.20667 80.0668 8.66667 80.1268 9.24H78.5468C78.5202 9.04667 78.4335 8.89333 78.2868 8.78C78.1468 8.66667 77.9602 8.61 77.7268 8.61C77.5268 8.61 77.3735 8.65 77.2668 8.73C77.1602 8.80333 77.1068 8.90667 77.1068 9.04C77.1068 9.2 77.1902 9.32 77.3568 9.4C77.5302 9.48 77.7968 9.56 78.1568 9.64C78.5702 9.74667 78.9068 9.85333 79.1668 9.96C79.4268 10.06 79.6535 10.2267 79.8468 10.46C80.0468 10.6867 80.1502 10.9933 80.1568 11.38C80.1568 11.7067 80.0635 12 79.8768 12.26C79.6968 12.5133 79.4335 12.7133 79.0868 12.86C78.7468 13.0067 78.3502 13.08 77.8968 13.08Z" fill="#0C0C0C"></path><circle cx="96" cy="9" r="8.5" fill="white" stroke="#D12026" stroke-dasharray="2 2"></circle><path d="M101.313 9.53715C101.508 9.34189 101.508 9.0253 101.313 8.83004L98.1307 5.64806C97.9354 5.4528 97.6189 5.4528 97.4236 5.64806C97.2283 5.84332 97.2283 6.1599 97.4236 6.35517L100.252 9.18359L97.4236 12.012C97.2283 12.2073 97.2283 12.5239 97.4236 12.7191C97.6189 12.9144 97.9354 12.9144 98.1307 12.7191L101.313 9.53715ZM91.0408 9.68359H100.959V8.68359H91.0408V9.68359Z" fill="#D12026"></path><path d="M117.9 13H116.19L113.33 8.67V13H111.62V5.98H113.33L116.19 10.33V5.98H117.9V13ZM124.65 7.42V13H122.94V12.24C122.766 12.4867 122.53 12.6867 122.23 12.84C121.936 12.9867 121.61 13.06 121.25 13.06C120.823 13.06 120.446 12.9667 120.12 12.78C119.793 12.5867 119.54 12.31 119.36 11.95C119.18 11.59 119.09 11.1667 119.09 10.68V7.42H120.79V10.45C120.79 10.8233 120.886 11.1133 121.08 11.32C121.273 11.5267 121.533 11.63 121.86 11.63C122.193 11.63 122.456 11.5267 122.65 11.32C122.843 11.1133 122.94 10.8233 122.94 10.45V7.42H124.65ZM127.588 8.35C127.788 8.04333 128.038 7.80333 128.338 7.63C128.638 7.45 128.971 7.36 129.338 7.36V9.17H128.868C128.441 9.17 128.121 9.26333 127.908 9.45C127.694 9.63 127.588 9.95 127.588 10.41V13H125.878V7.42H127.588V8.35ZM133.265 11.55V13H132.395C131.775 13 131.292 12.85 130.945 12.55C130.598 12.2433 130.425 11.7467 130.425 11.06V8.84H129.745V7.42H130.425V6.06H132.135V7.42H133.255V8.84H132.135V11.08C132.135 11.2467 132.175 11.3667 132.255 11.44C132.335 11.5133 132.468 11.55 132.655 11.55H133.265ZM139.728 7.42V13H138.018V12.24C137.844 12.4867 137.608 12.6867 137.308 12.84C137.014 12.9867 136.688 13.06 136.328 13.06C135.901 13.06 135.524 12.9667 135.198 12.78C134.871 12.5867 134.618 12.31 134.438 11.95C134.258 11.59 134.168 11.1667 134.168 10.68V7.42H135.868V10.45C135.868 10.8233 135.964 11.1133 136.158 11.32C136.351 11.5267 136.611 11.63 136.938 11.63C137.271 11.63 137.534 11.5267 137.728 11.32C137.921 11.1133 138.018 10.8233 138.018 10.45V7.42H139.728ZM142.666 8.35C142.866 8.04333 143.116 7.80333 143.416 7.63C143.716 7.45 144.049 7.36 144.416 7.36V9.17H143.946C143.519 9.17 143.199 9.26333 142.986 9.45C142.773 9.63 142.666 9.95 142.666 10.41V13H140.956V7.42H142.666V8.35ZM150.493 10.12C150.493 10.28 150.483 10.4467 150.463 10.62H146.593C146.62 10.9667 146.73 11.2333 146.923 11.42C147.123 11.6 147.367 11.69 147.653 11.69C148.08 11.69 148.377 11.51 148.543 11.15H150.363C150.27 11.5167 150.1 11.8467 149.853 12.14C149.613 12.4333 149.31 12.6633 148.943 12.83C148.577 12.9967 148.167 13.08 147.713 13.08C147.167 13.08 146.68 12.9633 146.253 12.73C145.827 12.4967 145.493 12.1633 145.253 11.73C145.013 11.2967 144.893 10.79 144.893 10.21C144.893 9.63 145.01 9.12333 145.243 8.69C145.483 8.25667 145.817 7.92333 146.243 7.69C146.67 7.45667 147.16 7.34 147.713 7.34C148.253 7.34 148.733 7.45333 149.153 7.68C149.573 7.90667 149.9 8.23 150.133 8.65C150.373 9.07 150.493 9.56 150.493 10.12ZM148.743 9.67C148.743 9.37667 148.643 9.14333 148.443 8.97C148.243 8.79667 147.993 8.71 147.693 8.71C147.407 8.71 147.163 8.79333 146.963 8.96C146.77 9.12667 146.65 9.36333 146.603 9.67H148.743ZM155.225 11.68H157.465V13H153.515V5.98H155.225V11.68ZM163.54 10.12C163.54 10.28 163.53 10.4467 163.51 10.62H159.64C159.667 10.9667 159.777 11.2333 159.97 11.42C160.17 11.6 160.413 11.69 160.7 11.69C161.127 11.69 161.423 11.51 161.59 11.15H163.41C163.317 11.5167 163.147 11.8467 162.9 12.14C162.66 12.4333 162.357 12.6633 161.99 12.83C161.623 12.9967 161.213 13.08 160.76 13.08C160.213 13.08 159.727 12.9633 159.3 12.73C158.873 12.4967 158.54 12.1633 158.3 11.73C158.06 11.2967 157.94 10.79 157.94 10.21C157.94 9.63 158.057 9.12333 158.29 8.69C158.53 8.25667 158.863 7.92333 159.29 7.69C159.717 7.45667 160.207 7.34 160.76 7.34C161.3 7.34 161.78 7.45333 162.2 7.68C162.62 7.90667 162.947 8.23 163.18 8.65C163.42 9.07 163.54 9.56 163.54 10.12ZM161.79 9.67C161.79 9.37667 161.69 9.14333 161.49 8.97C161.29 8.79667 161.04 8.71 160.74 8.71C160.453 8.71 160.21 8.79333 160.01 8.96C159.817 9.12667 159.697 9.36333 159.65 9.67H161.79ZM164.102 10.2C164.102 9.62667 164.209 9.12333 164.422 8.69C164.642 8.25667 164.939 7.92333 165.312 7.69C165.686 7.45667 166.102 7.34 166.562 7.34C166.956 7.34 167.299 7.42 167.592 7.58C167.892 7.74 168.122 7.95 168.282 8.21V7.42H169.992V13H168.282V12.21C168.116 12.47 167.882 12.68 167.582 12.84C167.289 13 166.946 13.08 166.552 13.08C166.099 13.08 165.686 12.9633 165.312 12.73C164.939 12.49 164.642 12.1533 164.422 11.72C164.209 11.28 164.102 10.7733 164.102 10.2ZM168.282 10.21C168.282 9.78333 168.162 9.44667 167.922 9.2C167.689 8.95333 167.402 8.83 167.062 8.83C166.722 8.83 166.432 8.95333 166.192 9.2C165.959 9.44 165.842 9.77333 165.842 10.2C165.842 10.6267 165.959 10.9667 166.192 11.22C166.432 11.4667 166.722 11.59 167.062 11.59C167.402 11.59 167.689 11.4667 167.922 11.22C168.162 10.9733 168.282 10.6367 168.282 10.21ZM170.889 10.2C170.889 9.62667 170.996 9.12333 171.209 8.69C171.429 8.25667 171.726 7.92333 172.099 7.69C172.473 7.45667 172.889 7.34 173.349 7.34C173.716 7.34 174.049 7.41667 174.349 7.57C174.656 7.72333 174.896 7.93 175.069 8.19V5.6H176.779V13H175.069V12.2C174.909 12.4667 174.679 12.68 174.379 12.84C174.086 13 173.743 13.08 173.349 13.08C172.889 13.08 172.473 12.9633 172.099 12.73C171.726 12.49 171.429 12.1533 171.209 11.72C170.996 11.28 170.889 10.7733 170.889 10.2ZM175.069 10.21C175.069 9.78333 174.949 9.44667 174.709 9.2C174.476 8.95333 174.189 8.83 173.849 8.83C173.509 8.83 173.219 8.95333 172.979 9.2C172.746 9.44 172.629 9.77333 172.629 10.2C172.629 10.6267 172.746 10.9667 172.979 11.22C173.219 11.4667 173.509 11.59 173.849 11.59C174.189 11.59 174.476 11.4667 174.709 11.22C174.949 10.9733 175.069 10.6367 175.069 10.21ZM180.286 13.08C179.8 13.08 179.366 12.9967 178.986 12.83C178.606 12.6633 178.306 12.4367 178.086 12.15C177.866 11.8567 177.743 11.53 177.716 11.17H179.406C179.426 11.3633 179.516 11.52 179.676 11.64C179.836 11.76 180.033 11.82 180.266 11.82C180.48 11.82 180.643 11.78 180.756 11.7C180.876 11.6133 180.936 11.5033 180.936 11.37C180.936 11.21 180.853 11.0933 180.686 11.02C180.52 10.94 180.25 10.8533 179.876 10.76C179.476 10.6667 179.143 10.57 178.876 10.47C178.61 10.3633 178.38 10.2 178.186 9.98C177.993 9.75333 177.896 9.45 177.896 9.07C177.896 8.75 177.983 8.46 178.156 8.2C178.336 7.93333 178.596 7.72333 178.936 7.57C179.283 7.41667 179.693 7.34 180.166 7.34C180.866 7.34 181.416 7.51333 181.816 7.86C182.223 8.20667 182.456 8.66667 182.516 9.24H180.936C180.91 9.04667 180.823 8.89333 180.676 8.78C180.536 8.66667 180.35 8.61 180.116 8.61C179.916 8.61 179.763 8.65 179.656 8.73C179.55 8.80333 179.496 8.90667 179.496 9.04C179.496 9.2 179.58 9.32 179.746 9.4C179.92 9.48 180.186 9.56 180.546 9.64C180.96 9.74667 181.296 9.85333 181.556 9.96C181.816 10.06 182.043 10.2267 182.236 10.46C182.436 10.6867 182.54 10.9933 182.546 11.38C182.546 11.7067 182.453 12 182.266 12.26C182.086 12.5133 181.823 12.7133 181.476 12.86C181.136 13.0067 180.74 13.08 180.286 13.08Z" fill="#0C0C0C"></path><circle cx="198" cy="9" r="8.5" fill="white" stroke="#D12026" stroke-dasharray="2 2"></circle><path d="M203.313 9.53715C203.508 9.34189 203.508 9.0253 203.313 8.83004L200.131 5.64806C199.935 5.4528 199.619 5.4528 199.424 5.64806C199.228 5.84332 199.228 6.1599 199.424 6.35517L202.252 9.18359L199.424 12.012C199.228 12.2073 199.228 12.5239 199.424 12.7191C199.619 12.9144 199.935 12.9144 200.131 12.7191L203.313 9.53715ZM193.041 9.68359H202.959V8.68359H193.041V9.68359Z" fill="#D12026"></path><path d="M213.33 9.48C213.33 8.78667 213.48 8.17 213.78 7.63C214.08 7.08333 214.497 6.66 215.03 6.36C215.57 6.05333 216.18 5.9 216.86 5.9C217.693 5.9 218.407 6.12 219 6.56C219.593 7 219.99 7.6 220.19 8.36H218.31C218.17 8.06667 217.97 7.84333 217.71 7.69C217.457 7.53667 217.167 7.46 216.84 7.46C216.313 7.46 215.887 7.64333 215.56 8.01C215.233 8.37667 215.07 8.86667 215.07 9.48C215.07 10.0933 215.233 10.5833 215.56 10.95C215.887 11.3167 216.313 11.5 216.84 11.5C217.167 11.5 217.457 11.4233 217.71 11.27C217.97 11.1167 218.17 10.8933 218.31 10.6H220.19C219.99 11.36 219.593 11.96 219 12.4C218.407 12.8333 217.693 13.05 216.86 13.05C216.18 13.05 215.57 12.9 215.03 12.6C214.497 12.2933 214.08 11.87 213.78 11.33C213.48 10.79 213.33 10.1733 213.33 9.48ZM222.947 5.6V13H221.237V5.6H222.947ZM226.726 13.08C226.18 13.08 225.686 12.9633 225.246 12.73C224.813 12.4967 224.47 12.1633 224.216 11.73C223.97 11.2967 223.846 10.79 223.846 10.21C223.846 9.63667 223.973 9.13333 224.226 8.7C224.48 8.26 224.826 7.92333 225.266 7.69C225.706 7.45667 226.2 7.34 226.746 7.34C227.293 7.34 227.786 7.45667 228.226 7.69C228.666 7.92333 229.013 8.26 229.266 8.7C229.52 9.13333 229.646 9.63667 229.646 10.21C229.646 10.7833 229.516 11.29 229.256 11.73C229.003 12.1633 228.653 12.4967 228.206 12.73C227.766 12.9633 227.273 13.08 226.726 13.08ZM226.726 11.6C227.053 11.6 227.33 11.48 227.556 11.24C227.79 11 227.906 10.6567 227.906 10.21C227.906 9.76333 227.793 9.42 227.566 9.18C227.346 8.94 227.073 8.82 226.746 8.82C226.413 8.82 226.136 8.94 225.916 9.18C225.696 9.41333 225.586 9.75667 225.586 10.21C225.586 10.6567 225.693 11 225.906 11.24C226.126 11.48 226.4 11.6 226.726 11.6ZM232.824 13.08C232.337 13.08 231.904 12.9967 231.524 12.83C231.144 12.6633 230.844 12.4367 230.624 12.15C230.404 11.8567 230.28 11.53 230.254 11.17H231.944C231.964 11.3633 232.054 11.52 232.214 11.64C232.374 11.76 232.57 11.82 232.804 11.82C233.017 11.82 233.18 11.78 233.294 11.7C233.414 11.6133 233.474 11.5033 233.474 11.37C233.474 11.21 233.39 11.0933 233.224 11.02C233.057 10.94 232.787 10.8533 232.414 10.76C232.014 10.6667 231.68 10.57 231.414 10.47C231.147 10.3633 230.917 10.2 230.724 9.98C230.53 9.75333 230.434 9.45 230.434 9.07C230.434 8.75 230.52 8.46 230.694 8.2C230.874 7.93333 231.134 7.72333 231.474 7.57C231.82 7.41667 232.23 7.34 232.704 7.34C233.404 7.34 233.954 7.51333 234.354 7.86C234.76 8.20667 234.994 8.66667 235.054 9.24H233.474C233.447 9.04667 233.36 8.89333 233.214 8.78C233.074 8.66667 232.887 8.61 232.654 8.61C232.454 8.61 232.3 8.65 232.194 8.73C232.087 8.80333 232.034 8.90667 232.034 9.04C232.034 9.2 232.117 9.32 232.284 9.4C232.457 9.48 232.724 9.56 233.084 9.64C233.497 9.74667 233.834 9.85333 234.094 9.96C234.354 10.06 234.58 10.2267 234.774 10.46C234.974 10.6867 235.077 10.9933 235.084 11.38C235.084 11.7067 234.99 12 234.804 12.26C234.624 12.5133 234.36 12.7133 234.014 12.86C233.674 13.0067 233.277 13.08 232.824 13.08ZM241.39 10.12C241.39 10.28 241.38 10.4467 241.36 10.62H237.49C237.516 10.9667 237.626 11.2333 237.82 11.42C238.02 11.6 238.263 11.69 238.55 11.69C238.976 11.69 239.273 11.51 239.44 11.15H241.26C241.166 11.5167 240.996 11.8467 240.75 12.14C240.51 12.4333 240.206 12.6633 239.84 12.83C239.473 12.9967 239.063 13.08 238.61 13.08C238.063 13.08 237.576 12.9633 237.15 12.73C236.723 12.4967 236.39 12.1633 236.15 11.73C235.91 11.2967 235.79 10.79 235.79 10.21C235.79 9.63 235.906 9.12333 236.14 8.69C236.38 8.25667 236.713 7.92333 237.14 7.69C237.566 7.45667 238.056 7.34 238.61 7.34C239.15 7.34 239.63 7.45333 240.05 7.68C240.47 7.90667 240.796 8.23 241.03 8.65C241.27 9.07 241.39 9.56 241.39 10.12ZM239.64 9.67C239.64 9.37667 239.54 9.14333 239.34 8.97C239.14 8.79667 238.89 8.71 238.59 8.71C238.303 8.71 238.06 8.79333 237.86 8.96C237.666 9.12667 237.546 9.36333 237.5 9.67H239.64ZM246.121 11.68H248.361V13H244.411V5.98H246.121V11.68ZM254.437 10.12C254.437 10.28 254.427 10.4467 254.407 10.62H250.537C250.563 10.9667 250.673 11.2333 250.867 11.42C251.067 11.6 251.31 11.69 251.597 11.69C252.023 11.69 252.32 11.51 252.487 11.15H254.307C254.213 11.5167 254.043 11.8467 253.797 12.14C253.557 12.4333 253.253 12.6633 252.887 12.83C252.52 12.9967 252.11 13.08 251.657 13.08C251.11 13.08 250.623 12.9633 250.197 12.73C249.77 12.4967 249.437 12.1633 249.197 11.73C248.957 11.2967 248.837 10.79 248.837 10.21C248.837 9.63 248.953 9.12333 249.187 8.69C249.427 8.25667 249.76 7.92333 250.187 7.69C250.613 7.45667 251.103 7.34 251.657 7.34C252.197 7.34 252.677 7.45333 253.097 7.68C253.517 7.90667 253.843 8.23 254.077 8.65C254.317 9.07 254.437 9.56 254.437 10.12ZM252.687 9.67C252.687 9.37667 252.587 9.14333 252.387 8.97C252.187 8.79667 251.937 8.71 251.637 8.71C251.35 8.71 251.107 8.79333 250.907 8.96C250.713 9.12667 250.593 9.36333 250.547 9.67H252.687ZM254.999 10.2C254.999 9.62667 255.105 9.12333 255.319 8.69C255.539 8.25667 255.835 7.92333 256.209 7.69C256.582 7.45667 256.999 7.34 257.459 7.34C257.852 7.34 258.195 7.42 258.489 7.58C258.789 7.74 259.019 7.95 259.179 8.21V7.42H260.889V13H259.179V12.21C259.012 12.47 258.779 12.68 258.479 12.84C258.185 13 257.842 13.08 257.449 13.08C256.995 13.08 256.582 12.9633 256.209 12.73C255.835 12.49 255.539 12.1533 255.319 11.72C255.105 11.28 254.999 10.7733 254.999 10.2ZM259.179 10.21C259.179 9.78333 259.059 9.44667 258.819 9.2C258.585 8.95333 258.299 8.83 257.959 8.83C257.619 8.83 257.329 8.95333 257.089 9.2C256.855 9.44 256.739 9.77333 256.739 10.2C256.739 10.6267 256.855 10.9667 257.089 11.22C257.329 11.4667 257.619 11.59 257.959 11.59C258.299 11.59 258.585 11.4667 258.819 11.22C259.059 10.9733 259.179 10.6367 259.179 10.21ZM261.786 10.2C261.786 9.62667 261.893 9.12333 262.106 8.69C262.326 8.25667 262.623 7.92333 262.996 7.69C263.369 7.45667 263.786 7.34 264.246 7.34C264.613 7.34 264.946 7.41667 265.246 7.57C265.553 7.72333 265.793 7.93 265.966 8.19V5.6H267.676V13H265.966V12.2C265.806 12.4667 265.576 12.68 265.276 12.84C264.983 13 264.639 13.08 264.246 13.08C263.786 13.08 263.369 12.9633 262.996 12.73C262.623 12.49 262.326 12.1533 262.106 11.72C261.893 11.28 261.786 10.7733 261.786 10.2ZM265.966 10.21C265.966 9.78333 265.846 9.44667 265.606 9.2C265.373 8.95333 265.086 8.83 264.746 8.83C264.406 8.83 264.116 8.95333 263.876 9.2C263.643 9.44 263.526 9.77333 263.526 10.2C263.526 10.6267 263.643 10.9667 263.876 11.22C264.116 11.4667 264.406 11.59 264.746 11.59C265.086 11.59 265.373 11.4667 265.606 11.22C265.846 10.9733 265.966 10.6367 265.966 10.21ZM271.183 13.08C270.696 13.08 270.263 12.9967 269.883 12.83C269.503 12.6633 269.203 12.4367 268.983 12.15C268.763 11.8567 268.64 11.53 268.613 11.17H270.303C270.323 11.3633 270.413 11.52 270.573 11.64C270.733 11.76 270.93 11.82 271.163 11.82C271.376 11.82 271.54 11.78 271.653 11.7C271.773 11.6133 271.833 11.5033 271.833 11.37C271.833 11.21 271.75 11.0933 271.583 11.02C271.416 10.94 271.146 10.8533 270.773 10.76C270.373 10.6667 270.04 10.57 269.773 10.47C269.506 10.3633 269.276 10.2 269.083 9.98C268.89 9.75333 268.793 9.45 268.793 9.07C268.793 8.75 268.88 8.46 269.053 8.2C269.233 7.93333 269.493 7.72333 269.833 7.57C270.18 7.41667 270.59 7.34 271.063 7.34C271.763 7.34 272.313 7.51333 272.713 7.86C273.12 8.20667 273.353 8.66667 273.413 9.24H271.833C271.806 9.04667 271.72 8.89333 271.573 8.78C271.433 8.66667 271.246 8.61 271.013 8.61C270.813 8.61 270.66 8.65 270.553 8.73C270.446 8.80333 270.393 8.90667 270.393 9.04C270.393 9.2 270.476 9.32 270.643 9.4C270.816 9.48 271.083 9.56 271.443 9.64C271.856 9.74667 272.193 9.85333 272.453 9.96C272.713 10.06 272.94 10.2267 273.133 10.46C273.333 10.6867 273.436 10.9933 273.443 11.38C273.443 11.7067 273.35 12 273.163 12.26C272.983 12.5133 272.72 12.7133 272.373 12.86C272.033 13.0067 271.636 13.08 271.183 13.08Z" fill="#0C0C0C"></path><circle cx="289" cy="9" r="8.5" fill="white" stroke="#D12026" stroke-dasharray="2 2"></circle><path d="M294.313 9.53715C294.508 9.34189 294.508 9.0253 294.313 8.83004L291.131 5.64806C290.935 5.4528 290.619 5.4528 290.424 5.64806C290.228 5.84332 290.228 6.1599 290.424 6.35517L293.252 9.18359L290.424 12.012C290.228 12.2073 290.228 12.5239 290.424 12.7191C290.619 12.9144 290.935 12.9144 291.131 12.7191L294.313 9.53715ZM284.041 9.68359H293.959V8.68359H284.041V9.68359Z" fill="#D12026"></path><path d="M307.16 13.07C306.647 13.07 306.187 12.9867 305.78 12.82C305.373 12.6533 305.047 12.4067 304.8 12.08C304.56 11.7533 304.433 11.36 304.42 10.9H306.24C306.267 11.16 306.357 11.36 306.51 11.5C306.663 11.6333 306.863 11.7 307.11 11.7C307.363 11.7 307.563 11.6433 307.71 11.53C307.857 11.41 307.93 11.2467 307.93 11.04C307.93 10.8667 307.87 10.7233 307.75 10.61C307.637 10.4967 307.493 10.4033 307.32 10.33C307.153 10.2567 306.913 10.1733 306.6 10.08C306.147 9.94 305.777 9.8 305.49 9.66C305.203 9.52 304.957 9.31333 304.75 9.04C304.543 8.76667 304.44 8.41 304.44 7.97C304.44 7.31667 304.677 6.80667 305.15 6.44C305.623 6.06667 306.24 5.88 307 5.88C307.773 5.88 308.397 6.06667 308.87 6.44C309.343 6.80667 309.597 7.32 309.63 7.98H307.78C307.767 7.75333 307.683 7.57667 307.53 7.45C307.377 7.31667 307.18 7.25 306.94 7.25C306.733 7.25 306.567 7.30667 306.44 7.42C306.313 7.52667 306.25 7.68333 306.25 7.89C306.25 8.11667 306.357 8.29333 306.57 8.42C306.783 8.54667 307.117 8.68333 307.57 8.83C308.023 8.98333 308.39 9.13 308.67 9.27C308.957 9.41 309.203 9.61333 309.41 9.88C309.617 10.1467 309.72 10.49 309.72 10.91C309.72 11.31 309.617 11.6733 309.41 12C309.21 12.3267 308.917 12.5867 308.53 12.78C308.143 12.9733 307.687 13.07 307.16 13.07ZM310.432 10.21C310.432 9.63 310.549 9.12333 310.782 8.69C311.022 8.25667 311.352 7.92333 311.772 7.69C312.199 7.45667 312.686 7.34 313.232 7.34C313.932 7.34 314.516 7.52333 314.982 7.89C315.456 8.25667 315.766 8.77333 315.912 9.44H314.092C313.939 9.01333 313.642 8.8 313.202 8.8C312.889 8.8 312.639 8.92333 312.452 9.17C312.266 9.41 312.172 9.75667 312.172 10.21C312.172 10.6633 312.266 11.0133 312.452 11.26C312.639 11.5 312.889 11.62 313.202 11.62C313.642 11.62 313.939 11.4067 314.092 10.98H315.912C315.766 11.6333 315.456 12.1467 314.982 12.52C314.509 12.8933 313.926 13.08 313.232 13.08C312.686 13.08 312.199 12.9633 311.772 12.73C311.352 12.4967 311.022 12.1633 310.782 11.73C310.549 11.2967 310.432 10.79 310.432 10.21ZM316.487 10.2C316.487 9.62667 316.594 9.12333 316.807 8.69C317.027 8.25667 317.324 7.92333 317.697 7.69C318.07 7.45667 318.487 7.34 318.947 7.34C319.34 7.34 319.684 7.42 319.977 7.58C320.277 7.74 320.507 7.95 320.667 8.21V7.42H322.377V13H320.667V12.21C320.5 12.47 320.267 12.68 319.967 12.84C319.674 13 319.33 13.08 318.937 13.08C318.484 13.08 318.07 12.9633 317.697 12.73C317.324 12.49 317.027 12.1533 316.807 11.72C316.594 11.28 316.487 10.7733 316.487 10.2ZM320.667 10.21C320.667 9.78333 320.547 9.44667 320.307 9.2C320.074 8.95333 319.787 8.83 319.447 8.83C319.107 8.83 318.817 8.95333 318.577 9.2C318.344 9.44 318.227 9.77333 318.227 10.2C318.227 10.6267 318.344 10.9667 318.577 11.22C318.817 11.4667 319.107 11.59 319.447 11.59C319.787 11.59 320.074 11.4667 320.307 11.22C320.547 10.9733 320.667 10.6367 320.667 10.21ZM325.324 5.6V13H323.614V5.6H325.324ZM331.823 10.12C331.823 10.28 331.813 10.4467 331.793 10.62H327.923C327.95 10.9667 328.06 11.2333 328.253 11.42C328.453 11.6 328.697 11.69 328.983 11.69C329.41 11.69 329.707 11.51 329.873 11.15H331.693C331.6 11.5167 331.43 11.8467 331.183 12.14C330.943 12.4333 330.64 12.6633 330.273 12.83C329.907 12.9967 329.497 13.08 329.043 13.08C328.497 13.08 328.01 12.9633 327.583 12.73C327.157 12.4967 326.823 12.1633 326.583 11.73C326.343 11.2967 326.223 10.79 326.223 10.21C326.223 9.63 326.34 9.12333 326.573 8.69C326.813 8.25667 327.147 7.92333 327.573 7.69C328 7.45667 328.49 7.34 329.043 7.34C329.583 7.34 330.063 7.45333 330.483 7.68C330.903 7.90667 331.23 8.23 331.463 8.65C331.703 9.07 331.823 9.56 331.823 10.12ZM330.073 9.67C330.073 9.37667 329.973 9.14333 329.773 8.97C329.573 8.79667 329.323 8.71 329.023 8.71C328.737 8.71 328.493 8.79333 328.293 8.96C328.1 9.12667 327.98 9.36333 327.933 9.67H330.073Z" fill="#0C0C0C"></path></svg>