<svg width="97" height="97" viewBox="0 0 97 97" fill="none" xmlns="http://www.w3.org/2000/svg">
<g filter="url(#filter0_d_421_79)">
<circle cx="48.5" cy="48.5" r="34.5" fill="white"/>
</g>
<path d="M34.9817 61.1634H42.5509V47.1998H34.9817V61.1634ZM45.1691 61.1634H52.7216V36.7271H45.1691V61.1634ZM55.3398 61.1634H62.909V50.6907H55.3398V61.1634ZM32.3635 60.6263V47.737C32.3635 46.8692 32.6725 46.1263 33.2904 45.5084C33.9083 44.8906 34.6511 44.5816 35.5189 44.5816H42.5509V37.2642C42.5509 36.3965 42.8598 35.6536 43.4777 35.0357C44.0956 34.4178 44.8384 34.1089 45.7062 34.1089H52.1845C53.0522 34.1089 53.7951 34.4178 54.413 35.0357C55.0309 35.6536 55.3398 36.3965 55.3398 37.2642V48.0725H62.3718C63.2396 48.0725 63.9824 48.3815 64.6003 48.9994C65.2182 49.6172 65.5272 50.3601 65.5272 51.2279V60.6263C65.5272 61.4941 65.2182 62.2369 64.6003 62.8548C63.9824 63.4727 63.2396 63.7816 62.3718 63.7816H35.5189C34.6511 63.7816 33.9083 63.4727 33.2904 62.8548C32.6725 62.2369 32.3635 61.4941 32.3635 60.6263Z" fill="#D12026"/>
<defs>
<filter id="filter0_d_421_79" x="0.2" y="0.2" width="96.6" height="96.6" filterUnits="userSpaceOnUse" color-interpolation-filters="sRGB">
<feFlood flood-opacity="0" result="BackgroundImageFix"/>
<feColorMatrix in="SourceAlpha" type="matrix" values="0 0 0 0 0 0 0 0 0 0 0 0 0 0 0 0 0 0 127 0" result="hardAlpha"/>
<feOffset/>
<feGaussianBlur stdDeviation="6.9"/>
<feComposite in2="hardAlpha" operator="out"/>
<feColorMatrix type="matrix" values="0 0 0 0 0 0 0 0 0 0 0 0 0 0 0 0 0 0 0.25 0"/>
<feBlend mode="normal" in2="BackgroundImageFix" result="effect1_dropShadow_421_79"/>
<feBlend mode="normal" in="SourceGraphic" in2="effect1_dropShadow_421_79" result="shape"/>
</filter>
</defs>
</svg>
