<svg xmlns="http://www.w3.org/2000/svg" width="604" height="478" viewBox="0 0 604 478" fill="none"><circle cx="301.5" cy="258.5" r="139.5" fill="#D12026" fill-opacity="0.2"></circle><circle cx="301.5" cy="258.5" r="154.5" fill="#D12026" fill-opacity="0.2"></circle><circle cx="301.5" cy="258.5" r="165.5" fill="#D12026" fill-opacity="0.2"></circle><circle cx="301.5" cy="258.5" r="176.5" fill="#D12026" fill-opacity="0.2"></circle><circle cx="301.5" cy="258.5" r="185.5" fill="#D12026" fill-opacity="0.2"></circle><rect x="197" width="211" height="148" rx="16" fill="#0C0C0C"></rect><path d="M246.378 109.8H249.078V123.24H248.178L240.538 115.08V123H237.838V109.56H238.718L246.378 117.68V109.8ZM251.719 118.64V113.1H254.419V118.86C254.419 120 255.199 120.76 256.299 120.76C257.339 120.76 258.139 120 258.139 118.86V113.1H260.839V118.64C260.839 121.4 258.879 123.24 256.299 123.24C253.659 123.24 251.719 121.4 251.719 118.64ZM269.5 113.1V115.48H268.78C267.16 115.48 266.12 116.36 266.12 118.06V123H263.42V113.1H265.9V114.28C266.56 113.46 267.52 112.98 268.62 112.98C268.96 112.98 269.24 113.02 269.5 113.1ZM277.534 120.74V123C276.894 123.16 276.274 123.24 275.674 123.24C273.174 123.24 271.714 122 271.714 119.52V115.38H270.154V113.1H271.714V110.6H274.414V113.1H277.214V115.38H274.414V119.28C274.414 120.4 274.974 120.82 276.254 120.82C276.414 120.82 276.834 120.8 277.534 120.74ZM279.394 118.64V113.1H282.094V118.86C282.094 120 282.874 120.76 283.974 120.76C285.014 120.76 285.814 120 285.814 118.86V113.1H288.514V118.64C288.514 121.4 286.554 123.24 283.974 123.24C281.334 123.24 279.394 121.4 279.394 118.64ZM297.176 113.1V115.48H296.456C294.836 115.48 293.796 116.36 293.796 118.06V123H291.096V113.1H293.576V114.28C294.236 113.46 295.196 112.98 296.296 112.98C296.636 112.98 296.916 113.02 297.176 113.1ZM307.754 118.96H300.814C301.134 120.22 302.154 120.92 303.594 120.92C304.574 120.92 305.494 120.58 306.354 119.92L307.474 121.76C306.294 122.74 304.974 123.24 303.514 123.24C300.454 123.3 298.034 120.92 298.094 118.06C298.034 115.2 300.414 112.82 303.274 112.88C306.014 112.88 307.934 114.9 307.934 117.48C307.934 117.96 307.874 118.46 307.754 118.96ZM300.814 117.06H305.314C305.294 115.84 304.354 115.06 303.174 115.06C302.034 115.06 301.114 115.84 300.814 117.06ZM315.827 123V109.8H318.527V120.56H324.307V123H315.827ZM335.157 118.96H328.217C328.537 120.22 329.557 120.92 330.997 120.92C331.977 120.92 332.897 120.58 333.757 119.92L334.877 121.76C333.697 122.74 332.377 123.24 330.917 123.24C327.857 123.3 325.437 120.92 325.497 118.06C325.437 115.2 327.817 112.82 330.677 112.88C333.417 112.88 335.337 114.9 335.337 117.48C335.337 117.96 335.277 118.46 335.157 118.96ZM328.217 117.06H332.717C332.697 115.84 331.757 115.06 330.577 115.06C329.437 115.06 328.517 115.84 328.217 117.06ZM345.744 117.12V123H343.264V122.04C342.544 122.78 341.504 123.24 340.244 123.24C338.144 123.24 336.824 122.02 336.824 120.28C336.824 118.5 338.264 117.4 340.564 117.4H343.044V116.96C343.044 115.86 342.404 115.22 341.204 115.22C340.184 115.22 339.464 115.64 338.584 116.58L337.184 114.92C338.324 113.56 339.764 112.88 341.504 112.88C344.084 112.88 345.744 114.38 345.744 117.12ZM343.044 119.3V119.18H340.924C340.044 119.18 339.544 119.52 339.544 120.18C339.544 120.84 340.104 121.26 340.964 121.26C342.144 121.26 343.044 120.44 343.044 119.3ZM355.542 108H358.242V123H355.762V121.78C355.102 122.72 353.942 123.24 352.582 123.24C349.822 123.24 347.782 121.04 347.782 118.06C347.782 115.08 349.822 112.88 352.582 112.88C353.842 112.88 354.822 113.28 355.542 114.06V108ZM355.582 118.06C355.582 116.3 354.442 115.32 353.082 115.32C351.642 115.32 350.522 116.42 350.522 118.04C350.522 119.7 351.622 120.78 353.082 120.78C354.442 120.78 355.582 119.84 355.582 118.06ZM360.02 121.32L361.38 119.68C362.24 120.58 363.18 121.02 364.16 121.02C364.88 121.02 365.42 120.74 365.42 120.2C365.42 119.78 365.14 119.62 364.4 119.3L363.34 118.86C361.52 118.12 360.64 117.3 360.64 115.84C360.64 113.98 362.12 112.88 364.28 112.88C365.76 112.88 366.94 113.38 367.84 114.36L366.48 116.02C365.82 115.4 365.08 115.08 364.26 115.08C363.6 115.08 363.2 115.32 363.2 115.78C363.2 116.16 363.46 116.34 364.24 116.66L365.2 117.06C367.12 117.84 367.98 118.62 367.98 120.08C367.98 121.06 367.62 121.84 366.88 122.4C366.16 122.96 365.24 123.24 364.12 123.24C362.38 123.24 360.92 122.52 360.02 121.32Z" fill="white"></path><g filter="url(#filter0_d_350_3863)"><circle cx="302.5" cy="53.5" r="34.5" fill="white"></circle></g><path d="M302.949 70.5272C300.655 70.5272 298.499 70.092 296.481 69.2216C294.463 68.3512 292.708 67.1699 291.215 65.6779C289.723 64.1858 288.541 62.4312 287.67 60.414C286.799 58.3968 286.364 56.2416 286.364 53.9484C286.364 51.6549 286.799 49.4991 287.669 47.4811C288.54 45.463 289.721 43.7077 291.213 42.215C292.705 40.7224 294.46 39.5405 296.477 38.6696C298.494 37.7989 300.649 37.3635 302.943 37.3635C305.236 37.3635 307.392 37.7987 309.41 38.6691C311.428 39.5395 313.183 40.7208 314.676 42.2128C316.169 43.7049 317.35 45.4595 318.221 47.4767C319.092 49.4939 319.527 51.6491 319.527 53.9423C319.527 56.2358 319.092 58.3916 318.222 60.4096C317.351 62.4277 316.17 64.183 314.678 65.6757C313.186 67.1683 311.431 68.3501 309.414 69.2211C307.397 70.0918 305.242 70.5272 302.949 70.5272ZM302.946 67.909C306.844 67.909 310.146 66.5563 312.851 63.8508C315.556 61.1453 316.909 57.8435 316.909 53.9453C316.909 50.0472 315.556 46.7453 312.851 44.0399C310.146 41.3344 306.844 39.9817 302.946 39.9817C299.047 39.9817 295.746 41.3344 293.04 44.0399C290.335 46.7453 288.982 50.0472 288.982 53.9453C288.982 57.8435 290.335 61.1453 293.04 63.8508C295.746 66.5563 299.047 67.909 302.946 67.909ZM302.95 63.5453C300.284 63.5453 298.017 62.6124 296.148 60.7465C294.28 58.8806 293.346 56.6149 293.346 53.9493C293.346 51.2837 294.279 49.0166 296.144 47.1481C298.01 45.2796 300.276 44.3453 302.942 44.3453C305.607 44.3453 307.874 45.2783 309.743 47.1442C311.611 49.0101 312.546 51.2758 312.546 53.9414C312.546 56.607 311.613 58.8741 309.747 60.7426C307.881 62.6111 305.615 63.5453 302.95 63.5453ZM302.946 60.9272C304.866 60.9272 306.509 60.2435 307.876 58.8763C309.244 57.509 309.927 55.8653 309.927 53.9453C309.927 52.0253 309.244 50.3817 307.876 49.0144C306.509 47.6472 304.866 46.9635 302.946 46.9635C301.026 46.9635 299.382 47.6472 298.015 49.0144C296.647 50.3817 295.964 52.0253 295.964 53.9453C295.964 55.8653 296.647 57.509 298.015 58.8763C299.382 60.2435 301.026 60.9272 302.946 60.9272ZM302.946 56.5635C302.232 56.5635 301.617 56.3056 301.101 55.7899C300.585 55.2741 300.327 54.6592 300.327 53.9453C300.327 53.2315 300.585 52.6166 301.101 52.1008C301.617 51.5851 302.232 51.3272 302.946 51.3272C303.659 51.3272 304.274 51.5851 304.79 52.1008C305.306 52.6166 305.564 53.2315 305.564 53.9453C305.564 54.6592 305.306 55.2741 304.79 55.7899C304.274 56.3056 303.659 56.5635 302.946 56.5635Z" fill="#D12026"></path><rect y="184" width="211" height="148" rx="16" fill="#0C0C0C"></rect><path d="M33.0784 300.4C32.9984 296.6 36.2384 293.5 40.1384 293.56C42.4584 293.56 44.4184 294.6 45.6984 296.42L43.7784 298C42.8384 296.7 41.6184 296.06 40.0984 296.06C37.5784 296.06 35.8584 297.88 35.8584 300.4C35.8584 302.96 37.6384 304.82 40.2584 304.82C41.7784 304.82 42.9984 304.2 43.7384 303.18V302.1H40.0984V299.76H46.4384V303.66C45.8384 304.72 44.9784 305.6 43.8584 306.26C42.7584 306.92 41.5184 307.24 40.1384 307.24C36.2584 307.32 33.0184 304.18 33.0784 300.4ZM57.6998 302.96H50.7598C51.0798 304.22 52.0998 304.92 53.5398 304.92C54.5198 304.92 55.4398 304.58 56.2998 303.92L57.4198 305.76C56.2398 306.74 54.9198 307.24 53.4598 307.24C50.3998 307.3 47.9798 304.92 48.0398 302.06C47.9798 299.2 50.3598 296.82 53.2198 296.88C55.9598 296.88 57.8798 298.9 57.8798 301.48C57.8798 301.96 57.8198 302.46 57.6998 302.96ZM50.7598 301.06H55.2598C55.2398 299.84 54.2998 299.06 53.1198 299.06C51.9798 299.06 51.0598 299.84 50.7598 301.06ZM69.0865 300.86V307H66.4065V301.22C66.4065 300.08 65.6665 299.3 64.5665 299.3C63.4665 299.3 62.6865 300.08 62.6865 301.22V307H59.9865V297.1H62.4665V298C63.1665 297.3 64.1865 296.88 65.3665 296.88C67.6665 296.88 69.0865 298.46 69.0865 300.86ZM80.7857 302.96H73.8457C74.1657 304.22 75.1857 304.92 76.6257 304.92C77.6057 304.92 78.5257 304.58 79.3857 303.92L80.5057 305.76C79.3257 306.74 78.0057 307.24 76.5457 307.24C73.4857 307.3 71.0657 304.92 71.1257 302.06C71.0657 299.2 73.4457 296.82 76.3057 296.88C79.0457 296.88 80.9657 298.9 80.9657 301.48C80.9657 301.96 80.9057 302.46 80.7857 302.96ZM73.8457 301.06H78.3457C78.3257 299.84 77.3857 299.06 76.2057 299.06C75.0657 299.06 74.1457 299.84 73.8457 301.06ZM89.1524 297.1V299.48H88.4324C86.8124 299.48 85.7724 300.36 85.7724 302.06V307H83.0724V297.1H85.5524V298.28C86.2124 297.46 87.1724 296.98 88.2724 296.98C88.6124 296.98 88.8924 297.02 89.1524 297.1ZM98.931 301.12V307H96.451V306.04C95.731 306.78 94.691 307.24 93.431 307.24C91.331 307.24 90.011 306.02 90.011 304.28C90.011 302.5 91.451 301.4 93.751 301.4H96.231V300.96C96.231 299.86 95.591 299.22 94.391 299.22C93.371 299.22 92.651 299.64 91.771 300.58L90.371 298.92C91.511 297.56 92.951 296.88 94.691 296.88C97.271 296.88 98.931 298.38 98.931 301.12ZM96.231 303.3V303.18H94.111C93.231 303.18 92.731 303.52 92.731 304.18C92.731 304.84 93.291 305.26 94.151 305.26C95.331 305.26 96.231 304.44 96.231 303.3ZM107.889 304.74V307C107.249 307.16 106.629 307.24 106.029 307.24C103.529 307.24 102.069 306 102.069 303.52V299.38H100.509V297.1H102.069V294.6H104.769V297.1H107.569V299.38H104.769V303.28C104.769 304.4 105.329 304.82 106.609 304.82C106.769 304.82 107.189 304.8 107.889 304.74ZM118.754 302.96H111.814C112.134 304.22 113.154 304.92 114.594 304.92C115.574 304.92 116.494 304.58 117.354 303.92L118.474 305.76C117.294 306.74 115.974 307.24 114.514 307.24C111.454 307.3 109.034 304.92 109.094 302.06C109.034 299.2 111.414 296.82 114.274 296.88C117.014 296.88 118.934 298.9 118.934 301.48C118.934 301.96 118.874 302.46 118.754 302.96ZM111.814 301.06H116.314C116.294 299.84 115.354 299.06 114.174 299.06C113.034 299.06 112.114 299.84 111.814 301.06ZM126.827 307V293.8H129.527V304.56H135.307V307H126.827ZM146.157 302.96H139.217C139.537 304.22 140.557 304.92 141.997 304.92C142.977 304.92 143.897 304.58 144.757 303.92L145.877 305.76C144.697 306.74 143.377 307.24 141.917 307.24C138.857 307.3 136.437 304.92 136.497 302.06C136.437 299.2 138.817 296.82 141.677 296.88C144.417 296.88 146.337 298.9 146.337 301.48C146.337 301.96 146.277 302.46 146.157 302.96ZM139.217 301.06H143.717C143.697 299.84 142.757 299.06 141.577 299.06C140.437 299.06 139.517 299.84 139.217 301.06ZM156.744 301.12V307H154.264V306.04C153.544 306.78 152.504 307.24 151.244 307.24C149.144 307.24 147.824 306.02 147.824 304.28C147.824 302.5 149.264 301.4 151.564 301.4H154.044V300.96C154.044 299.86 153.404 299.22 152.204 299.22C151.184 299.22 150.464 299.64 149.584 300.58L148.184 298.92C149.324 297.56 150.764 296.88 152.504 296.88C155.084 296.88 156.744 298.38 156.744 301.12ZM154.044 303.3V303.18H151.924C151.044 303.18 150.544 303.52 150.544 304.18C150.544 304.84 151.104 305.26 151.964 305.26C153.144 305.26 154.044 304.44 154.044 303.3ZM166.542 292H169.242V307H166.762V305.78C166.102 306.72 164.942 307.24 163.582 307.24C160.822 307.24 158.782 305.04 158.782 302.06C158.782 299.08 160.822 296.88 163.582 296.88C164.842 296.88 165.822 297.28 166.542 298.06V292ZM166.582 302.06C166.582 300.3 165.442 299.32 164.082 299.32C162.642 299.32 161.522 300.42 161.522 302.04C161.522 303.7 162.622 304.78 164.082 304.78C165.442 304.78 166.582 303.84 166.582 302.06ZM171.02 305.32L172.38 303.68C173.24 304.58 174.18 305.02 175.16 305.02C175.88 305.02 176.42 304.74 176.42 304.2C176.42 303.78 176.14 303.62 175.4 303.3L174.34 302.86C172.52 302.12 171.64 301.3 171.64 299.84C171.64 297.98 173.12 296.88 175.28 296.88C176.76 296.88 177.94 297.38 178.84 298.36L177.48 300.02C176.82 299.4 176.08 299.08 175.26 299.08C174.6 299.08 174.2 299.32 174.2 299.78C174.2 300.16 174.46 300.34 175.24 300.66L176.2 301.06C178.12 301.84 178.98 302.62 178.98 304.08C178.98 305.06 178.62 305.84 177.88 306.4C177.16 306.96 176.24 307.24 175.12 307.24C173.38 307.24 171.92 306.52 171.02 305.32Z" fill="white"></path><g filter="url(#filter1_d_350_3863)"><circle cx="105.5" cy="237.5" r="34.5" fill="white"></circle></g><path d="M91.9817 250.164H99.5509V236.2H91.9817V250.164ZM102.169 250.164H109.722V225.727H102.169V250.164ZM112.34 250.164H119.909V239.691H112.34V250.164ZM89.3635 249.627V236.737C89.3635 235.869 89.6725 235.127 90.2904 234.509C90.9083 233.891 91.6511 233.582 92.5189 233.582H99.5509V226.264C99.5509 225.397 99.8598 224.654 100.478 224.036C101.096 223.418 101.838 223.109 102.706 223.109H109.184C110.052 223.109 110.795 223.418 111.413 224.036C112.031 224.654 112.34 225.397 112.34 226.264V237.073H119.372C120.24 237.073 120.982 237.382 121.6 238C122.218 238.617 122.527 239.36 122.527 240.228V249.627C122.527 250.494 122.218 251.237 121.6 251.855C120.982 252.473 120.24 252.782 119.372 252.782H92.5189C91.6511 252.782 90.9083 252.473 90.2904 251.855C89.6725 251.237 89.3635 250.494 89.3635 249.627Z" fill="#D12026"></path><rect x="393" y="184" width="211" height="148" rx="16" fill="#0C0C0C"></rect><path d="M443.059 300.4C442.999 296.62 446.259 293.48 450.099 293.56C452.599 293.56 454.739 294.78 455.919 296.84L453.879 298.28C452.939 296.8 451.679 296.06 450.099 296.06C447.639 296.06 445.839 297.9 445.839 300.42C445.839 302.94 447.639 304.74 450.099 304.74C451.679 304.74 452.939 304 453.879 302.52L455.919 303.96C454.779 306.02 452.619 307.24 450.079 307.24C446.219 307.32 442.979 304.18 443.059 300.4ZM458.033 307V292H460.733V307H458.033ZM462.844 302.04C462.784 299.22 465.244 296.82 468.144 296.88C471.044 296.84 473.524 299.22 473.464 302.04C473.524 304.86 471.024 307.28 468.124 307.22C465.224 307.28 462.784 304.86 462.844 302.04ZM470.704 302.06C470.704 300.52 469.604 299.34 468.144 299.34C466.644 299.34 465.584 300.48 465.584 302.06C465.584 303.6 466.644 304.74 468.144 304.74C469.604 304.74 470.704 303.6 470.704 302.06ZM474.672 305.32L476.032 303.68C476.892 304.58 477.832 305.02 478.812 305.02C479.532 305.02 480.072 304.74 480.072 304.2C480.072 303.78 479.792 303.62 479.052 303.3L477.992 302.86C476.172 302.12 475.292 301.3 475.292 299.84C475.292 297.98 476.772 296.88 478.932 296.88C480.412 296.88 481.592 297.38 482.492 298.36L481.132 300.02C480.472 299.4 479.732 299.08 478.912 299.08C478.252 299.08 477.852 299.32 477.852 299.78C477.852 300.16 478.112 300.34 478.892 300.66L479.852 301.06C481.772 301.84 482.632 302.62 482.632 304.08C482.632 305.06 482.272 305.84 481.532 306.4C480.812 306.96 479.892 307.24 478.772 307.24C477.032 307.24 475.572 306.52 474.672 305.32ZM493.774 302.96H486.834C487.154 304.22 488.174 304.92 489.614 304.92C490.594 304.92 491.514 304.58 492.374 303.92L493.494 305.76C492.314 306.74 490.994 307.24 489.534 307.24C486.474 307.3 484.054 304.92 484.114 302.06C484.054 299.2 486.434 296.82 489.294 296.88C492.034 296.88 493.954 298.9 493.954 301.48C493.954 301.96 493.894 302.46 493.774 302.96ZM486.834 301.06H491.334C491.314 299.84 490.374 299.06 489.194 299.06C488.054 299.06 487.134 299.84 486.834 301.06ZM501.846 307V293.8H504.546V304.56H510.326V307H501.846ZM521.176 302.96H514.236C514.556 304.22 515.576 304.92 517.016 304.92C517.996 304.92 518.916 304.58 519.776 303.92L520.896 305.76C519.716 306.74 518.396 307.24 516.936 307.24C513.876 307.3 511.456 304.92 511.516 302.06C511.456 299.2 513.836 296.82 516.696 296.88C519.436 296.88 521.356 298.9 521.356 301.48C521.356 301.96 521.296 302.46 521.176 302.96ZM514.236 301.06H518.736C518.716 299.84 517.776 299.06 516.596 299.06C515.456 299.06 514.536 299.84 514.236 301.06ZM531.763 301.12V307H529.283V306.04C528.563 306.78 527.523 307.24 526.263 307.24C524.163 307.24 522.843 306.02 522.843 304.28C522.843 302.5 524.283 301.4 526.583 301.4H529.063V300.96C529.063 299.86 528.423 299.22 527.223 299.22C526.203 299.22 525.483 299.64 524.603 300.58L523.203 298.92C524.343 297.56 525.783 296.88 527.523 296.88C530.103 296.88 531.763 298.38 531.763 301.12ZM529.063 303.3V303.18H526.943C526.063 303.18 525.563 303.52 525.563 304.18C525.563 304.84 526.123 305.26 526.983 305.26C528.163 305.26 529.063 304.44 529.063 303.3ZM541.561 292H544.261V307H541.781V305.78C541.121 306.72 539.961 307.24 538.601 307.24C535.841 307.24 533.801 305.04 533.801 302.06C533.801 299.08 535.841 296.88 538.601 296.88C539.861 296.88 540.841 297.28 541.561 298.06V292ZM541.601 302.06C541.601 300.3 540.461 299.32 539.101 299.32C537.661 299.32 536.541 300.42 536.541 302.04C536.541 303.7 537.641 304.78 539.101 304.78C540.461 304.78 541.601 303.84 541.601 302.06ZM546.04 305.32L547.4 303.68C548.26 304.58 549.2 305.02 550.18 305.02C550.9 305.02 551.44 304.74 551.44 304.2C551.44 303.78 551.16 303.62 550.42 303.3L549.36 302.86C547.54 302.12 546.66 301.3 546.66 299.84C546.66 297.98 548.14 296.88 550.3 296.88C551.78 296.88 552.96 297.38 553.86 298.36L552.5 300.02C551.84 299.4 551.1 299.08 550.28 299.08C549.62 299.08 549.22 299.32 549.22 299.78C549.22 300.16 549.48 300.34 550.26 300.66L551.22 301.06C553.14 301.84 554 302.62 554 304.08C554 305.06 553.64 305.84 552.9 306.4C552.18 306.96 551.26 307.24 550.14 307.24C548.4 307.24 546.94 306.52 546.04 305.32Z" fill="white"></path><g filter="url(#filter2_d_350_3863)"><circle cx="498.5" cy="237.5" r="34.5" fill="white"></circle></g><path d="M484.982 253.218C484.61 253.218 484.299 253.093 484.049 252.842C483.798 252.591 483.673 252.28 483.673 251.909V250.348C483.673 249.977 483.798 249.667 484.049 249.416C484.3 249.165 484.611 249.039 484.982 249.039C485.354 249.039 485.664 249.165 485.915 249.416C486.166 249.667 486.291 249.977 486.291 250.348V251.909C486.291 252.28 486.166 252.591 485.914 252.842C485.663 253.093 485.352 253.218 484.982 253.218ZM491.963 253.218C491.592 253.218 491.281 253.093 491.031 252.842C490.78 252.591 490.655 252.28 490.655 251.909V242.494C490.655 242.123 490.78 241.812 491.031 241.561C491.282 241.31 491.593 241.185 491.964 241.185C492.335 241.185 492.646 241.31 492.897 241.561C493.147 241.812 493.273 242.123 493.273 242.494V251.909C493.273 252.28 493.147 252.591 492.896 252.842C492.645 253.093 492.334 253.218 491.963 253.218ZM498.945 253.218C498.574 253.218 498.263 253.093 498.013 252.842C497.762 252.591 497.636 252.28 497.636 251.909V245.985C497.636 245.614 497.762 245.303 498.013 245.052C498.264 244.801 498.575 244.676 498.946 244.676C499.317 244.676 499.628 244.801 499.879 245.052C500.129 245.303 500.255 245.614 500.255 245.985V251.909C500.255 252.28 500.129 252.591 499.878 252.842C499.627 253.093 499.316 253.218 498.945 253.218ZM505.927 253.218C505.556 253.218 505.245 253.093 504.994 252.842C504.744 252.591 504.618 252.28 504.618 251.909V243.366C504.618 242.996 504.744 242.685 504.995 242.434C505.246 242.183 505.557 242.057 505.928 242.057C506.299 242.057 506.61 242.183 506.86 242.434C507.111 242.685 507.236 242.996 507.236 243.366V251.909C507.236 252.28 507.111 252.591 506.86 252.842C506.609 253.093 506.298 253.218 505.927 253.218ZM512.909 253.218C512.538 253.218 512.227 253.093 511.976 252.842C511.726 252.591 511.6 252.28 511.6 251.909V236.385C511.6 236.014 511.726 235.703 511.977 235.452C512.228 235.201 512.539 235.076 512.91 235.076C513.281 235.076 513.592 235.201 513.842 235.452C514.093 235.703 514.218 236.014 514.218 236.385V251.909C514.218 252.28 514.093 252.591 513.842 252.842C513.591 253.093 513.28 253.218 512.909 253.218ZM502.436 237.432C502.027 237.432 501.631 237.353 501.249 237.196C500.866 237.039 500.517 236.817 500.201 236.529L495.841 232.168C495.74 232.068 495.611 232.018 495.455 232.018C495.298 232.018 495.169 232.068 495.068 232.168L485.902 241.336C485.642 241.595 485.331 241.723 484.968 241.72C484.606 241.717 484.295 241.58 484.035 241.309C483.794 241.049 483.678 240.74 483.689 240.382C483.7 240.024 483.824 239.725 484.062 239.486L493.219 230.329C493.535 230.015 493.885 229.786 494.267 229.642C494.649 229.498 495.045 229.426 495.455 229.426C495.864 229.426 496.267 229.498 496.662 229.642C497.057 229.786 497.4 230.015 497.69 230.329L502.05 234.69C502.151 234.79 502.28 234.841 502.436 234.841C502.593 234.841 502.722 234.79 502.823 234.69L511.989 225.523C512.249 225.263 512.56 225.135 512.923 225.138C513.285 225.142 513.596 225.279 513.856 225.549C514.097 225.809 514.213 226.118 514.202 226.476C514.191 226.835 514.067 227.133 513.829 227.372L504.672 236.529C504.382 236.817 504.039 237.039 503.644 237.196C503.249 237.353 502.846 237.432 502.436 237.432Z" fill="#D12026"></path><g clip-path="url(#clip0_350_3863)"><path d="M73.4531 169.839C72.717 145.145 81.5017 120.748 97.9044 101.995C113.033 84.6553 136.83 71.2325 160.43 69.0133C160.323 68.1144 160.216 67.2155 160.128 66.3033C159.889 64.2728 159.345 62.014 159.778 59.9766C159.844 59.5952 160.005 59.2291 160.185 58.8496C160.172 58.8312 160.127 58.8076 160.095 58.8025C159.285 58.379 159.772 56.4974 160.748 56.9146L162.428 57.6079C162.428 57.6079 162.582 57.6652 162.672 57.7122C167.072 59.5262 171.44 61.3352 175.84 63.1492C175.858 63.1358 175.896 63.1091 175.914 63.0958C176.773 62.4819 177.91 63.0066 178.338 63.8426C178.404 63.9348 178.377 64.0937 178.424 64.1993C181.374 65.4059 184.306 66.6258 187.269 67.8508C188.859 68.497 188.263 71.2921 187.099 72.0693C179.796 76.8457 172.243 81.2717 164.782 85.8269C163.317 86.7356 162.316 85.1385 162.173 83.8747C161.925 81.5161 161.645 79.1525 161.365 76.7889C152.614 77.7246 144.13 79.1932 135.614 82.469C123.243 87.2188 111.776 94.6115 102.372 103.984C84.9435 121.38 75.3965 145.263 74.7696 169.511C74.7328 170.485 73.4867 171.069 73.4531 169.839Z" fill="#D12026"></path></g><g clip-path="url(#clip1_350_3863)"><path d="M425.455 53.2304C450.104 54.8945 473.533 66.0057 490.605 84.1511C506.395 100.891 517.445 125.878 517.363 149.583C518.268 149.564 519.173 149.545 520.089 149.545C522.133 149.504 524.434 149.183 526.42 149.811C526.793 149.914 527.142 150.11 527.502 150.326C527.522 150.314 527.549 150.272 527.558 150.24C528.058 149.475 529.883 150.143 529.373 151.073L528.52 152.678C528.52 152.678 528.448 152.826 528.393 152.911C526.16 157.114 523.936 161.286 521.703 165.489C521.715 165.509 521.738 165.549 521.749 165.568C522.277 166.482 521.644 167.563 520.771 167.908C520.673 167.965 520.517 167.922 520.407 167.959C518.92 170.778 517.421 173.577 515.915 176.408C515.117 177.928 512.393 177.063 511.733 175.829C507.688 168.097 504.015 160.15 500.206 152.283C499.444 150.736 501.131 149.894 502.402 149.875C504.774 149.857 507.153 149.808 509.533 149.759C509.451 140.958 508.813 132.372 506.379 123.577C502.852 110.805 496.608 98.6736 488.192 88.4051C472.57 69.3699 449.726 57.5499 425.654 54.5726C424.688 54.4413 424.227 53.1444 425.455 53.2304Z" fill="#D12026"></path></g><line x1="302.5" y1="148" x2="302.5" y2="259" stroke="black" stroke-dasharray="3 3"></line><line x1="393" y1="258.5" x2="306" y2="258.5" stroke="black" stroke-dasharray="3 3"></line><line x1="299" y1="258.5" x2="211" y2="258.5" stroke="black" stroke-dasharray="3 3"></line><circle cx="302.5" cy="257.5" r="56.5" fill="#0C0C0C"></circle><g clip-path="url(#clip2_350_3863)"><path d="M294.867 377.223C296.812 381.158 298.955 385 301.137 388.808C301.562 389.539 302.506 388.925 302.776 388.373C304.975 384.057 307.184 379.718 309.383 375.402C309.488 375.164 309.402 374.894 309.145 374.832C308.836 374.772 308.585 375.048 308.458 375.275C308.439 375.318 308.41 375.383 308.391 375.426C308.391 375.426 308.391 375.426 308.348 375.407C306.977 375.47 305.626 375.49 304.256 375.554C304.844 367.244 304.309 358.848 304.095 350.544C303.843 341.164 303.556 331.743 302.714 322.411C302.641 321.759 301.659 322.227 301.638 322.682C301.021 331.986 300.924 341.341 300.899 350.649C300.869 358.923 300.455 367.362 301.206 375.62C299.507 375.667 297.832 375.776 296.143 375.801C295.52 375.808 294.548 376.487 294.919 377.22L294.867 377.223Z" fill="#0C0C0C"></path></g><g clip-path="url(#clip3_350_3863)"><path d="M268.178 373.423C268.688 377.783 269.415 382.121 270.192 386.442C270.346 387.272 271.441 387.011 271.881 386.583C275.403 383.256 278.941 379.912 282.462 376.585C282.641 376.397 282.651 376.113 282.43 375.968C282.159 375.808 281.829 375.983 281.633 376.155C281.601 376.189 281.552 376.241 281.52 376.275C281.52 376.275 281.52 376.275 281.485 376.242C280.173 375.841 278.894 375.406 277.582 375.005C280.928 367.376 283.245 359.289 285.833 351.396C288.747 342.476 291.642 333.506 293.984 324.433C294.135 323.795 293.052 323.906 292.879 324.328C289.172 332.884 285.939 341.662 282.788 350.421C279.979 358.203 276.754 366.013 274.687 374.043C273.071 373.517 271.457 373.056 269.857 372.513C269.268 372.31 268.124 372.623 268.228 373.438L268.178 373.423Z" fill="#0C0C0C"></path></g><g clip-path="url(#clip4_350_3863)"><path d="M320.124 378.488C323.074 381.74 326.187 384.847 329.33 387.911C329.939 388.497 330.678 387.648 330.787 387.043C331.718 382.289 332.653 377.512 333.584 372.758C333.621 372.501 333.463 372.264 333.2 372.274C332.886 372.302 332.72 372.636 332.66 372.89C332.654 372.936 332.644 373.006 332.637 373.053C332.637 373.053 332.637 373.053 332.591 373.047C331.29 373.483 329.996 373.873 328.695 374.309C326.983 366.157 324.167 358.23 321.685 350.302C318.87 341.35 316.012 332.369 312.643 323.625C312.395 323.019 311.579 323.738 311.683 324.181C313.641 333.298 316.112 342.32 318.64 351.279C320.879 359.244 322.794 367.473 325.78 375.21C324.159 375.72 322.579 376.284 320.961 376.771C320.364 376.949 319.615 377.869 320.174 378.472L320.124 378.488Z" fill="#0C0C0C"></path></g><rect x="214" y="407" width="177" height="71" rx="16" fill="#D12026"></rect><path d="M278.668 446.32L280.528 444.92C281.388 446.1 282.328 446.84 283.768 446.84C284.948 446.84 285.648 446.28 285.648 445.38C285.648 444.6 285.228 444.32 283.968 443.74L282.548 443.1C280.528 442.2 279.348 441.06 279.348 439.3C279.348 437.04 281.228 435.56 283.728 435.56C285.748 435.56 287.268 436.54 288.088 438.06L286.248 439.48C285.568 438.46 284.728 437.96 283.728 437.96C282.788 437.96 282.088 438.42 282.088 439.24C282.088 439.94 282.508 440.26 283.628 440.76L285.128 441.42C287.348 442.4 288.388 443.5 288.388 445.28C288.388 447.7 286.408 449.24 283.768 449.24C281.528 449.24 279.688 448.1 278.668 446.32ZM290.02 444.04C290.02 441.14 292.38 438.88 295.32 438.88C297.26 438.88 298.76 439.8 299.62 441.32L297.74 442.78C297.12 441.88 296.4 441.34 295.36 441.34C293.84 441.34 292.76 442.5 292.76 444.04C292.76 445.62 293.84 446.76 295.36 446.76C296.38 446.76 297.1 446.24 297.74 445.34L299.62 446.78C298.76 448.3 297.24 449.24 295.32 449.24C292.42 449.3 289.98 446.9 290.02 444.04ZM309.915 443.12V449H307.435V448.04C306.715 448.78 305.675 449.24 304.415 449.24C302.315 449.24 300.995 448.02 300.995 446.28C300.995 444.5 302.435 443.4 304.735 443.4H307.215V442.96C307.215 441.86 306.575 441.22 305.375 441.22C304.355 441.22 303.635 441.64 302.755 442.58L301.355 440.92C302.495 439.56 303.935 438.88 305.675 438.88C308.255 438.88 309.915 440.38 309.915 443.12ZM307.215 445.3V445.18H305.095C304.215 445.18 303.715 445.52 303.715 446.18C303.715 446.84 304.275 447.26 305.135 447.26C306.315 447.26 307.215 446.44 307.215 445.3ZM312.514 449V434H315.214V449H312.514ZM326.985 444.96H320.045C320.365 446.22 321.385 446.92 322.825 446.92C323.805 446.92 324.725 446.58 325.585 445.92L326.705 447.76C325.525 448.74 324.205 449.24 322.745 449.24C319.685 449.3 317.265 446.92 317.325 444.06C317.265 441.2 319.645 438.82 322.505 438.88C325.245 438.88 327.165 440.9 327.165 443.48C327.165 443.96 327.105 444.46 326.985 444.96ZM320.045 443.06H324.545C324.525 441.84 323.585 441.06 322.405 441.06C321.265 441.06 320.345 441.84 320.045 443.06Z" fill="white"></path><path d="M264.801 262.32L266.661 260.92C267.521 262.1 268.461 262.84 269.901 262.84C271.081 262.84 271.781 262.28 271.781 261.38C271.781 260.6 271.361 260.32 270.101 259.74L268.681 259.1C266.661 258.2 265.481 257.06 265.481 255.3C265.481 253.04 267.361 251.56 269.861 251.56C271.881 251.56 273.401 252.54 274.221 254.06L272.381 255.48C271.701 254.46 270.861 253.96 269.861 253.96C268.921 253.96 268.221 254.42 268.221 255.24C268.221 255.94 268.641 256.26 269.761 256.76L271.261 257.42C273.481 258.4 274.521 259.5 274.521 261.28C274.521 263.7 272.541 265.24 269.901 265.24C267.661 265.24 265.821 264.1 264.801 262.32ZM283.473 255.1H286.313L281.573 265.86C280.673 267.92 279.473 268.84 277.633 268.84C277.073 268.84 276.493 268.76 275.893 268.6V266.34C276.513 266.4 276.893 266.42 277.053 266.42C278.013 266.42 278.653 266.12 279.113 265.08L279.413 264.4L275.613 255.1H278.473L280.893 261.6L283.473 255.1ZM286.692 263.32L288.052 261.68C288.912 262.58 289.852 263.02 290.832 263.02C291.552 263.02 292.092 262.74 292.092 262.2C292.092 261.78 291.812 261.62 291.072 261.3L290.012 260.86C288.192 260.12 287.312 259.3 287.312 257.84C287.312 255.98 288.792 254.88 290.952 254.88C292.432 254.88 293.612 255.38 294.512 256.36L293.152 258.02C292.492 257.4 291.752 257.08 290.932 257.08C290.272 257.08 289.872 257.32 289.872 257.78C289.872 258.16 290.132 258.34 290.912 258.66L291.872 259.06C293.792 259.84 294.652 260.62 294.652 262.08C294.652 263.06 294.292 263.84 293.552 264.4C292.832 264.96 291.912 265.24 290.792 265.24C289.052 265.24 287.592 264.52 286.692 263.32ZM303.054 262.74V265C302.414 265.16 301.794 265.24 301.194 265.24C298.694 265.24 297.234 264 297.234 261.52V257.38H295.674V255.1H297.234V252.6H299.934V255.1H302.734V257.38H299.934V261.28C299.934 262.4 300.494 262.82 301.774 262.82C301.934 262.82 302.354 262.8 303.054 262.74ZM313.919 260.96H306.979C307.299 262.22 308.319 262.92 309.759 262.92C310.739 262.92 311.659 262.58 312.519 261.92L313.639 263.76C312.459 264.74 311.139 265.24 309.679 265.24C306.619 265.3 304.199 262.92 304.259 260.06C304.199 257.2 306.579 254.82 309.439 254.88C312.179 254.88 314.099 256.9 314.099 259.48C314.099 259.96 314.039 260.46 313.919 260.96ZM306.979 259.06H311.479C311.459 257.84 310.519 257.06 309.339 257.06C308.199 257.06 307.279 257.84 306.979 259.06ZM331.465 258.86V265H328.765V259.24C328.765 258.06 328.065 257.32 327.005 257.32C325.945 257.32 325.185 258.08 325.185 259.18V265H322.485V259.24C322.485 258.06 321.785 257.32 320.725 257.32C319.625 257.32 318.905 258.06 318.905 259.24V265H316.205V255.1H318.685V255.98C319.345 255.28 320.345 254.88 321.485 254.88C322.785 254.88 323.765 255.36 324.425 256.3C325.205 255.42 326.365 254.88 327.725 254.88C330.045 254.88 331.465 256.46 331.465 258.86ZM333.137 263.32L334.497 261.68C335.357 262.58 336.297 263.02 337.277 263.02C337.997 263.02 338.537 262.74 338.537 262.2C338.537 261.78 338.257 261.62 337.517 261.3L336.457 260.86C334.637 260.12 333.757 259.3 333.757 257.84C333.757 255.98 335.237 254.88 337.397 254.88C338.877 254.88 340.057 255.38 340.957 256.36L339.597 258.02C338.937 257.4 338.197 257.08 337.377 257.08C336.717 257.08 336.317 257.32 336.317 257.78C336.317 258.16 336.577 258.34 337.357 258.66L338.317 259.06C340.237 259.84 341.097 260.62 341.097 262.08C341.097 263.06 340.737 263.84 339.997 264.4C339.277 264.96 338.357 265.24 337.237 265.24C335.497 265.24 334.037 264.52 333.137 263.32Z" fill="white"></path><defs><filter id="filter0_d_350_3863" x="254.2" y="5.2" width="96.6" height="96.6" filterUnits="userSpaceOnUse" color-interpolation-filters="sRGB"><feGaussianBlur stdDeviation="6.9"></feGaussianBlur></filter><filter id="filter1_d_350_3863" x="57.2" y="189.2" width="96.6" height="96.6" filterUnits="userSpaceOnUse" color-interpolation-filters="sRGB"><feGaussianBlur stdDeviation="6.9"></feGaussianBlur></filter><filter id="filter2_d_350_3863" x="450.2" y="189.2" width="96.6" height="96.6" filterUnits="userSpaceOnUse" color-interpolation-filters="sRGB"><feGaussianBlur stdDeviation="6.9"></feGaussianBlur></filter><clipPath id="clip0_350_3863"><rect width="44.4522" height="152.249" fill="white" transform="matrix(0.581695 0.813407 0.813407 -0.581695 48 134.562)"></rect></clipPath><clipPath id="clip1_350_3863"><rect width="44.4522" height="152.249" fill="white" transform="matrix(-0.866025 0.5 0.5 0.866025 463.035 31.3213)"></rect></clipPath><clipPath id="clip2_350_3863"><rect width="28.5065" height="61.6618" fill="white" transform="translate(303 389.789) rotate(-156.075)"></rect></clipPath><clipPath id="clip3_350_3863"><rect width="28.5065" height="61.6618" fill="white" transform="translate(271.616 387.991) rotate(-136.444)"></rect></clipPath><clipPath id="clip4_350_3863"><rect width="28.5065" height="61.6618" fill="white" transform="translate(331.39 388.344) rotate(-171.987)"></rect></clipPath></defs></svg>