<svg xmlns="http://www.w3.org/2000/svg" width="90" height="90" viewBox="0 0 90 90" fill="none"><g filter="url(#filter0_d_38_1503)"><rect width="80" height="80" rx="16" fill="white"></rect><g clip-path="url(#clip0_38_1503)"><g clip-path="url(#clip1_38_1503)"><g clip-path="url(#clip2_38_1503)"><mask id="mask0_38_1503" style="mask-type:luminance" maskUnits="userSpaceOnUse" x="21" y="22" width="38" height="36"><path d="M58.8 22H21V58H58.8V22Z" fill="white"></path></mask><g mask="url(#mask0_38_1503)"><path d="M49.4547 22.2161C49.1969 22.4739 49.0742 22.8546 48.5833 24.7579C48.301 25.8385 48.301 25.8999 48.5096 26.2069C48.9392 26.8823 49.8229 26.8946 50.1543 26.2438C50.3506 25.8754 51.0379 23.2107 51.0379 22.8669C51.0379 22.1547 49.9579 21.7126 49.4547 22.2161Z" fill="#D12026"></path><path d="M39.1492 23.9108C38.6953 24.1441 37.7508 25.4825 37.8244 25.7895C37.8734 25.986 49.2697 45.7929 49.4292 45.9648C49.4782 46.014 49.9444 46.0631 50.4473 46.0876C51.2324 46.1122 51.441 46.0754 51.7231 45.8543C52.3242 45.4123 52.5573 44.9948 52.5573 44.3685C52.545 43.8159 52.1648 43.116 46.9267 34.0414C42.9643 27.1648 41.2101 24.23 40.9525 24.0458C40.4618 23.702 39.6767 23.6406 39.1492 23.9108Z" fill="#0C0C0C"></path><path d="M35.6424 29.3135C34.2071 31.6834 32.8822 33.5868 31.7414 34.9498L30.7109 36.1901L33.8636 41.6422C35.5933 44.6384 37.0776 47.0821 37.1512 47.0698C40.6719 46.3207 42.88 46.0506 45.4316 46.0506C46.3516 46.0506 47.1122 46.026 47.1122 45.9892C47.1122 45.9155 37.004 28.3434 36.7464 27.9627C36.6115 27.7663 36.4765 27.9259 35.6424 29.3135Z" fill="#0C0C0C"></path><path d="M54.7768 28.5641C54.0408 28.9939 53.3538 29.4482 53.2802 29.5587C52.8509 30.1236 53.317 31.0691 54.0163 31.0691C54.4211 31.0691 57.0953 29.5587 57.353 29.1903C57.6106 28.822 57.586 28.4536 57.2794 28.0729C56.8623 27.5449 56.347 27.6431 54.7768 28.5641Z" fill="#D12026"></path><path d="M47.4051 30.8854C47.4665 31.0573 49.6378 34.864 50.0181 35.478L50.2021 35.7727L50.3861 35.3552C50.4842 35.1218 50.5701 34.5815 50.5823 34.1395C50.5946 32.7887 49.8831 31.6222 48.6809 31.0205C47.9572 30.6644 47.2825 30.5907 47.4051 30.8854Z" fill="#D12026"></path><path d="M54.4952 35.7727C54.164 36.1288 54.1394 36.755 54.4584 37.0743C54.6915 37.3076 55.0963 37.4427 57.0713 37.9707L58.1385 38.2531L58.482 37.9953C58.9604 37.6392 59.0218 36.8901 58.617 36.5217C58.3225 36.2516 55.7219 35.4902 55.0963 35.4902C54.9 35.4902 54.6424 35.613 54.4952 35.7727Z" fill="#D12026"></path><path d="M26.4163 39.2231C23.0919 41.1387 22.822 41.3352 22.135 42.2807C20.1477 44.97 20.847 48.8871 23.6316 50.6677C25.0423 51.5764 26.9806 51.8465 28.563 51.343C29.1887 51.1466 34.5004 48.224 34.9297 47.8434C35.0524 47.7329 34.439 46.5909 32.2555 42.7965C30.6975 40.1072 29.3972 37.8232 29.3481 37.7373C29.2745 37.6268 28.4649 38.0443 26.4163 39.2231Z" fill="#0C0C0C"></path><path d="M34.2668 50.5084C33.31 51.061 32.4881 51.5522 32.4513 51.6013C32.3286 51.7118 35.0519 56.4395 35.5549 57.0043C36.1192 57.6429 36.9411 57.9867 37.8734 57.999C38.5113 58.0112 38.7812 57.9376 39.5663 57.5446L40.4863 57.0903L40.0938 56.3781C37.9225 52.5714 36.1192 49.4892 36.0701 49.5015C36.0333 49.5015 35.2237 49.9558 34.2668 50.5084Z" fill="#0C0C0C"></path></g></g></g></g></g><defs><filter id="filter0_d_38_1503" x="0" y="0" width="90" height="90" filterUnits="userSpaceOnUse" color-interpolation-filters="sRGB"></filter><clipPath id="clip0_38_1503"><rect width="38" height="36" fill="white" transform="translate(21 22)"></rect></clipPath><clipPath id="clip1_38_1503"><rect width="38" height="36" fill="white" transform="translate(21 22)"></rect></clipPath><clipPath id="clip2_38_1503"><rect width="38" height="36" fill="white" transform="translate(21 22)"></rect></clipPath></defs></svg>