<svg xmlns="http://www.w3.org/2000/svg" width="16" height="16" viewBox="0 0 16 16" fill="none"><path d="M11.5663 -0.00390625H4.44508C3.34371 -0.00272625 2.2878 0.435314 1.50901 1.21409C0.730226 1.99287 0.292186 3.04879 0.291016 4.15015V11.2714C0.292186 12.3727 0.730226 13.4287 1.50901 14.2074C2.2878 14.9862 3.34371 15.4243 4.44508 15.4254H11.5663C12.6677 15.4243 13.7236 14.9862 14.5024 14.2074C15.2812 13.4287 15.7192 12.3727 15.7204 11.2714V4.15015C15.7192 3.04879 15.2812 1.99287 14.5024 1.21409C13.7236 0.435314 12.6677 -0.00272625 11.5663 -0.00390625ZM8.0057 11.2714C7.30148 11.2714 6.61307 11.0626 6.02752 10.6713C5.44198 10.2801 4.98561 9.72402 4.71611 9.07342C4.44662 8.42272 4.37611 7.70683 4.51349 7.01614C4.65088 6.32544 4.99 5.691 5.48796 5.19304C5.98592 4.69508 6.62036 4.35596 7.31106 4.21857C8.00175 4.08118 8.7177 4.1517 9.3683 4.42119C10.0189 4.69069 10.575 5.14706 10.9663 5.7326C11.3575 6.31814 11.5663 7.00655 11.5663 7.71078C11.5653 8.65482 11.1899 9.55992 10.5224 10.2274C9.8548 10.8949 8.9497 11.2704 8.0057 11.2714ZM12.4565 4.15015C12.2804 4.15015 12.1083 4.09795 11.9619 4.00014C11.8156 3.90232 11.7015 3.7633 11.6341 3.60065C11.5667 3.43799 11.5491 3.25901 11.5834 3.08634C11.6178 2.91366 11.7026 2.75505 11.827 2.63056C11.9515 2.50607 12.1101 2.42129 12.2828 2.38695C12.4555 2.3526 12.6345 2.37023 12.7971 2.4376C12.9598 2.50498 13.0988 2.61907 13.1966 2.76545C13.2944 2.91184 13.3466 3.08394 13.3466 3.26C13.3466 3.49608 13.2529 3.7225 13.0859 3.88943C12.919 4.05637 12.6926 4.15015 12.4565 4.15015ZM10.3794 7.71078C10.3794 8.18026 10.2402 8.63922 9.97939 9.02952C9.71859 9.41992 9.34779 9.72422 8.91409 9.90382C8.48034 10.0835 8.00307 10.1305 7.54261 10.0389C7.08214 9.94732 6.65918 9.72122 6.32721 9.38932C5.99523 9.05732 5.76915 8.63432 5.67756 8.17387C5.58597 7.71341 5.63298 7.23613 5.81264 6.80238C5.99231 6.36864 6.29656 5.99791 6.68692 5.73708C7.07728 5.47625 7.53622 5.33703 8.0057 5.33703C8.6353 5.33703 9.239 5.58712 9.6842 6.03228C10.1294 6.47745 10.3794 7.08122 10.3794 7.71078Z" fill="#D12026"></path></svg>