<svg xmlns="http://www.w3.org/2000/svg" width="20" height="18" viewBox="0 0 20 18" fill="none"><path d="M4.76682 17.7581H0.77145V6.5259H4.76682V17.7581ZM2.76698 4.99372C1.48939 4.99372 0.453125 4.06991 0.453125 2.95457C0.453125 2.41883 0.69691 1.90504 1.13084 1.52621C1.56477 1.14739 2.15331 0.93457 2.76698 0.93457C3.38065 0.93457 3.96919 1.14739 4.40312 1.52621C4.83706 1.90504 5.08084 2.41883 5.08084 2.95457C5.08084 4.06991 4.04414 4.99372 2.76698 4.99372ZM19.7202 17.7581H15.7334V12.2903C15.7334 10.9872 15.7033 9.31612 13.6562 9.31612C11.5789 9.31612 11.2606 10.7318 11.2606 12.1964V17.7581H7.26951V6.5259H11.1014V8.05808H11.1573C11.6907 7.17558 12.9937 6.24425 14.9376 6.24425C18.9812 6.24425 19.7245 8.56881 19.7245 11.5881V17.7581H19.7202Z" fill="#D12026"></path></svg>