<svg xmlns="http://www.w3.org/2000/svg" width="96" height="74" viewBox="0 0 96 74" fill="none"><path d="M43.1663 0V4.61059C29.452 12.6791 21.1335 22.8224 17.7611 35.271C21.1335 32.9657 24.281 31.8131 27.2037 31.8131C31.9251 31.8131 35.9719 33.6573 39.1194 37.5763C42.267 41.4953 44.0656 46.3364 44.0656 51.8692C44.0656 58.0935 42.0422 63.3956 37.7705 67.5452C33.4988 71.6947 28.3279 74 22.0328 74C15.7377 74 10.5667 71.2336 6.29508 65.9315C2.02342 60.6293 0 53.9439 0 45.8754C0 34.5794 4.27166 24.4361 12.5902 15.4455C21.1335 6.45483 31.2506 1.38318 43.1663 0Z" fill="#D12026"></path><path d="M95.0999 0V4.61059C81.3856 12.6791 73.0671 22.8224 69.6947 35.271C73.0671 32.9657 76.2146 31.8131 79.1373 31.8131C83.8587 31.8131 87.6807 33.6573 91.053 37.5763C94.2006 41.4953 95.9992 46.3364 95.9992 51.8692C95.9992 58.0935 93.9757 63.3956 89.7041 67.5452C85.4324 71.6947 80.2615 74 73.9664 74C67.6713 74 62.5003 71.2336 58.2287 65.9315C53.957 60.6293 51.9336 53.7134 51.9336 45.8754C51.9336 34.5794 56.2053 24.4361 64.5238 15.4455C73.0671 6.45483 83.1842 1.38318 95.0999 0Z" fill="#D12026"></path></svg>