<svg width="20" height="20" viewBox="0 0 20 20" fill="none" xmlns="http://www.w3.org/2000/svg">
<g clip-path="url(#clip0_2516_566)">
<path d="M10.5045 18.8467L10.5163 18.8316C10.5163 18.8316 10.5163 18.8315 10.5163 18.8315L19.8644 6.85284C20.0149 6.6601 20.0426 6.39833 19.9351 6.17856C19.828 5.95844 19.6047 5.81906 19.36 5.81906H1.84508L4.00724 2.62237L6.08906 5.20338C6.20101 5.34241 6.36641 5.42839 6.54528 5.44014C6.55915 5.4412 6.57302 5.44155 6.58688 5.44155C6.75087 5.44155 6.90928 5.37846 7.02924 5.26475L10.0006 2.43104L12.9712 5.26475C13.1009 5.3885 13.2777 5.45264 13.4548 5.44018C13.633 5.42839 13.7987 5.34276 13.911 5.20342L16.0043 2.60858L17.7677 5.1067C17.8925 5.28315 18.0901 5.37745 18.2912 5.37745C18.4185 5.37745 18.5474 5.33967 18.6598 5.26026C18.9486 5.05642 19.0172 4.65704 18.8133 4.36828L16.5768 1.20038C16.5407 1.14428 16.4955 1.09272 16.4407 1.04854C16.4173 1.02971 16.3928 1.0135 16.3677 0.99846C16.3653 0.996975 16.3628 0.995569 16.3603 0.994123C16.342 0.983498 16.3235 0.973849 16.3046 0.965216C16.3011 0.963654 16.2977 0.962052 16.2943 0.960529C16.2729 0.951232 16.2513 0.942989 16.2293 0.936153C16.2286 0.935919 16.2278 0.935606 16.2271 0.935372C16.2174 0.932403 16.2076 0.929747 16.1978 0.927247C16.19 0.925215 16.1821 0.923457 16.1742 0.921739C16.1623 0.9192 16.1505 0.916895 16.1386 0.91502C16.1274 0.913223 16.1162 0.911699 16.1049 0.910488C16.098 0.909785 16.0912 0.909121 16.0843 0.908613C16.0689 0.907481 16.0535 0.906738 16.0379 0.906738H16.0335C16.0326 0.906738 16.0318 0.906738 16.0309 0.906738H12.5937C12.2401 0.906738 11.9538 1.19343 11.9538 1.54668C11.9538 1.89993 12.2401 2.18662 12.5937 2.18662H14.7004L13.3516 3.85862L10.4423 1.08385C10.1951 0.847752 9.8065 0.847752 9.55865 1.08385L6.64868 3.85862L5.30013 2.18662H7.40671C7.76031 2.18662 8.04665 1.89993 8.04665 1.54668C8.04665 1.19343 7.76031 0.906738 7.40671 0.906738H3.97002C3.96916 0.906738 3.96826 0.906738 3.9674 0.906738H3.96185C3.94591 0.906738 3.93013 0.90752 3.91439 0.908691C3.90892 0.909082 3.90349 0.909668 3.89802 0.910215C3.88345 0.91166 3.869 0.913574 3.85466 0.915996C3.85075 0.91666 3.84681 0.917168 3.8429 0.91791C3.82669 0.920957 3.81071 0.924864 3.79489 0.929122C3.78915 0.930684 3.78345 0.932286 3.77775 0.933966C3.76181 0.93877 3.74603 0.944005 3.73056 0.950021C3.72599 0.951779 3.72149 0.953849 3.71696 0.955724C3.7038 0.961193 3.69079 0.967091 3.67802 0.97342C3.67356 0.975607 3.66911 0.977678 3.6647 0.979982C3.64927 0.988069 3.63426 0.996897 3.61954 1.00623C3.6152 1.00901 3.6109 1.01182 3.60657 1.01471C3.59165 1.02467 3.57704 1.0351 3.56297 1.04635C3.562 1.04713 3.56094 1.04772 3.56 1.0485C3.55762 1.05041 3.55559 1.0526 3.55321 1.05455C3.54141 1.06436 3.52996 1.07459 3.51883 1.08526C3.51524 1.0887 3.51153 1.09206 3.50801 1.09557C3.49637 1.10729 3.48528 1.1196 3.47449 1.13221C3.46992 1.13756 3.46551 1.14296 3.46117 1.14842C3.45238 1.15944 3.44395 1.17077 3.43586 1.18245C3.4332 1.18632 3.43039 1.19007 3.42781 1.19397L0.109988 6.10055C-0.0227887 6.29677 -0.0363047 6.55017 0.0746358 6.75924C0.185576 6.96827 0.403278 7.09898 0.640042 7.09898H5.72518L8.31197 15.2499L2.46943 7.76353C2.25173 7.48481 1.84922 7.43524 1.5712 7.65259C1.29283 7.86994 1.24291 8.2721 1.46061 8.55081L9.48337 18.8311C9.48454 18.8327 9.48579 18.8341 9.48696 18.8357L9.49341 18.8439C9.49751 18.8492 9.50177 18.8544 9.50607 18.8596C9.51341 18.8685 9.52099 18.8771 9.52872 18.8856C9.53411 18.8914 9.53939 18.8973 9.54501 18.903C9.55298 18.9111 9.56134 18.9187 9.56974 18.9263C9.57841 18.9342 9.58728 18.942 9.59642 18.9494C9.5981 18.9508 9.59982 18.952 9.60154 18.9534C9.61017 18.9603 9.61876 18.9672 9.62771 18.9736C9.6354 18.9791 9.64345 18.9842 9.65142 18.9893C9.65197 18.9897 9.65251 18.99 9.65306 18.9904C9.65501 18.9916 9.65685 18.993 9.6588 18.9942C9.66443 18.9978 9.67009 19.0012 9.67584 19.0046C9.68381 19.0093 9.69193 19.0138 9.70013 19.0181C9.70611 19.0213 9.71209 19.0244 9.71818 19.0274C9.7199 19.0283 9.72166 19.029 9.72338 19.0298C9.72552 19.0308 9.72771 19.0318 9.72986 19.0328C9.73697 19.0361 9.74392 19.0395 9.75119 19.0426C9.76103 19.0468 9.77107 19.0504 9.78107 19.054C9.78385 19.055 9.78662 19.0561 9.78943 19.0571C9.79439 19.0589 9.79928 19.0608 9.80432 19.0625C9.80506 19.0627 9.80572 19.063 9.80643 19.0632C9.81443 19.0658 9.82244 19.0677 9.83049 19.0699C9.83791 19.0719 9.84522 19.0742 9.85272 19.076C9.86147 19.0781 9.87022 19.0795 9.87897 19.0813C9.88651 19.0827 9.89397 19.0844 9.90158 19.0856C9.9092 19.0868 9.91682 19.0875 9.92444 19.0884C9.92619 19.0886 9.92791 19.0888 9.92967 19.089C9.93053 19.0891 9.93139 19.0892 9.93225 19.0893C9.93842 19.09 9.94455 19.0909 9.95077 19.0915C9.96733 19.0927 9.98381 19.0934 10.0003 19.0934C10.0166 19.0934 10.033 19.0928 10.0496 19.0915C10.0566 19.0909 10.0635 19.0899 10.0705 19.0891C10.0725 19.0888 10.0745 19.0886 10.0765 19.0884C10.0839 19.0875 10.0912 19.0868 10.0986 19.0857C10.1077 19.0842 10.1167 19.0822 10.1258 19.0804C10.1329 19.079 10.14 19.0778 10.147 19.0761C10.1596 19.0731 10.1721 19.0695 10.1845 19.0657C10.1875 19.0648 10.1904 19.0642 10.1934 19.0632C10.1936 19.0632 10.1938 19.0631 10.194 19.063C10.1994 19.0613 10.2047 19.0593 10.2101 19.0574C10.2137 19.0561 10.2173 19.0547 10.2209 19.0534C10.2308 19.0497 10.2407 19.0461 10.2504 19.042C10.2558 19.0397 10.261 19.0371 10.2663 19.0346C10.2689 19.0334 10.2716 19.0322 10.2742 19.031C10.2773 19.0295 10.2803 19.0282 10.2834 19.0268C10.2895 19.0237 10.2955 19.0205 10.3015 19.0173C10.3087 19.0134 10.3158 19.0095 10.3228 19.0054C10.3286 19.0021 10.3343 18.9987 10.34 18.9951C10.3435 18.9929 10.3469 18.9905 10.3503 18.9882C10.3505 18.9881 10.3506 18.9881 10.3508 18.9879C10.3577 18.9834 10.3648 18.979 10.3715 18.9741C10.3798 18.9682 10.3878 18.9618 10.3959 18.9555C10.399 18.953 10.4022 18.9506 10.4053 18.9481C10.4068 18.9469 10.4083 18.9458 10.4098 18.9446C10.4157 18.9397 10.4213 18.9345 10.427 18.9294C10.4366 18.9207 10.4462 18.912 10.4553 18.9027C10.4556 18.9024 10.456 18.9021 10.4563 18.9018C10.461 18.897 10.4654 18.8921 10.4698 18.8872C10.4785 18.8779 10.4868 18.8684 10.4949 18.8585C10.498 18.8546 10.5013 18.8507 10.5045 18.8467ZM11.6877 15.2507L14.2745 7.09898H18.0492L11.6877 15.2507ZM12.9317 7.09894L9.99987 16.3381L7.06803 7.09894H12.9317Z" fill="black"/>
</g>
<defs>
<clipPath id="clip0_2516_566">
<rect width="20" height="20" fill="white"/>
</clipPath>
</defs>
</svg>
