<svg width="22" height="22" viewBox="0 0 22 22" fill="none" xmlns="http://www.w3.org/2000/svg">
<path d="M11.0003 1.31982C5.66273 1.31982 1.32031 5.66225 1.32031 10.9998C1.32031 16.3374 5.66273 20.6798 11.0003 20.6798C16.3379 20.6798 20.6803 16.3374 20.6803 10.9998C20.6803 5.66225 16.3379 1.31982 11.0003 1.31982ZM11.0003 18.9198C6.6334 18.9198 3.08031 15.3667 3.08031 10.9998C3.08031 6.63291 6.6334 3.07982 11.0003 3.07982C15.3672 3.07982 18.9203 6.63291 18.9203 10.9998C18.9203 15.3667 15.3672 18.9198 11.0003 18.9198Z" fill="black"/>
<path d="M11.0004 8.44225C11.4855 8.44225 11.8804 8.83713 11.8804 9.32225H13.6404C13.6404 8.17654 12.9025 7.20883 11.8804 6.8444V5.80225H10.1204V6.8444C9.09823 7.20883 8.36035 8.17654 8.36035 9.32225C8.36035 10.778 9.54457 11.9622 11.0004 11.9622C11.4855 11.9622 11.8804 12.3571 11.8804 12.8422C11.8804 13.3274 11.4855 13.7222 11.0004 13.7222C10.5152 13.7222 10.1204 13.3274 10.1204 12.8422H8.36035C8.36035 13.988 9.09823 14.9556 10.1204 15.32V16.3622H11.8804V15.3201C12.9025 14.9557 13.6404 13.988 13.6404 12.8422C13.6404 11.3865 12.4561 10.2022 11.0004 10.2022C10.5152 10.2022 10.1204 9.80736 10.1204 9.32225C10.1204 8.83713 10.5152 8.44225 11.0004 8.44225Z" fill="black"/>
</svg>
