<svg width="20" height="20" viewBox="0 0 20 20" fill="none" xmlns="http://www.w3.org/2000/svg">
<g clip-path="url(#clip0_2518_584)">
<path d="M15.3694 5.41012H13.6786L14.9992 4.08871L13.8208 2.91016L11.0775 5.65445C10.7519 5.97984 10.7519 6.50703 11.0775 6.83281L13.821 9.57691L15 8.39836L13.6786 7.07657H15.3694C17.0038 7.07829 18.3332 8.38692 18.3332 9.99519C18.3332 10.7648 18.0315 11.4906 17.4822 12.0401C16.9207 12.6016 16.1615 12.9483 15.3681 12.9102C14.5752 12.9102 13.8308 12.6056 13.2698 12.0513L7.90043 6.75041C7.02572 5.88543 5.85766 5.44121 4.63066 5.41183C3.39546 5.41183 2.23408 5.88696 1.35994 6.75041C0.48275 7.61616 0 8.76858 0 9.99405C0 11.2197 0.48275 12.3721 1.35975 13.2388C2.23293 14.1015 3.39355 14.5768 4.62704 14.5768H6.32133L5.0005 15.8986L6.17905 17.0768L8.92258 14.3323C9.24797 14.0069 9.24797 13.4778 8.92258 13.1541L6.17924 10.41L4.99992 11.5884L6.32153 12.9102H4.62723C3.83549 12.9102 3.09067 12.6056 2.53105 12.053C1.97353 11.5022 1.66683 10.7713 1.66683 9.99405C1.66683 9.21719 1.97353 8.48629 2.53105 7.93621C3.09067 7.38289 3.8372 7.07829 4.632 7.07829H4.63371C5.42469 7.07829 6.16951 7.38289 6.73027 7.93621L12.0991 13.2373C12.973 14.1015 14.1342 14.5766 15.3669 14.5766H15.3713C16.6162 14.5766 17.7839 14.0941 18.6605 13.2184C19.5248 12.3542 20.0008 11.209 20.0001 9.99405C20.0001 7.46738 17.923 5.41183 15.3694 5.41012Z" fill="black"/>
</g>
<defs>
<clipPath id="clip0_2518_584">
<rect width="20" height="20" fill="white"/>
</clipPath>
</defs>
</svg>
